<?xml version="1.0" encoding="UTF-8" standalone="no"?>
<!DOCTYPE svg PUBLIC "-//W3C//DTD SVG 1.1//EN"
"http://www.w3.org/Graphics/SVG/1.1/DTD/svg11.dtd">
<svg viewBox="0 0 909 1286" version="1.1" xmlns="http://www.w3.org/2000/svg" xmlns:xlink="http://www.w3.org/1999/xlink">
<defs>
<clipPath id="c0_3"><path d="M454.1,714.8V699.6h13.2v15.2Z" /></clipPath>
<clipPath id="c1_3"><path d="M702,714.8V699.6h13.2v15.2Z" /></clipPath>
<clipPath id="c2_3"><path d="M94.4,738.6V723.5h13.1v15.1Z" /></clipPath>
<clipPath id="c3_3"><path d="M189,1004.5V989.3h13.1v15.2Z" /></clipPath>
<clipPath id="c4_3"><path d="M201.8,1049.6v-15.2H215v15.2Z" /></clipPath>
<clipPath id="c5_3"><path d="M201.8,1072.3v-15.2H215v15.2Z" /></clipPath>
<clipPath id="c6_3"><path d="M201.8,1095.1v-15.3H215v15.3Z" /></clipPath>
<clipPath id="c7_3"><path d="M201.8,1118.1V1103H215v15.1Z" /></clipPath>
<style type="text/css"><![CDATA[
.g0_3{
}
]]></style>
</defs>
<g fill="#231F20" >
<use xlink:href="#f0_2b" transform="matrix(12,0,0,12,110,99.8)" />
<use xlink:href="#f1_22" transform="matrix(12,0,0,12,137.5,99.8)" />
<use xlink:href="#f1_u" transform="matrix(12,0,0,12,143.4,99.8)" />
<use xlink:href="#f1_1o" transform="matrix(12,0,0,12,153.7,99.8)" />
<use xlink:href="#f2_8r" transform="matrix(12,0,0,12,171.3,99.8)" />
<use xlink:href="#f1_1p" transform="matrix(12,0,0,12,194,99.8)" />
<use xlink:href="#f1_25" transform="matrix(12,0,0,12,209.8,99.8)" />
<use xlink:href="#f1_2f" transform="matrix(12,0,0,12,215.3,99.8)" />
<use xlink:href="#f1_2b" transform="matrix(12,0,0,12,227.7,99.8)" />
<use xlink:href="#f1_2a" transform="matrix(12,0,0,12,237.3,99.8)" />
<use xlink:href="#f1_2g" transform="matrix(12,0,0,12,248.2,99.8)" />
<use xlink:href="#f1_2b" transform="matrix(12,0,0,12,254.5,99.8)" />
<use xlink:href="#f1_25" transform="matrix(12,0,0,12,268.8,99.8)" />
<use xlink:href="#f1_22" transform="matrix(12,0,0,12,274.3,99.8)" />
<use xlink:href="#f1_1x" transform="matrix(12,0,0,12,284.5,99.8)" />
<use xlink:href="#f1_2a" transform="matrix(12,0,0,12,293.7,99.8)" />
<use xlink:href="#f1_20" transform="matrix(12,0,0,12,304.7,99.8)" />
<use xlink:href="#f1_2b" transform="matrix(12,0,0,12,319.7,99.8)" />
<use xlink:href="#f1_2a" transform="matrix(12,0,0,12,329.2,99.8)" />
<use xlink:href="#f1_28" transform="matrix(12,0,0,12,340.2,99.8)" />
<use xlink:href="#f1_2l" transform="matrix(12,0,0,12,345.3,99.8)" />
<use xlink:href="#f1_25" transform="matrix(12,0,0,12,358.9,99.8)" />
<use xlink:href="#f1_22" transform="matrix(12,0,0,12,364.4,99.8)" />
<use xlink:href="#f1_1i" transform="matrix(12,0,0,12,374.6,99.8)" />
<use xlink:href="#f1_1x" transform="matrix(12,0,0,12,387.5,99.8)" />
<use xlink:href="#f1_2a" transform="matrix(12,0,0,12,396.6,99.8)" />
<use xlink:href="#f1_23" transform="matrix(12,0,0,12,407.6,99.8)" />
<use xlink:href="#f1_21" transform="matrix(12,0,0,12,416.8,99.8)" />
<use xlink:href="#f1_2b" transform="matrix(12,0,0,12,430,99.8)" />
<use xlink:href="#f1_22" transform="matrix(12,0,0,12,439.9,99.8)" />
<use xlink:href="#f1_22" transform="matrix(12,0,0,12,450.2,99.8)" />
<use xlink:href="#f1_x" transform="matrix(12,0,0,12,460.4,99.8)" />
<use xlink:href="#f1_1p" transform="matrix(12,0,0,12,476.6,99.8)" />
<use xlink:href="#f1_i" transform="matrix(12,0,0,12,487.9,99.8)" />
<use xlink:href="#f0_2b" transform="matrix(12,0,0,12,110,121.8)" />
<use xlink:href="#f1_15" transform="matrix(12,0,0,12,137.5,121.8)" />
<use xlink:href="#f1_23" transform="matrix(12,0,0,12,149.6,121.8)" />
<use xlink:href="#f1_u" transform="matrix(12,0,0,12,158.8,121.8)" />
<use xlink:href="#f3_3d" transform="matrix(12,0,0,12,55,346.2)" />
<use xlink:href="#f1_11" transform="matrix(12,0,0,12,82.5,346.2)" />
<use xlink:href="#f1_22" transform="matrix(12,0,0,12,100.5,346.2)" />
<use xlink:href="#f1_2h" transform="matrix(12,0,0,12,106.3,346.2)" />
<use xlink:href="#f1_2a" transform="matrix(12,0,0,12,116.9,346.2)" />
<use xlink:href="#f1_1z" transform="matrix(12,0,0,12,127.9,346.2)" />
<use xlink:href="#f1_2g" transform="matrix(12,0,0,12,136.3,346.2)" />
<use xlink:href="#f1_25" transform="matrix(12,0,0,12,142.6,346.2)" />
<use xlink:href="#f1_2b" transform="matrix(12,0,0,12,148.1,346.2)" />
<use xlink:href="#f1_2a" transform="matrix(12,0,0,12,157.6,346.2)" />
<use xlink:href="#f1_22" transform="matrix(12,0,0,12,174.2,346.2)" />
<use xlink:href="#f1_u" transform="matrix(12,0,0,12,180.1,346.2)" />
<use xlink:href="#f1_1o" transform="matrix(12,0,0,12,191.5,346.2)" />
<use xlink:href="#f2_8r" transform="matrix(12,0,0,12,210.2,346.2)" />
<use xlink:href="#f1_1p" transform="matrix(12,0,0,12,234,346.2)" />
<use xlink:href="#f1_25" transform="matrix(12,0,0,12,250.8,346.2)" />
<use xlink:href="#f1_2f" transform="matrix(12,0,0,12,256.3,346.2)" />
<use xlink:href="#f1_2f" transform="matrix(12,0,0,12,269.9,346.2)" />
<use xlink:href="#f1_1x" transform="matrix(12,0,0,12,277.9,346.2)" />
<use xlink:href="#f1_25" transform="matrix(12,0,0,12,286.7,346.2)" />
<use xlink:href="#f1_20" transform="matrix(12,0,0,12,292.2,346.2)" />
<use xlink:href="#f1_2g" transform="matrix(12,0,0,12,308.3,346.2)" />
<use xlink:href="#f1_2b" transform="matrix(12,0,0,12,314.5,346.2)" />
<use xlink:href="#f1_1y" transform="matrix(12,0,0,12,329.9,346.2)" />
<use xlink:href="#f1_21" transform="matrix(12,0,0,12,340.2,346.2)" />
</g>
<g fill="#C00000" >
<use xlink:href="#f4_2b" transform="matrix(12,0,0,12,354.7,346.2)" />
<use xlink:href="#f4_2a" transform="matrix(12,0,0,12,366.4,346.2)" />
<use xlink:href="#f4_21" transform="matrix(12,0,0,12,379.2,346.2)" />
<use xlink:href="#f4_h" transform="matrix(12,0,0,12,389.9,346.2)" />
<use xlink:href="#f4_2b" transform="matrix(12,0,0,12,396.9,346.2)" />
<use xlink:href="#f4_2a" transform="matrix(12,0,0,12,408.3,346.2)" />
<use xlink:href="#f4_21" transform="matrix(12,0,0,12,421.1,346.2)" />
<use xlink:href="#f4_1x" transform="matrix(12,0,0,12,437.2,346.2)" />
<use xlink:href="#f4_2a" transform="matrix(12,0,0,12,447.8,346.2)" />
<use xlink:href="#f4_20" transform="matrix(12,0,0,12,460.6,346.2)" />
<use xlink:href="#f4_2b" transform="matrix(12,0,0,12,478.6,346.2)" />
<use xlink:href="#f4_2a" transform="matrix(12,0,0,12,490.3,346.2)" />
<use xlink:href="#f4_2g" transform="matrix(12,0,0,12,503.1,346.2)" />
<use xlink:href="#f4_2b" transform="matrix(12,0,0,12,510.4,346.2)" />
<use xlink:href="#f4_c" transform="matrix(12,0,0,12,528.2,346.2)" />
<use xlink:href="#f4_2b" transform="matrix(12,0,0,12,536.3,346.2)" />
<use xlink:href="#f4_2e" transform="matrix(12,0,0,12,548,346.2)" />
<use xlink:href="#f4_1y" transform="matrix(12,0,0,12,563.3,346.2)" />
<use xlink:href="#f4_25" transform="matrix(12,0,0,12,575.1,346.2)" />
<use xlink:href="#f4_26" transform="matrix(12,0,0,12,581.7,346.2)" />
<use xlink:href="#f4_21" transform="matrix(12,0,0,12,587.9,346.2)" />
<use xlink:href="#f4_1z" transform="matrix(12,0,0,12,598.2,346.2)" />
<use xlink:href="#f4_2g" transform="matrix(12,0,0,12,608,346.2)" />
<use xlink:href="#f4_25" transform="matrix(12,0,0,12,615.3,346.2)" />
<use xlink:href="#f4_2i" transform="matrix(12,0,0,12,622,346.2)" />
<use xlink:href="#f4_21" transform="matrix(12,0,0,12,632.2,346.2)" />
<use xlink:href="#f4_d" transform="matrix(12,0,0,12,642.8,346.2)" />
<use xlink:href="#f4_g" transform="matrix(12,0,0,12,650.9,346.2)" />
</g>
<g fill="#231F20" >
<use xlink:href="#f1_25" transform="matrix(12,0,0,12,662.5,346.2)" />
<use xlink:href="#f1_22" transform="matrix(12,0,0,12,667.9,346.2)" />
<use xlink:href="#f1_22" transform="matrix(12,0,0,12,679.3,346.2)" />
<use xlink:href="#f1_25" transform="matrix(12,0,0,12,690.6,346.2)" />
<use xlink:href="#f1_2f" transform="matrix(12,0,0,12,696.1,346.2)" />
<use xlink:href="#f1_1y" transform="matrix(12,0,0,12,709.6,346.2)" />
<use xlink:href="#f1_2b" transform="matrix(12,0,0,12,719.9,346.2)" />
<use xlink:href="#f1_2g" transform="matrix(12,0,0,12,729.8,346.2)" />
<use xlink:href="#f1_24" transform="matrix(12,0,0,12,736,346.2)" />
<use xlink:href="#f1_2b" transform="matrix(12,0,0,12,752.5,346.2)" />
<use xlink:href="#f1_2a" transform="matrix(12,0,0,12,762,346.2)" />
<use xlink:href="#f1_21" transform="matrix(12,0,0,12,773,346.2)" />
<use xlink:href="#f1_h" transform="matrix(12,0,0,12,782,346.2)" />
<use xlink:href="#f1_2b" transform="matrix(12,0,0,12,789,346.2)" />
<use xlink:href="#f1_2a" transform="matrix(12,0,0,12,798.9,346.2)" />
<use xlink:href="#f1_21" transform="matrix(12,0,0,12,809.9,346.2)" />
<use xlink:href="#f1_1x" transform="matrix(12,0,0,12,823.8,346.2)" />
<use xlink:href="#f1_2a" transform="matrix(12,0,0,12,833,346.2)" />
<use xlink:href="#f1_20" transform="matrix(12,0,0,12,843.9,346.2)" />
<use xlink:href="#f1_2b" transform="matrix(12,0,0,12,82.5,368.2)" />
<use xlink:href="#f1_2a" transform="matrix(12,0,0,12,92.4,368.2)" />
<use xlink:href="#f1_2g" transform="matrix(12,0,0,12,103.4,368.2)" />
<use xlink:href="#f1_2b" transform="matrix(12,0,0,12,109.7,368.2)" />
<use xlink:href="#f1_i" transform="matrix(12,0,0,12,119.5,368.2)" />
<use xlink:href="#f0_2b" transform="matrix(12,0,0,12,110,390.2)" />
<use xlink:href="#f1_15" transform="matrix(12,0,0,12,137.5,390.2)" />
<use xlink:href="#f1_23" transform="matrix(12,0,0,12,149.6,390.2)" />
<use xlink:href="#f1_u" transform="matrix(12,0,0,12,158.8,390.2)" />
</g>
<g fill="#C00000" >
<use xlink:href="#f4_13" transform="matrix(12,0,0,12,55,618.7)" />
<use xlink:href="#f4_2b" transform="matrix(12,0,0,12,68.2,618.7)" />
<use xlink:href="#f4_29" transform="matrix(12,0,0,12,79.9,618.7)" />
<use xlink:href="#f4_2c" transform="matrix(12,0,0,12,98.6,618.7)" />
<use xlink:href="#f4_2b" transform="matrix(12,0,0,12,110.7,618.7)" />
<use xlink:href="#f4_2f" transform="matrix(12,0,0,12,122.4,618.7)" />
<use xlink:href="#f4_25" transform="matrix(12,0,0,12,131.6,618.7)" />
<use xlink:href="#f4_2g" transform="matrix(12,0,0,12,138.2,618.7)" />
<use xlink:href="#f4_25" transform="matrix(12,0,0,12,145.5,618.7)" />
<use xlink:href="#f4_2b" transform="matrix(12,0,0,12,152.1,618.7)" />
<use xlink:href="#f4_2a" transform="matrix(12,0,0,12,163.5,618.7)" />
<use xlink:href="#f4_2b" transform="matrix(12,0,0,12,181,618.7)" />
<use xlink:href="#f4_22" transform="matrix(12,0,0,12,192.4,618.7)" />
<use xlink:href="#f4_16" transform="matrix(12,0,0,12,204.1,618.7)" />
<use xlink:href="#f4_2h" transform="matrix(12,0,0,12,216.6,618.7)" />
<use xlink:href="#f4_2a" transform="matrix(12,0,0,12,229,618.7)" />
<use xlink:href="#f4_1z" transform="matrix(12,0,0,12,241.5,618.7)" />
<use xlink:href="#f4_2g" transform="matrix(12,0,0,12,251.4,618.7)" />
<use xlink:href="#f4_25" transform="matrix(12,0,0,12,258.6,618.7)" />
<use xlink:href="#f4_2b" transform="matrix(12,0,0,12,265.3,618.7)" />
<use xlink:href="#f4_2a" transform="matrix(12,0,0,12,276.6,618.7)" />
<use xlink:href="#f4_2f" transform="matrix(12,0,0,12,289.4,618.7)" />
<use xlink:href="#f4_1x" transform="matrix(12,0,0,12,303.4,618.7)" />
<use xlink:href="#f4_2a" transform="matrix(12,0,0,12,314.3,618.7)" />
<use xlink:href="#f4_20" transform="matrix(12,0,0,12,327.2,618.7)" />
<use xlink:href="#f4_19" transform="matrix(12,0,0,12,344,618.7)" />
<use xlink:href="#f4_2a" transform="matrix(12,0,0,12,351.7,618.7)" />
<use xlink:href="#f4_2i" transform="matrix(12,0,0,12,364.5,618.7)" />
<use xlink:href="#f4_21" transform="matrix(12,0,0,12,374.8,618.7)" />
<use xlink:href="#f4_2e" transform="matrix(12,0,0,12,385.4,618.7)" />
<use xlink:href="#f4_2g" transform="matrix(12,0,0,12,394.9,618.7)" />
<use xlink:href="#f4_25" transform="matrix(12,0,0,12,402.2,618.7)" />
<use xlink:href="#f4_1y" transform="matrix(12,0,0,12,408.9,618.7)" />
<use xlink:href="#f4_28" transform="matrix(12,0,0,12,420.6,618.7)" />
<use xlink:href="#f4_21" transform="matrix(12,0,0,12,426.5,618.7)" />
<use xlink:href="#f4_16" transform="matrix(12,0,0,12,441.8,618.7)" />
<use xlink:href="#f4_2h" transform="matrix(12,0,0,12,454.3,618.7)" />
<use xlink:href="#f4_2a" transform="matrix(12,0,0,12,466.4,618.7)" />
<use xlink:href="#f4_1z" transform="matrix(12,0,0,12,479.2,618.7)" />
<use xlink:href="#f4_2g" transform="matrix(12,0,0,12,489.1,618.7)" />
<use xlink:href="#f4_25" transform="matrix(12,0,0,12,496,618.7)" />
<use xlink:href="#f4_2b" transform="matrix(12,0,0,12,502.6,618.7)" />
<use xlink:href="#f4_2a" transform="matrix(12,0,0,12,514.3,618.7)" />
</g>
<g fill="#000000" >
<use xlink:href="#f4_13" transform="matrix(12,0,0,12,55,663.1)" />
<use xlink:href="#f4_2b" transform="matrix(12,0,0,12,68.2,663.1)" />
<use xlink:href="#f4_29" transform="matrix(12,0,0,12,79.9,663.1)" />
<use xlink:href="#f4_2c" transform="matrix(12,0,0,12,98.6,663.1)" />
<use xlink:href="#f4_2b" transform="matrix(12,0,0,12,110.7,663.1)" />
<use xlink:href="#f4_2f" transform="matrix(12,0,0,12,122.4,663.1)" />
<use xlink:href="#f4_25" transform="matrix(12,0,0,12,131.6,663.1)" />
<use xlink:href="#f4_2g" transform="matrix(12,0,0,12,138.2,663.1)" />
<use xlink:href="#f4_21" transform="matrix(12,0,0,12,145.5,663.1)" />
<use xlink:href="#f4_16" transform="matrix(12,0,0,12,160.5,663.1)" />
<use xlink:href="#f4_2h" transform="matrix(12,0,0,12,173,663.1)" />
<use xlink:href="#f4_2a" transform="matrix(12,0,0,12,185.1,663.1)" />
<use xlink:href="#f4_1z" transform="matrix(12,0,0,12,197.9,663.1)" />
<use xlink:href="#f4_2g" transform="matrix(12,0,0,12,207.8,663.1)" />
<use xlink:href="#f4_25" transform="matrix(12,0,0,12,214.7,663.1)" />
<use xlink:href="#f4_2b" transform="matrix(12,0,0,12,221.3,663.1)" />
<use xlink:href="#f4_2a" transform="matrix(12,0,0,12,233,663.1)" />
</g>
<g fill="#231F20" >
<use xlink:href="#f3_3d" transform="matrix(12,0,0,12,55,687)" />
<use xlink:href="#f1_1c" transform="matrix(12,0,0,12,82.5,687)" />
<use xlink:href="#f1_21" transform="matrix(12,0,0,12,93.5,687)" />
<use xlink:href="#f1_2g" transform="matrix(12,0,0,12,102.3,687)" />
<use xlink:href="#f1_22" transform="matrix(12,0,0,12,113,687)" />
<use xlink:href="#f1_u" transform="matrix(12,0,0,12,118.8,687)" />
<use xlink:href="#f1_11" transform="matrix(12,0,0,12,129.1,687)" />
<use xlink:href="#f2_8r" transform="matrix(12,0,0,12,146,687)" />
<use xlink:href="#f1_12" transform="matrix(12,0,0,12,168.7,687)" />
<use xlink:href="#f1_1x" transform="matrix(12,0,0,12,185.2,687)" />
<use xlink:href="#f1_2a" transform="matrix(12,0,0,12,194.4,687)" />
<use xlink:href="#f1_20" transform="matrix(12,0,0,12,205.4,687)" />
<use xlink:href="#f1_23" transform="matrix(12,0,0,12,220.4,687)" />
<use xlink:href="#f1_u" transform="matrix(12,0,0,12,229.6,687)" />
<use xlink:href="#f1_12" transform="matrix(12,0,0,12,239.9,687)" />
<use xlink:href="#f2_8r" transform="matrix(12,0,0,12,256.4,687)" />
<use xlink:href="#f1_13" transform="matrix(12,0,0,12,279.1,687)" />
<use xlink:href="#f1_1y" transform="matrix(12,0,0,12,295.3,687)" />
<use xlink:href="#f1_21" transform="matrix(12,0,0,12,305.5,687)" />
<use xlink:href="#f1_2g" transform="matrix(12,0,0,12,318.8,687)" />
<use xlink:href="#f1_2j" transform="matrix(12,0,0,12,325,687)" />
<use xlink:href="#f1_2b" transform="matrix(12,0,0,12,338.5,687)" />
<use xlink:href="#f1_22" transform="matrix(12,0,0,12,352.8,687)" />
<use xlink:href="#f1_2h" transform="matrix(12,0,0,12,358.7,687)" />
<use xlink:href="#f1_2a" transform="matrix(12,0,0,12,369.3,687)" />
<use xlink:href="#f1_1z" transform="matrix(12,0,0,12,380.3,687)" />
<use xlink:href="#f1_2g" transform="matrix(12,0,0,12,388.7,687)" />
<use xlink:href="#f1_25" transform="matrix(12,0,0,12,394.9,687)" />
<use xlink:href="#f1_2b" transform="matrix(12,0,0,12,400.4,687)" />
<use xlink:href="#f1_2a" transform="matrix(12,0,0,12,410.3,687)" />
<use xlink:href="#f1_2f" transform="matrix(12,0,0,12,420.9,687)" />
<use xlink:href="#f1_i" transform="matrix(12,0,0,12,429,687)" />
<use xlink:href="#f3_3d" transform="matrix(12,0,0,12,55,710.1)" />
<use xlink:href="#f1_1k" transform="matrix(12,0,0,12,82.5,710.1)" />
<use xlink:href="#f1_24" transform="matrix(12,0,0,12,93.9,710.1)" />
<use xlink:href="#f1_21" transform="matrix(12,0,0,12,104.9,710.1)" />
<use xlink:href="#f1_2a" transform="matrix(12,0,0,12,113.7,710.1)" />
<use xlink:href="#f1_2g" transform="matrix(12,0,0,12,129.1,710.1)" />
<use xlink:href="#f1_24" transform="matrix(12,0,0,12,134.9,710.1)" />
<use xlink:href="#f1_21" transform="matrix(12,0,0,12,145.9,710.1)" />
<use xlink:href="#f1_1z" transform="matrix(12,0,0,12,159.1,710.1)" />
<use xlink:href="#f1_2b" transform="matrix(12,0,0,12,167.5,710.1)" />
<use xlink:href="#f1_29" transform="matrix(12,0,0,12,177.4,710.1)" />
<use xlink:href="#f1_2c" transform="matrix(12,0,0,12,193.6,710.1)" />
<use xlink:href="#f1_2b" transform="matrix(12,0,0,12,204.2,710.1)" />
<use xlink:href="#f1_2f" transform="matrix(12,0,0,12,213.7,710.1)" />
<use xlink:href="#f1_25" transform="matrix(12,0,0,12,221.8,710.1)" />
<use xlink:href="#f1_2g" transform="matrix(12,0,0,12,227.2,710.1)" />
<use xlink:href="#f1_25" transform="matrix(12,0,0,12,233.5,710.1)" />
<use xlink:href="#f1_2b" transform="matrix(12,0,0,12,239,710.1)" />
<use xlink:href="#f1_2a" transform="matrix(12,0,0,12,248.5,710.1)" />
<use xlink:href="#f1_2b" transform="matrix(12,0,0,12,263.9,710.1)" />
<use xlink:href="#f1_22" transform="matrix(12,0,0,12,273.8,710.1)" />
<use xlink:href="#f1_22" transform="matrix(12,0,0,12,284.1,710.1)" />
<use xlink:href="#f1_1x" transform="matrix(12,0,0,12,294.3,710.1)" />
<use xlink:href="#f1_2a" transform="matrix(12,0,0,12,303.5,710.1)" />
<use xlink:href="#f1_20" transform="matrix(12,0,0,12,314.5,710.1)" />
<use xlink:href="#f1_23" transform="matrix(12,0,0,12,329.5,710.1)" />
<use xlink:href="#f1_g" transform="matrix(12,0,0,12,338.6,710.1)" />
<use xlink:href="#f1_20" transform="matrix(12,0,0,12,347.8,710.1)" />
<use xlink:href="#f1_21" transform="matrix(12,0,0,12,358.4,710.1)" />
<use xlink:href="#f1_2a" transform="matrix(12,0,0,12,367.2,710.1)" />
<use xlink:href="#f1_2b" transform="matrix(12,0,0,12,378.2,710.1)" />
<use xlink:href="#f1_2g" transform="matrix(12,0,0,12,388.1,710.1)" />
<use xlink:href="#f1_21" transform="matrix(12,0,0,12,394.3,710.1)" />
<use xlink:href="#f1_20" transform="matrix(12,0,0,12,403.1,710.1)" />
<use xlink:href="#f1_1y" transform="matrix(12,0,0,12,418.2,710.1)" />
<use xlink:href="#f1_2l" transform="matrix(12,0,0,12,428.4,710.1)" />
</g>
<g fill="#C00000" >
<use xlink:href="#f5_23" transform="matrix(12,0,0,12,442.4,710.1)" />
</g>
<g clip-path="url(#c0_3)">
<g fill="#FF0000" >
<use xlink:href="#f6_am" transform="matrix(7.9,0,0,8.3,456.6,710.3)" />
</g>
</g>
<g fill="#C00000" >
<use xlink:href="#f5_22" transform="matrix(12,0,0,12,466.2,710.1)" />
</g>
<g fill="#231F20" >
<use xlink:href="#f1_g" transform="matrix(12,0,0,12,473.2,710.1)" />
<use xlink:href="#f1_25" transform="matrix(12,0,0,12,482.4,710.1)" />
<use xlink:href="#f1_2f" transform="matrix(12,0,0,12,487.8,710.1)" />
<use xlink:href="#f1_20" transform="matrix(12,0,0,12,500.3,710.1)" />
<use xlink:href="#f1_21" transform="matrix(12,0,0,12,510.9,710.1)" />
<use xlink:href="#f1_22" transform="matrix(12,0,0,12,519.7,710.1)" />
<use xlink:href="#f1_25" transform="matrix(12,0,0,12,525.6,710.1)" />
<use xlink:href="#f1_2a" transform="matrix(12,0,0,12,531,710.1)" />
<use xlink:href="#f1_21" transform="matrix(12,0,0,12,542,710.1)" />
<use xlink:href="#f1_20" transform="matrix(12,0,0,12,550.8,710.1)" />
<use xlink:href="#f1_1x" transform="matrix(12,0,0,12,565.9,710.1)" />
<use xlink:href="#f1_2f" transform="matrix(12,0,0,12,575,710.1)" />
<use xlink:href="#f1_2g" transform="matrix(12,0,0,12,587.5,710.1)" />
<use xlink:href="#f1_24" transform="matrix(12,0,0,12,593.7,710.1)" />
<use xlink:href="#f1_21" transform="matrix(12,0,0,12,604.7,710.1)" />
<use xlink:href="#f1_22" transform="matrix(12,0,0,12,617.9,710.1)" />
<use xlink:href="#f1_2h" transform="matrix(12,0,0,12,623.4,710.1)" />
<use xlink:href="#f1_2a" transform="matrix(12,0,0,12,634,710.1)" />
<use xlink:href="#f1_1z" transform="matrix(12,0,0,12,645,710.1)" />
<use xlink:href="#f1_2g" transform="matrix(12,0,0,12,653.4,710.1)" />
<use xlink:href="#f1_25" transform="matrix(12,0,0,12,659.6,710.1)" />
<use xlink:href="#f1_2b" transform="matrix(12,0,0,12,665.1,710.1)" />
<use xlink:href="#f1_2a" transform="matrix(12,0,0,12,674.6,710.1)" />
</g>
<g fill="#C00000" >
<use xlink:href="#f5_23" transform="matrix(12,0,0,12,690.3,710.1)" />
</g>
<g clip-path="url(#c1_3)">
<g fill="#FF0000" >
<use xlink:href="#f6_am" transform="matrix(7.9,0,0,8.3,704.5,710.3)" />
</g>
</g>
<g fill="#C00000" >
<use xlink:href="#f5_22" transform="matrix(12,0,0,12,714.2,710.1)" />
</g>
<g fill="#231F20" >
<use xlink:href="#f1_u" transform="matrix(12,0,0,12,721.1,710.1)" />
<use xlink:href="#f1_11" transform="matrix(12,0,0,12,731.4,710.1)" />
<use xlink:href="#f2_8r" transform="matrix(12,0,0,12,748.3,710.1)" />
<use xlink:href="#f1_13" transform="matrix(12,0,0,12,771,710.1)" />
<use xlink:href="#f1_23" transform="matrix(12,0,0,12,787.2,710.1)" />
<use xlink:href="#f1_25" transform="matrix(12,0,0,12,796.3,710.1)" />
<use xlink:href="#f1_2i" transform="matrix(12,0,0,12,801.8,710.1)" />
<use xlink:href="#f1_21" transform="matrix(12,0,0,12,810.9,710.1)" />
<use xlink:href="#f1_2a" transform="matrix(12,0,0,12,819.8,710.1)" />
<use xlink:href="#f1_1y" transform="matrix(12,0,0,12,835.2,710.1)" />
<use xlink:href="#f1_2l" transform="matrix(12,0,0,12,845.1,710.1)" />
</g>
<g fill="#C00000" >
<use xlink:href="#f5_23" transform="matrix(12,0,0,12,82.5,733.9)" />
</g>
<g clip-path="url(#c2_3)">
<g fill="#FF0000" >
<use xlink:href="#f6_am" transform="matrix(7.9,0,0,8.3,97,734.1)" />
</g>
</g>
<g fill="#C00000" >
<use xlink:href="#f5_22" transform="matrix(12,0,0,12,106.4,733.9)" />
<use xlink:href="#f5_c" transform="matrix(12,0,0,12,113.4,733.9)" />
<use xlink:href="#f5_2k" transform="matrix(12,0,0,12,121.4,733.9)" />
<use xlink:href="#f5_d" transform="matrix(12,0,0,12,132,733.9)" />
<use xlink:href="#f5_x" transform="matrix(12,0,0,12,144.9,733.9)" />
<use xlink:href="#f5_23" transform="matrix(12,0,0,12,162.5,733.9)" />
<use xlink:href="#f5_c" transform="matrix(12,0,0,12,179,733.9)" />
<use xlink:href="#f5_22" transform="matrix(12,0,0,12,187.1,733.9)" />
<use xlink:href="#f5_c" transform="matrix(12,0,0,12,194.4,733.9)" />
<use xlink:href="#f5_2k" transform="matrix(12,0,0,12,202.5,733.9)" />
<use xlink:href="#f5_d" transform="matrix(12,0,0,12,213.1,733.9)" />
<use xlink:href="#f5_d" transform="matrix(12,0,0,12,221.5,733.9)" />
<use xlink:href="#f5_g" transform="matrix(12,0,0,12,229.6,733.9)" />
</g>
<g fill="#C00000" stroke-width="41.411537170410156" stroke="#C00000" >
<use xlink:href="#f7_157" transform="matrix(12,0,-4,12,240.2,733.9)" />
</g>
<g fill="#C00000" >
<use xlink:href="#f5_2k" transform="matrix(12,0,0,12,256.8,733.9)" />
</g>
<g fill="#C00000" stroke-width="41.411537170410156" stroke="#C00000" >
<use xlink:href="#f7_15d" transform="matrix(12,0,-4,12,271.8,733.9)" />
</g>
<g fill="#C00000" >
<use xlink:href="#f5_11" transform="matrix(12,0,0,12,287.9,733.9)" />
<use xlink:href="#f5_i" transform="matrix(12,0,0,12,301.9,733.9)" />
</g>
<g fill="#231F20" >
<use xlink:href="#f3_3d" transform="matrix(12,0,0,12,55,932.7)" />
<use xlink:href="#f1_15" transform="matrix(12,0,0,12,82.5,932.7)" />
<use xlink:href="#f1_23" transform="matrix(12,0,0,12,94.6,932.7)" />
<use xlink:href="#f1_u" transform="matrix(12,0,0,12,103.8,932.7)" />
<use xlink:href="#f0_2b" transform="matrix(12,0,0,12,110,955.4)" />
<use xlink:href="#f1_1c" transform="matrix(12,0,0,12,137.5,955.4)" />
<use xlink:href="#f1_21" transform="matrix(12,0,0,12,148.5,955.4)" />
<use xlink:href="#f1_2g" transform="matrix(12,0,0,12,157.3,955.4)" />
<use xlink:href="#f1_22" transform="matrix(12,0,0,12,168,955.4)" />
<use xlink:href="#f1_u" transform="matrix(12,0,0,12,178.3,955.4)" />
<use xlink:href="#f1_2n" transform="matrix(12,0,0,12,188.5,955.4)" />
<use xlink:href="#f1_m" transform="matrix(12,0,0,12,196.5,955.4)" />
<use xlink:href="#f1_g" transform="matrix(12,0,0,12,206.8,955.4)" />
<use xlink:href="#f1_n" transform="matrix(12,0,0,12,216,955.4)" />
<use xlink:href="#f1_g" transform="matrix(12,0,0,12,226.2,955.4)" />
<use xlink:href="#f1_o" transform="matrix(12,0,0,12,235.4,955.4)" />
<use xlink:href="#f1_g" transform="matrix(12,0,0,12,245.6,955.4)" />
<use xlink:href="#f1_p" transform="matrix(12,0,0,12,255.2,955.4)" />
<use xlink:href="#f1_2p" transform="matrix(12,0,0,12,264.7,955.4)" />
<use xlink:href="#f2_8r" transform="matrix(12,0,0,12,277.3,955.4)" />
<use xlink:href="#f1_2n" transform="matrix(12,0,0,12,300,955.4)" />
<use xlink:href="#f1_n" transform="matrix(12,0,0,12,308.1,955.4)" />
<use xlink:href="#f1_g" transform="matrix(12,0,0,12,318.3,955.4)" />
<use xlink:href="#f1_o" transform="matrix(12,0,0,12,327.5,955.4)" />
<use xlink:href="#f1_g" transform="matrix(12,0,0,12,337.8,955.4)" />
<use xlink:href="#f1_p" transform="matrix(12,0,0,12,347,955.4)" />
<use xlink:href="#f1_g" transform="matrix(12,0,0,12,356.8,955.4)" />
<use xlink:href="#f1_t" transform="matrix(12,0,0,12,366,955.4)" />
<use xlink:href="#f1_2p" transform="matrix(12,0,0,12,376.3,955.4)" />
<use xlink:href="#f1_1x" transform="matrix(12,0,0,12,388.7,955.4)" />
<use xlink:href="#f1_2a" transform="matrix(12,0,0,12,397.9,955.4)" />
<use xlink:href="#f1_20" transform="matrix(12,0,0,12,408.8,955.4)" />
<use xlink:href="#f1_23" transform="matrix(12,0,0,12,423.9,955.4)" />
<use xlink:href="#f1_u" transform="matrix(12,0,0,12,437.4,955.4)" />
<use xlink:href="#f1_2n" transform="matrix(12,0,0,12,447.7,955.4)" />
<use xlink:href="#f1_n" transform="matrix(12,0,0,12,455.7,955.4)" />
<use xlink:href="#f1_g" transform="matrix(12,0,0,12,466,955.4)" />
<use xlink:href="#f1_o" transform="matrix(12,0,0,12,475.2,955.4)" />
<use xlink:href="#f1_g" transform="matrix(12,0,0,12,485.4,955.4)" />
<use xlink:href="#f1_p" transform="matrix(12,0,0,12,494.6,955.4)" />
<use xlink:href="#f1_g" transform="matrix(12,0,0,12,504.5,955.4)" />
<use xlink:href="#f1_t" transform="matrix(12,0,0,12,514,955.4)" />
<use xlink:href="#f1_2p" transform="matrix(12,0,0,12,524.2,955.4)" />
<use xlink:href="#f2_8r" transform="matrix(12,0,0,12,537,955.4)" />
<use xlink:href="#f1_2n" transform="matrix(12,0,0,12,559.7,955.4)" />
<use xlink:href="#f1_r" transform="matrix(12,0,0,12,567.8,955.4)" />
<use xlink:href="#f1_g" transform="matrix(12,0,0,12,577,955.4)" />
<use xlink:href="#f1_l" transform="matrix(12,0,0,12,586.1,955.4)" />
<use xlink:href="#f1_l" transform="matrix(12,0,0,12,593.8,955.4)" />
<use xlink:href="#f1_g" transform="matrix(12,0,0,12,601.9,955.4)" />
<use xlink:href="#f1_l" transform="matrix(12,0,0,12,611.1,955.4)" />
<use xlink:href="#f1_p" transform="matrix(12,0,0,12,619.1,955.4)" />
<use xlink:href="#f1_2p" transform="matrix(12,0,0,12,628.6,955.4)" />
<use xlink:href="#f1_1y" transform="matrix(12,0,0,12,641.1,955.4)" />
<use xlink:href="#f1_21" transform="matrix(12,0,0,12,651.4,955.4)" />
<use xlink:href="#f1_22" transform="matrix(12,0,0,12,664.6,955.4)" />
<use xlink:href="#f1_2h" transform="matrix(12,0,0,12,670.4,955.4)" />
<use xlink:href="#f1_2a" transform="matrix(12,0,0,12,681.4,955.4)" />
<use xlink:href="#f1_1z" transform="matrix(12,0,0,12,692.4,955.4)" />
<use xlink:href="#f1_2g" transform="matrix(12,0,0,12,700.8,955.4)" />
<use xlink:href="#f1_25" transform="matrix(12,0,0,12,706.7,955.4)" />
<use xlink:href="#f1_2b" transform="matrix(12,0,0,12,712.1,955.4)" />
<use xlink:href="#f1_2a" transform="matrix(12,0,0,12,722,955.4)" />
<use xlink:href="#f1_2f" transform="matrix(12,0,0,12,733,955.4)" />
<use xlink:href="#f0_2b" transform="matrix(12,0,0,12,110,977.8)" />
<use xlink:href="#f1_14" transform="matrix(12,0,0,12,137.5,977.8)" />
<use xlink:href="#f1_21" transform="matrix(12,0,0,12,151.1,977.8)" />
<use xlink:href="#f1_22" transform="matrix(12,0,0,12,159.9,977.8)" />
<use xlink:href="#f1_25" transform="matrix(12,0,0,12,165.8,977.8)" />
<use xlink:href="#f1_2a" transform="matrix(12,0,0,12,171.3,977.8)" />
<use xlink:href="#f1_21" transform="matrix(12,0,0,12,182.2,977.8)" />
<use xlink:href="#f1_20" transform="matrix(12,0,0,12,191,977.8)" />
<use xlink:href="#f1_1x" transform="matrix(12,0,0,12,206.1,977.8)" />
<use xlink:href="#f1_2f" transform="matrix(12,0,0,12,215.2,977.8)" />
<use xlink:href="#f1_22" transform="matrix(12,0,0,12,227.8,977.8)" />
<use xlink:href="#f1_c" transform="matrix(12,0,0,12,238.1,977.8)" />
<use xlink:href="#f1_m" transform="matrix(12,0,0,12,245,977.8)" />
<use xlink:href="#f1_d" transform="matrix(12,0,0,12,255.3,977.8)" />
<use xlink:href="#f1_x" transform="matrix(12,0,0,12,266.7,977.8)" />
<use xlink:href="#f1_n" transform="matrix(12,0,0,12,282.8,977.8)" />
<use xlink:href="#f1_g" transform="matrix(12,0,0,12,293,977.8)" />
<use xlink:href="#f1_22" transform="matrix(12,0,0,12,302.2,977.8)" />
<use xlink:href="#f1_c" transform="matrix(12,0,0,12,312.5,977.8)" />
<use xlink:href="#f1_n" transform="matrix(12,0,0,12,319.5,977.8)" />
<use xlink:href="#f1_d" transform="matrix(12,0,0,12,329.7,977.8)" />
<use xlink:href="#f1_x" transform="matrix(12,0,0,12,341.1,977.8)" />
<use xlink:href="#f1_o" transform="matrix(12,0,0,12,357.2,977.8)" />
<use xlink:href="#f1_g" transform="matrix(12,0,0,12,367.5,977.8)" />
<use xlink:href="#f1_22" transform="matrix(12,0,0,12,376.7,977.8)" />
<use xlink:href="#f1_c" transform="matrix(12,0,0,12,387,977.8)" />
<use xlink:href="#f1_o" transform="matrix(12,0,0,12,394,977.8)" />
<use xlink:href="#f1_d" transform="matrix(12,0,0,12,404.2,977.8)" />
<use xlink:href="#f1_x" transform="matrix(12,0,0,12,415.6,977.8)" />
<use xlink:href="#f1_22" transform="matrix(12,0,0,12,431.7,977.8)" />
<use xlink:href="#f1_c" transform="matrix(12,0,0,12,442,977.8)" />
<use xlink:href="#f1_p" transform="matrix(12,0,0,12,449,977.8)" />
<use xlink:href="#f1_d" transform="matrix(12,0,0,12,458.5,977.8)" />
<use xlink:href="#f1_x" transform="matrix(12,0,0,12,469.9,977.8)" />
<use xlink:href="#f1_p" transform="matrix(12,0,0,12,486.3,977.8)" />
<use xlink:href="#f1_1x" transform="matrix(12,0,0,12,500.3,977.8)" />
<use xlink:href="#f1_2a" transform="matrix(12,0,0,12,509.8,977.8)" />
<use xlink:href="#f1_20" transform="matrix(12,0,0,12,520.8,977.8)" />
<use xlink:href="#f1_23" transform="matrix(12,0,0,12,535.8,977.8)" />
<use xlink:href="#f1_c" transform="matrix(12,0,0,12,549.4,977.8)" />
<use xlink:href="#f1_n" transform="matrix(12,0,0,12,556.3,977.8)" />
<use xlink:href="#f1_d" transform="matrix(12,0,0,12,566.6,977.8)" />
<use xlink:href="#f1_x" transform="matrix(12,0,0,12,577.9,977.8)" />
<use xlink:href="#f1_23" transform="matrix(12,0,0,12,594.1,977.8)" />
<use xlink:href="#f1_c" transform="matrix(12,0,0,12,607.6,977.8)" />
<use xlink:href="#f1_o" transform="matrix(12,0,0,12,614.6,977.8)" />
<use xlink:href="#f1_d" transform="matrix(12,0,0,12,624.8,977.8)" />
<use xlink:href="#f1_x" transform="matrix(12,0,0,12,636.2,977.8)" />
<use xlink:href="#f1_r" transform="matrix(12,0,0,12,652.3,977.8)" />
<use xlink:href="#f1_1x" transform="matrix(12,0,0,12,665.9,977.8)" />
<use xlink:href="#f1_2a" transform="matrix(12,0,0,12,675,977.8)" />
<use xlink:href="#f1_20" transform="matrix(12,0,0,12,686,977.8)" />
<use xlink:href="#f1_23" transform="matrix(12,0,0,12,701,977.8)" />
<use xlink:href="#f1_c" transform="matrix(12,0,0,12,714.6,977.8)" />
<use xlink:href="#f1_p" transform="matrix(12,0,0,12,721.5,977.8)" />
<use xlink:href="#f1_d" transform="matrix(12,0,0,12,731.1,977.8)" />
<use xlink:href="#f1_x" transform="matrix(12,0,0,12,742.4,977.8)" />
<use xlink:href="#f1_23" transform="matrix(12,0,0,12,758.9,977.8)" />
<use xlink:href="#f1_c" transform="matrix(12,0,0,12,772.5,977.8)" />
<use xlink:href="#f1_t" transform="matrix(12,0,0,12,779.5,977.8)" />
<use xlink:href="#f1_d" transform="matrix(12,0,0,12,789.7,977.8)" />
<use xlink:href="#f1_x" transform="matrix(12,0,0,12,801.1,977.8)" />
<use xlink:href="#f1_l" transform="matrix(12,0,0,12,817.2,977.8)" />
<use xlink:href="#f1_l" transform="matrix(12,0,0,12,825.3,977.8)" />
<use xlink:href="#f1_i" transform="matrix(12,0,0,12,833,977.8)" />
<use xlink:href="#f0_2b" transform="matrix(12,0,0,12,110,999.8)" />
<use xlink:href="#f1_16" transform="matrix(12,0,0,12,137.5,999.8)" />
<use xlink:href="#f1_25" transform="matrix(12,0,0,12,148.5,999.8)" />
<use xlink:href="#f1_2a" transform="matrix(12,0,0,12,154,999.8)" />
<use xlink:href="#f1_20" transform="matrix(12,0,0,12,165,999.8)" />
<use xlink:href="#f1_23" transform="matrix(12,0,0,12,180,999.8)" />
</g>
<g clip-path="url(#c3_3)">
<g fill="#000000" >
<use xlink:href="#f6_am" transform="matrix(7.9,0,0,8.3,191.5,999.9)" />
</g>
</g>
<g fill="#231F20" >
<use xlink:href="#f1_22" transform="matrix(12,0,0,12,201,999.8)" />
<use xlink:href="#f1_i" transform="matrix(12,0,0,12,206.9,999.8)" />
<use xlink:href="#f0_2b" transform="matrix(12,0,0,12,110,1022.9)" />
<use xlink:href="#f1_1j" transform="matrix(12,0,0,12,137.5,1022.9)" />
<use xlink:href="#f1_2b" transform="matrix(12,0,0,12,147.8,1022.9)" />
<use xlink:href="#f1_28" transform="matrix(12,0,0,12,157.7,1022.9)" />
<use xlink:href="#f1_2h" transform="matrix(12,0,0,12,162.8,1022.9)" />
<use xlink:href="#f1_2g" transform="matrix(12,0,0,12,173.8,1022.9)" />
<use xlink:href="#f1_25" transform="matrix(12,0,0,12,180.1,1022.9)" />
<use xlink:href="#f1_2b" transform="matrix(12,0,0,12,185.5,1022.9)" />
<use xlink:href="#f1_2a" transform="matrix(12,0,0,12,195.1,1022.9)" />
<use xlink:href="#f8_3o" transform="matrix(12,0,0,12,165.1,1044.9)" />
<use xlink:href="#f1_23" transform="matrix(12,0,0,12,192.6,1044.9)" />
</g>
<g clip-path="url(#c4_3)">
<g fill="#000000" >
<use xlink:href="#f6_am" transform="matrix(7.9,0,0,8.3,204.4,1045)" />
</g>
</g>
<g fill="#231F20" >
<use xlink:href="#f1_22" transform="matrix(12,0,0,12,213.8,1044.9)" />
<use xlink:href="#f1_c" transform="matrix(12,0,0,12,219.7,1044.9)" />
<use xlink:href="#f1_m" transform="matrix(12,0,0,12,226.7,1044.9)" />
<use xlink:href="#f1_d" transform="matrix(12,0,0,12,236.9,1044.9)" />
<use xlink:href="#f1_x" transform="matrix(12,0,0,12,248.3,1044.9)" />
<use xlink:href="#f1_23" transform="matrix(12,0,0,12,264.4,1044.9)" />
<use xlink:href="#f1_c" transform="matrix(12,0,0,12,278,1044.9)" />
<use xlink:href="#f1_22" transform="matrix(12,0,0,12,284.9,1044.9)" />
<use xlink:href="#f1_c" transform="matrix(12,0,0,12,290.8,1044.9)" />
<use xlink:href="#f1_m" transform="matrix(12,0,0,12,297.8,1044.9)" />
<use xlink:href="#f1_d" transform="matrix(12,0,0,12,308,1044.9)" />
<use xlink:href="#f1_d" transform="matrix(12,0,0,12,315,1044.9)" />
<use xlink:href="#f1_x" transform="matrix(12,0,0,12,326.3,1044.9)" />
<use xlink:href="#f1_23" transform="matrix(12,0,0,12,342.5,1044.9)" />
<use xlink:href="#f1_c" transform="matrix(12,0,0,12,356,1044.9)" />
<use xlink:href="#f1_n" transform="matrix(12,0,0,12,363,1044.9)" />
<use xlink:href="#f1_d" transform="matrix(12,0,0,12,373.2,1044.9)" />
<use xlink:href="#f1_x" transform="matrix(12,0,0,12,384.6,1044.9)" />
<use xlink:href="#f1_r" transform="matrix(12,0,0,12,400.7,1044.9)" />
<use xlink:href="#f1_g" transform="matrix(12,0,0,12,409.9,1044.9)" />
<use xlink:href="#f8_3o" transform="matrix(12,0,0,12,165.1,1067.7)" />
<use xlink:href="#f1_23" transform="matrix(12,0,0,12,192.6,1067.7)" />
</g>
<g clip-path="url(#c5_3)">
<g fill="#000000" >
<use xlink:href="#f6_am" transform="matrix(7.9,0,0,8.3,204.4,1067.8)" />
</g>
</g>
<g fill="#231F20" >
<use xlink:href="#f1_22" transform="matrix(12,0,0,12,213.8,1067.7)" />
<use xlink:href="#f1_c" transform="matrix(12,0,0,12,224.1,1067.7)" />
<use xlink:href="#f1_n" transform="matrix(12,0,0,12,231.1,1067.7)" />
<use xlink:href="#f1_d" transform="matrix(12,0,0,12,241.3,1067.7)" />
<use xlink:href="#f1_x" transform="matrix(12,0,0,12,252.7,1067.7)" />
<use xlink:href="#f1_23" transform="matrix(12,0,0,12,268.8,1067.7)" />
<use xlink:href="#f1_c" transform="matrix(12,0,0,12,282.4,1067.7)" />
<use xlink:href="#f1_22" transform="matrix(12,0,0,12,289.3,1067.7)" />
<use xlink:href="#f1_c" transform="matrix(12,0,0,12,295.2,1067.7)" />
<use xlink:href="#f1_n" transform="matrix(12,0,0,12,302.1,1067.7)" />
<use xlink:href="#f1_d" transform="matrix(12,0,0,12,312.4,1067.7)" />
<use xlink:href="#f1_d" transform="matrix(12,0,0,12,319.3,1067.7)" />
<use xlink:href="#f1_x" transform="matrix(12,0,0,12,330.7,1067.7)" />
<use xlink:href="#f1_23" transform="matrix(12,0,0,12,346.8,1067.7)" />
<use xlink:href="#f1_c" transform="matrix(12,0,0,12,360.4,1067.7)" />
<use xlink:href="#f1_o" transform="matrix(12,0,0,12,367.3,1067.7)" />
<use xlink:href="#f1_d" transform="matrix(12,0,0,12,377.6,1067.7)" />
<use xlink:href="#f1_x" transform="matrix(12,0,0,12,388.9,1067.7)" />
<use xlink:href="#f1_r" transform="matrix(12,0,0,12,405.1,1067.7)" />
<use xlink:href="#f1_g" transform="matrix(12,0,0,12,414.3,1067.7)" />
<use xlink:href="#f8_3o" transform="matrix(12,0,0,12,165.1,1090.4)" />
<use xlink:href="#f1_23" transform="matrix(12,0,0,12,192.6,1090.4)" />
</g>
<g clip-path="url(#c6_3)">
<g fill="#000000" >
<use xlink:href="#f6_am" transform="matrix(7.9,0,0,8.3,204.4,1090.5)" />
</g>
</g>
<g fill="#231F20" >
<use xlink:href="#f1_22" transform="matrix(12,0,0,12,213.8,1090.4)" />
<use xlink:href="#f1_c" transform="matrix(12,0,0,12,224.1,1090.4)" />
<use xlink:href="#f1_o" transform="matrix(12,0,0,12,231.1,1090.4)" />
<use xlink:href="#f1_d" transform="matrix(12,0,0,12,241.3,1090.4)" />
<use xlink:href="#f1_x" transform="matrix(12,0,0,12,252.7,1090.4)" />
<use xlink:href="#f1_23" transform="matrix(12,0,0,12,268.8,1090.4)" />
<use xlink:href="#f1_c" transform="matrix(12,0,0,12,282.4,1090.4)" />
<use xlink:href="#f1_22" transform="matrix(12,0,0,12,289.3,1090.4)" />
<use xlink:href="#f1_c" transform="matrix(12,0,0,12,295.2,1090.4)" />
<use xlink:href="#f1_o" transform="matrix(12,0,0,12,302.1,1090.4)" />
<use xlink:href="#f1_d" transform="matrix(12,0,0,12,312.4,1090.4)" />
<use xlink:href="#f1_d" transform="matrix(12,0,0,12,319.4,1090.4)" />
<use xlink:href="#f1_x" transform="matrix(12,0,0,12,330.7,1090.4)" />
<use xlink:href="#f1_23" transform="matrix(12,0,0,12,347.2,1090.4)" />
<use xlink:href="#f1_c" transform="matrix(12,0,0,12,360.8,1090.4)" />
<use xlink:href="#f1_p" transform="matrix(12,0,0,12,367.7,1090.4)" />
<use xlink:href="#f1_d" transform="matrix(12,0,0,12,377.2,1090.4)" />
<use xlink:href="#f1_x" transform="matrix(12,0,0,12,388.6,1090.4)" />
<use xlink:href="#f1_l" transform="matrix(12,0,0,12,404.7,1090.4)" />
<use xlink:href="#f1_l" transform="matrix(12,0,0,12,412.8,1090.4)" />
<use xlink:href="#f1_1x" transform="matrix(12,0,0,12,424.9,1090.4)" />
<use xlink:href="#f1_2a" transform="matrix(12,0,0,12,434,1090.4)" />
<use xlink:href="#f1_20" transform="matrix(12,0,0,12,445,1090.4)" />
<use xlink:href="#f8_3o" transform="matrix(12,0,0,12,165.1,1113.5)" />
<use xlink:href="#f1_23" transform="matrix(12,0,0,12,192.6,1113.5)" />
</g>
<g clip-path="url(#c7_3)">
<g fill="#000000" >
<use xlink:href="#f6_am" transform="matrix(7.9,0,0,8.3,204.4,1113.6)" />
</g>
</g>
<g fill="#231F20" >
<use xlink:href="#f1_22" transform="matrix(12,0,0,12,213.8,1113.5)" />
<use xlink:href="#f1_c" transform="matrix(12,0,0,12,224.1,1113.5)" />
<use xlink:href="#f1_p" transform="matrix(12,0,0,12,231.1,1113.5)" />
<use xlink:href="#f1_d" transform="matrix(12,0,0,12,240.6,1113.5)" />
<use xlink:href="#f1_x" transform="matrix(12,0,0,12,252,1113.5)" />
<use xlink:href="#f1_23" transform="matrix(12,0,0,12,268.1,1113.5)" />
<use xlink:href="#f1_c" transform="matrix(12,0,0,12,281.7,1113.5)" />
<use xlink:href="#f1_p" transform="matrix(12,0,0,12,289,1113.5)" />
<use xlink:href="#f1_d" transform="matrix(12,0,0,12,298.5,1113.5)" />
<use xlink:href="#f1_x" transform="matrix(12,0,0,12,309.9,1113.5)" />
<use xlink:href="#f1_l" transform="matrix(12,0,0,12,326,1113.5)" />
<use xlink:href="#f1_l" transform="matrix(12,0,0,12,334,1113.5)" />
<use xlink:href="#f3_3d" transform="matrix(12,0,0,12,55,1159.7)" />
<use xlink:href="#f1_19" transform="matrix(12,0,0,12,82.5,1159.7)" />
<use xlink:href="#f1_2g" transform="matrix(12,0,0,12,89.5,1159.7)" />
<use xlink:href="#f1_1z" transform="matrix(12,0,0,12,101.2,1159.7)" />
<use xlink:href="#f1_1x" transform="matrix(12,0,0,12,109.6,1159.7)" />
<use xlink:href="#f1_2a" transform="matrix(12,0,0,12,118.8,1159.7)" />
<use xlink:href="#f1_1y" transform="matrix(12,0,0,12,135.3,1159.7)" />
<use xlink:href="#f1_21" transform="matrix(12,0,0,12,145.5,1159.7)" />
<use xlink:href="#f1_2i" transform="matrix(12,0,0,12,159.8,1159.7)" />
<use xlink:href="#f1_21" transform="matrix(12,0,0,12,168.9,1159.7)" />
<use xlink:href="#f1_2e" transform="matrix(12,0,0,12,177.8,1159.7)" />
<use xlink:href="#f1_25" transform="matrix(12,0,0,12,185.1,1159.7)" />
<use xlink:href="#f1_22" transform="matrix(12,0,0,12,190.6,1159.7)" />
<use xlink:href="#f1_25" transform="matrix(12,0,0,12,196.5,1159.7)" />
<use xlink:href="#f1_21" transform="matrix(12,0,0,12,201.9,1159.7)" />
<use xlink:href="#f1_20" transform="matrix(12,0,0,12,210.7,1159.7)" />
<use xlink:href="#f1_25" transform="matrix(12,0,0,12,226.8,1159.7)" />
<use xlink:href="#f1_2a" transform="matrix(12,0,0,12,232.3,1159.7)" />
<use xlink:href="#f1_23" transform="matrix(12,0,0,12,248.8,1159.7)" />
<use xlink:href="#f1_21" transform="matrix(12,0,0,12,257.9,1159.7)" />
<use xlink:href="#f1_2a" transform="matrix(12,0,0,12,266.7,1159.7)" />
<use xlink:href="#f1_21" transform="matrix(12,0,0,12,277.7,1159.7)" />
<use xlink:href="#f1_2e" transform="matrix(12,0,0,12,286.5,1159.7)" />
<use xlink:href="#f1_1x" transform="matrix(12,0,0,12,293.9,1159.7)" />
<use xlink:href="#f1_28" transform="matrix(12,0,0,12,303.4,1159.7)" />
<use xlink:href="#f1_2g" transform="matrix(12,0,0,12,314,1159.7)" />
<use xlink:href="#f1_24" transform="matrix(12,0,0,12,320.2,1159.7)" />
<use xlink:href="#f1_1x" transform="matrix(12,0,0,12,331.2,1159.7)" />
<use xlink:href="#f1_2g" transform="matrix(12,0,0,12,340.4,1159.7)" />
<use xlink:href="#f1_23" transform="matrix(12,0,0,12,352.1,1159.7)" />
<use xlink:href="#f1_2b" transform="matrix(12,0,0,12,361.3,1159.7)" />
<use xlink:href="#f1_22" transform="matrix(12,0,0,12,371.5,1159.7)" />
<use xlink:href="#f1_25" transform="matrix(12,0,0,12,382.9,1159.7)" />
<use xlink:href="#f1_2f" transform="matrix(12,0,0,12,388.3,1159.7)" />
<use xlink:href="#f1_2b" transform="matrix(12,0,0,12,401.9,1159.7)" />
<use xlink:href="#f1_2a" transform="matrix(12,0,0,12,411.7,1159.7)" />
<use xlink:href="#f1_21" transform="matrix(12,0,0,12,422.7,1159.7)" />
<use xlink:href="#f1_h" transform="matrix(12,0,0,12,432.1,1159.7)" />
<use xlink:href="#f1_2b" transform="matrix(12,0,0,12,439.1,1159.7)" />
<use xlink:href="#f1_2a" transform="matrix(12,0,0,12,449,1159.7)" />
<use xlink:href="#f1_21" transform="matrix(12,0,0,12,460,1159.7)" />
<use xlink:href="#f1_25" transform="matrix(12,0,0,12,474.2,1159.7)" />
<use xlink:href="#f1_29" transform="matrix(12,0,0,12,479.7,1159.7)" />
<use xlink:href="#f1_2c" transform="matrix(12,0,0,12,495.9,1159.7)" />
<use xlink:href="#f1_28" transform="matrix(12,0,0,12,506.5,1159.7)" />
<use xlink:href="#f1_25" transform="matrix(12,0,0,12,511.6,1159.7)" />
<use xlink:href="#f1_21" transform="matrix(12,0,0,12,517.1,1159.7)" />
<use xlink:href="#f1_2f" transform="matrix(12,0,0,12,525.9,1159.7)" />
<use xlink:href="#f1_2g" transform="matrix(12,0,0,12,539.4,1159.7)" />
<use xlink:href="#f1_24" transform="matrix(12,0,0,12,545.3,1159.7)" />
<use xlink:href="#f1_1x" transform="matrix(12,0,0,12,556.3,1159.7)" />
<use xlink:href="#f1_2g" transform="matrix(12,0,0,12,565.4,1159.7)" />
<use xlink:href="#f1_22" transform="matrix(12,0,0,12,577.2,1159.7)" />
<use xlink:href="#f1_25" transform="matrix(12,0,0,12,588.5,1159.7)" />
<use xlink:href="#f1_2f" transform="matrix(12,0,0,12,594,1159.7)" />
<use xlink:href="#f1_2b" transform="matrix(12,0,0,12,607.5,1159.7)" />
<use xlink:href="#f1_2a" transform="matrix(12,0,0,12,617.4,1159.7)" />
<use xlink:href="#f1_21" transform="matrix(12,0,0,12,628.4,1159.7)" />
<use xlink:href="#f1_h" transform="matrix(12,0,0,12,637.5,1159.7)" />
<use xlink:href="#f1_2b" transform="matrix(12,0,0,12,644.5,1159.7)" />
<use xlink:href="#f1_2a" transform="matrix(12,0,0,12,654.4,1159.7)" />
<use xlink:href="#f1_21" transform="matrix(12,0,0,12,665.4,1159.7)" />
<use xlink:href="#f1_i" transform="matrix(12,0,0,12,674.2,1159.7)" />
<use xlink:href="#f1_1j" transform="matrix(12,0,0,12,684.4,1159.7)" />
<use xlink:href="#f1_25" transform="matrix(12,0,0,12,694.7,1159.7)" />
<use xlink:href="#f1_29" transform="matrix(12,0,0,12,700.2,1159.7)" />
<use xlink:href="#f1_25" transform="matrix(12,0,0,12,716.3,1159.7)" />
<use xlink:href="#f1_28" transform="matrix(12,0,0,12,721.8,1159.7)" />
<use xlink:href="#f1_1x" transform="matrix(12,0,0,12,726.9,1159.7)" />
<use xlink:href="#f1_2e" transform="matrix(12,0,0,12,736.1,1159.7)" />
<use xlink:href="#f1_28" transform="matrix(12,0,0,12,743.4,1159.7)" />
<use xlink:href="#f1_2l" transform="matrix(12,0,0,12,748.6,1159.7)" />
<use xlink:href="#f1_g" transform="matrix(12,0,0,12,757.7,1159.7)" />
<use xlink:href="#f1_23" transform="matrix(12,0,0,12,767.9,1159.7)" />
<use xlink:href="#f1_2b" transform="matrix(12,0,0,12,777.1,1159.7)" />
<use xlink:href="#f1_22" transform="matrix(12,0,0,12,787,1159.7)" />
<use xlink:href="#f1_25" transform="matrix(12,0,0,12,798.4,1159.7)" />
<use xlink:href="#f1_2f" transform="matrix(12,0,0,12,803.8,1159.7)" />
<use xlink:href="#f1_2b" transform="matrix(12,0,0,12,817.7,1159.7)" />
<use xlink:href="#f1_2a" transform="matrix(12,0,0,12,827.6,1159.7)" />
<use xlink:href="#f1_2g" transform="matrix(12,0,0,12,838.6,1159.7)" />
<use xlink:href="#f1_2b" transform="matrix(12,0,0,12,844.9,1159.7)" />
<use xlink:href="#f1_25" transform="matrix(12,0,0,12,82.5,1182.1)" />
<use xlink:href="#f1_29" transform="matrix(12,0,0,12,88,1182.1)" />
<use xlink:href="#f1_2c" transform="matrix(12,0,0,12,104.2,1182.1)" />
<use xlink:href="#f1_28" transform="matrix(12,0,0,12,114.8,1182.1)" />
<use xlink:href="#f1_25" transform="matrix(12,0,0,12,119.9,1182.1)" />
<use xlink:href="#f1_21" transform="matrix(12,0,0,12,125.4,1182.1)" />
<use xlink:href="#f1_2f" transform="matrix(12,0,0,12,134.2,1182.1)" />
<use xlink:href="#f1_2g" transform="matrix(12,0,0,12,146.6,1182.1)" />
<use xlink:href="#f1_24" transform="matrix(12,0,0,12,152.5,1182.1)" />
<use xlink:href="#f1_1x" transform="matrix(12,0,0,12,163.5,1182.1)" />
<use xlink:href="#f1_2g" transform="matrix(12,0,0,12,172.6,1182.1)" />
<use xlink:href="#f1_23" transform="matrix(12,0,0,12,183.3,1182.1)" />
<use xlink:href="#f1_25" transform="matrix(12,0,0,12,196.9,1182.1)" />
<use xlink:href="#f1_2f" transform="matrix(12,0,0,12,202.3,1182.1)" />
<use xlink:href="#f1_2b" transform="matrix(12,0,0,12,214.8,1182.1)" />
<use xlink:href="#f1_2a" transform="matrix(12,0,0,12,224.7,1182.1)" />
<use xlink:href="#f1_2g" transform="matrix(12,0,0,12,235.7,1182.1)" />
<use xlink:href="#f1_2b" transform="matrix(12,0,0,12,241.9,1182.1)" />
<use xlink:href="#f1_i" transform="matrix(12,0,0,12,251.8,1182.1)" />
</g>
<image preserveAspectRatio="none" x="138" y="127" width="602" height="198" xlink:href="img/1.png" />
<image preserveAspectRatio="none" x="83" y="395" width="302" height="182" xlink:href="img/2.png" />
<image preserveAspectRatio="none" x="102" y="751" width="706" height="149" xlink:href="img/3.png" />
<path fill-rule="evenodd" d="M36.7,37.4h.7v-.7h-.7v.7Z" class="g0_3" />
<path fill-rule="evenodd" d="M36.7,37.4h.7v-.7h-.7v.7Z" class="g0_3" />
<path fill-rule="evenodd" d="M37.4,37.4H872.3v-.7H37.4v.7Z" class="g0_3" />
<path fill-rule="evenodd" d="M872.3,37.4h.7v-.7h-.7v.7Z" class="g0_3" />
<path fill-rule="evenodd" d="M872.3,37.4h.7v-.7h-.7v.7Z" class="g0_3" />
<path fill-rule="evenodd" d="M36.7,1249.2h.7V37.4h-.7V1249.2Z" class="g0_3" />
<path fill-rule="evenodd" d="M872.3,1249.2h.7V37.4h-.7V1249.2Z" class="g0_3" />
<path fill-rule="evenodd" d="M36.7,1249.9h.7v-.7h-.7v.7Z" class="g0_3" />
<path fill-rule="evenodd" d="M36.7,1249.9h.7v-.7h-.7v.7Z" class="g0_3" />
<path fill-rule="evenodd" d="M37.4,1249.9H872.3v-.7H37.4v.7Z" class="g0_3" />
<path fill-rule="evenodd" d="M872.3,1249.9h.7v-.7h-.7v.7Z" class="g0_3" />
<path fill-rule="evenodd" d="M872.3,1249.9h.7v-.7h-.7v.7Z" class="g0_3" />
<defs>
<path d="M459,38c0,0,119,0,203,83c0,0,84,84,84,201c0,0,0,118,-84,201c0,0,-84,83,-203,83c0,0,-120,0,-204,-83c0,0,-84,-83,-84,-201c0,0,0,-116,84,-200c0,0,84,-84,204,-84Zm0,-61c0,0,-146,0,-248,100c0,0,-102,102,-102,245c0,0,0,143,102,245c0,0,102,102,248,102c0,0,145,0,247,-102c0,0,103,-101,103,-245c0,0,0,-143,-103,-245C706,77,604,-23,459,-23Z" 
id="f0_2b"
transform="scale(0.001,-0.001)" />

<path d="M55,0V49c0,0,17,1,35,3c0,0,19,1,32,6c0,0,21,7,31,23c0,0,10,17,10,44V661H18v71H163v47c0,0,0,168,87,272c0,0,87,104,218,104c0,0,66,0,100,-26c0,0,33,-26,33,-64c0,0,0,-33,-18,-56c0,0,-17,-23,-54,-23c0,0,-23,0,-41,9c0,0,-17,10,-32,26c0,0,-15,17,-28,38c0,0,-12,21,-21,33c0,0,-50,-2,-78,-69c0,0,-27,-68,-27,-215V732H492V661H302V132c0,0,0,-26,10,-42c0,0,10,-16,32,-25c0,0,18,-6,48,-11c0,0,29,-4,51,-5V0Z" 
id="f1_22"
transform="scale(0.001,-0.001)" />

<path d="M239,-14c0,0,-42,0,-72,29c0,0,-30,29,-30,71c0,0,0,42,30,72c0,0,30,31,72,31c0,0,42,0,72,-31c0,0,30,-30,30,-72c0,0,0,-42,-30,-71c0,0,-30,-29,-72,-29Zm0,549c0,0,-42,0,-72,30c0,0,-30,29,-30,71c0,0,0,42,30,72c0,0,30,30,72,30c0,0,43,0,72,-30c0,0,30,-30,30,-72c0,0,0,-42,-30,-71c0,0,-30,-30,-72,-30Z" 
id="f1_u"
transform="scale(0.001,-0.001)" />

<path d="M10,0V53c0,0,19,1,49,5c0,0,31,5,50,14c0,0,39,21,62,45c0,0,24,25,48,57c0,0,47,66,122,164c0,0,74,98,132,179c0,0,-44,63,-111,161c0,0,-67,97,-143,209c0,0,-32,47,-50,66c0,0,-19,20,-49,34c0,0,-18,8,-49,13c0,0,-32,5,-50,6v53H510v-53c0,0,-43,-1,-90,-11c0,0,-46,-9,-46,-28c0,0,0,-15,18,-50c0,0,19,-36,44,-76c0,0,27,-42,59,-92c0,0,32,-51,78,-118c0,0,84,115,145,206c0,0,62,92,62,120c0,0,0,24,-29,35c0,0,-28,11,-94,14v53h395v-53c0,0,-19,-1,-49,-5c0,0,-30,-5,-50,-14c0,0,-39,-19,-58,-41c0,0,-19,-21,-51,-62c0,0,-60,-77,-110,-145c0,0,-50,-67,-121,-165c0,0,59,-85,133,-193c0,0,73,-108,141,-207c0,0,23,-33,53,-63c0,0,29,-31,48,-42c0,0,18,-10,48,-13c0,0,30,-2,51,-3V0H592V53c0,0,61,1,98,11c0,0,38,10,38,31c0,0,0,12,-17,47c0,0,-18,35,-44,78c0,0,-30,48,-71,112c0,0,-41,64,-81,123c0,0,-66,-86,-149,-208c0,0,-83,-122,-83,-143c0,0,0,-25,22,-37c0,0,23,-11,100,-14V0Z" 
id="f1_1o"
transform="scale(0.001,-0.001)" />

<path d="M1102,116c0,0,70,150,148,231H59v75H1250c0,0,-57,73,-80,108c0,0,-22,35,-66,123h57c0,0,99,-108,171,-164c0,0,72,-57,137,-84V371c0,0,-74,-36,-144,-91c0,0,-69,-56,-165,-164Z" 
id="f2_8r"
transform="scale(0.001,-0.001)" />

<path d="M217,0V53c0,0,21,1,63,5c0,0,42,5,58,11c0,0,27,11,37,31c0,0,10,19,10,48V405c0,0,0,12,-14,44c0,0,-15,32,-35,70c0,0,-45,87,-99,188c0,0,-55,101,-95,172c0,0,-25,43,-44,64c0,0,-19,22,-43,39c0,0,-18,11,-43,17c0,0,-24,6,-44,7v53H418v-53c0,0,-76,-1,-107,-10c0,0,-32,-9,-32,-26c0,0,0,-4,5,-16c0,0,4,-11,13,-28c0,0,9,-19,23,-44c0,0,13,-25,25,-48c0,0,35,-67,71,-133c0,0,37,-66,96,-172c0,0,117,189,179,295c0,0,62,105,62,126c0,0,0,17,-13,28c0,0,-12,10,-33,16c0,0,-22,6,-47,8c0,0,-26,2,-47,4v53H981v-53c0,0,-13,-1,-41,-10c0,0,-27,-9,-39,-18c0,0,-29,-18,-40,-28c0,0,-10,-10,-40,-51c0,0,-58,-82,-108,-166c0,0,-49,-84,-123,-214c0,0,-27,-48,-36,-77c0,0,-9,-29,-9,-85V155c0,0,0,-27,10,-47c0,0,11,-19,37,-31c0,0,16,-6,56,-15c0,0,40,-8,65,-9V0Z" 
id="f1_1p"
transform="scale(0.001,-0.001)" />

<path d="M55,0V49c0,0,17,1,35,3c0,0,19,1,32,6c0,0,21,7,31,23c0,0,10,17,10,44V579c0,0,0,24,-11,43c0,0,-10,20,-30,34c0,0,-14,8,-41,15c0,0,-26,6,-49,8v48l260,17l10,-10V134c0,0,0,-26,10,-43c0,0,10,-18,32,-26c0,0,16,-6,32,-11c0,0,15,-4,35,-5V0ZM220,928c0,0,-38,0,-66,30c0,0,-28,30,-28,69c0,0,0,41,28,72c0,0,28,30,66,30c0,0,42,0,70,-28c0,0,27,-29,27,-67c0,0,0,-43,-28,-74c0,0,-28,-32,-69,-32Z" 
id="f1_25"
transform="scale(0.001,-0.001)" />

<path d="M328,-19c0,0,-64,0,-118,23c0,0,-54,23,-77,43L118,-1H63L55,254h52c0,0,6,-29,25,-68c0,0,19,-39,47,-71c0,0,29,-33,69,-55c0,0,41,-23,91,-23c0,0,72,0,110,33c0,0,39,32,39,93c0,0,0,32,-12,54c0,0,-12,23,-36,40c0,0,-25,18,-61,31c0,0,-35,14,-79,28c0,0,-35,10,-78,28c0,0,-43,19,-73,43c0,0,-33,26,-54,64c0,0,-21,39,-21,90c0,0,0,90,67,153c0,0,67,63,180,63c0,0,43,0,88,-11c0,0,45,-12,74,-27l17,38h53L564,520H512c0,0,-15,80,-67,130c0,0,-51,50,-126,50c0,0,-61,0,-95,-31c0,0,-35,-31,-35,-74c0,0,0,-34,11,-56c0,0,12,-23,35,-38c0,0,22,-15,56,-28c0,0,34,-13,84,-30c0,0,49,-15,92,-36c0,0,44,-21,72,-47c0,0,31,-26,47,-62c0,0,17,-35,17,-85c0,0,0,-103,-77,-168c0,0,-76,-64,-198,-64Z" 
id="f1_2f"
transform="scale(0.001,-0.001)" />

<path d="M414,34c0,0,94,0,149,91c0,0,54,90,54,249c0,0,0,56,-11,118c0,0,-11,63,-34,106c0,0,-24,46,-63,74c0,0,-38,28,-95,28c0,0,-57,0,-98,-28c0,0,-41,-29,-66,-78c0,0,-24,-45,-34,-104c0,0,-10,-58,-10,-112c0,0,0,-72,12,-133c0,0,12,-61,37,-108c0,0,25,-48,64,-76c0,0,39,-27,95,-27Zm-9,-55c0,0,-71,0,-134,25c0,0,-64,27,-113,77c0,0,-49,50,-77,122c0,0,-29,72,-29,162c0,0,0,172,100,282c0,0,101,110,264,110c0,0,155,0,255,-104c0,0,101,-104,101,-278c0,0,0,-77,-25,-152c0,0,-25,-75,-70,-128C677,95,625,36,557,7c0,0,-68,-28,-152,-28Z" 
id="f1_2b"
transform="scale(0.001,-0.001)" />

<path d="M54,0V49c0,0,17,1,35,3c0,0,19,1,32,6c0,0,21,7,31,23c0,0,10,17,10,44V579c0,0,0,25,-11,46c0,0,-10,22,-30,35c0,0,-14,9,-33,13c0,0,-20,4,-42,6v48l245,17l10,-10V630h4c0,0,18,18,45,43c0,0,26,25,50,41c0,0,28,18,66,30c0,0,38,12,86,12c0,0,106,0,157,-66c0,0,51,-66,51,-176V131c0,0,0,-26,9,-42c0,0,9,-16,30,-25c0,0,18,-8,31,-11c0,0,13,-3,36,-4V0H508V49c0,0,17,1,37,3c0,0,21,1,34,6c0,0,21,7,31,23c0,0,10,17,10,44V503c0,0,0,79,-37,121c0,0,-37,43,-90,43c0,0,-40,0,-73,-12c0,0,-33,-13,-58,-31c0,0,-25,-17,-40,-37c0,0,-14,-19,-21,-31V132c0,0,0,-25,11,-41c0,0,10,-17,31,-26c0,0,16,-7,34,-11c0,0,18,-4,38,-5V0Z" 
id="f1_2a"
transform="scale(0.001,-0.001)" />

<path d="M311,-15c0,0,-93,0,-131,46c0,0,-37,47,-37,132V661H10v71H146V961H281V732H493V661H283V250c0,0,0,-47,3,-78c0,0,3,-31,16,-54c0,0,12,-21,36,-32c0,0,24,-12,64,-12c0,0,19,0,55,4c0,0,36,3,51,8V32c0,0,-48,-20,-91,-33c0,0,-44,-14,-106,-14Z" 
id="f1_2g"
transform="scale(0.001,-0.001)" />

<path d="M324,63c0,0,54,0,94,25c0,0,40,26,68,61l5,259c0,0,-64,-19,-112,-37c0,0,-48,-18,-89,-45c0,0,-37,-25,-59,-60c0,0,-22,-35,-22,-83c0,0,0,-62,33,-91c0,0,32,-29,82,-29ZM249,-18c0,0,-83,0,-136,50c0,0,-53,51,-53,133c0,0,0,43,12,76c0,0,12,34,35,61c0,0,19,22,50,40c0,0,30,17,57,28c0,0,34,12,137,47c0,0,102,34,138,53v74c0,0,0,10,-4,37c0,0,-4,28,-17,52c0,0,-15,28,-43,49c0,0,-27,20,-77,20c0,0,-34,0,-64,-11c0,0,-29,-12,-41,-25c0,0,0,-15,7,-44c0,0,7,-29,7,-53c0,0,0,-26,-23,-48c0,0,-24,-21,-66,-21c0,0,-37,0,-55,26c0,0,-17,27,-17,59c0,0,0,35,24,66c0,0,24,31,63,56c0,0,34,21,81,35c0,0,48,15,94,15c0,0,62,0,109,-9c0,0,46,-8,85,-37c0,0,38,-27,57,-75c0,0,20,-47,20,-122c0,0,0,-106,-2,-189c0,0,-2,-82,-2,-180c0,0,0,-29,10,-46c0,0,10,-17,31,-29c0,0,11,-7,35,-8c0,0,24,0,49,0V14C750,14,715,1,689,-6c0,0,-27,-8,-60,-8c0,0,-58,0,-93,27c0,0,-34,27,-44,79h-5C487,92,439,38,383,10c0,0,-55,-28,-134,-28Z" 
id="f1_1x"
transform="scale(0.001,-0.001)" />

<path d="M425,60c0,0,60,0,99,26c0,0,39,26,66,57V573c0,0,-6,20,-20,42c0,0,-13,22,-33,41c0,0,-22,19,-51,31c0,0,-29,12,-68,12c0,0,-45,0,-82,-23c0,0,-38,-23,-67,-66c0,0,-28,-42,-44,-107c0,0,-16,-64,-16,-142c0,0,0,-63,12,-114c0,0,12,-51,40,-95c0,0,27,-42,67,-67c0,0,41,-25,97,-25ZM372,-20c0,0,-63,0,-121,27c0,0,-59,28,-102,79c0,0,-44,52,-69,124c0,0,-26,72,-26,159c0,0,0,80,27,152c0,0,28,71,76,125c0,0,46,50,112,80c0,0,66,30,134,30c0,0,52,0,101,-13c0,0,50,-13,86,-33V966c0,0,0,31,-11,57c0,0,-10,26,-29,39c0,0,-21,15,-56,21c0,0,-35,6,-76,9v46l300,17l12,-11V152c0,0,0,-26,10,-44c0,0,10,-19,29,-31c0,0,14,-9,41,-11c0,0,27,-3,50,-3V14L603,-2L591,8V76l-6,2C585,78,547,35,490,7c0,0,-57,-27,-118,-27Z" 
id="f1_20"
transform="scale(0.001,-0.001)" />

<path d="M39,0V49c0,0,17,1,37,3c0,0,19,2,32,6c0,0,21,7,31,23c0,0,11,17,11,44V978c0,0,0,26,-12,50c0,0,-12,23,-30,37c0,0,-14,9,-50,16c0,0,-35,8,-57,9v48l277,17l10,-11V134c0,0,0,-26,10,-43c0,0,10,-17,31,-26c0,0,17,-7,33,-11c0,0,16,-4,36,-5V0Z" 
id="f1_28"
transform="scale(0.001,-0.001)" />

<path d="M123,-330c0,0,-59,0,-92,27c0,0,-32,28,-32,63c0,0,0,38,20,61c0,0,20,24,51,24c0,0,23,0,41,-9c0,0,17,-9,30,-23c0,0,11,-11,24,-31c0,0,13,-19,20,-31c0,0,37,20,89,105c0,0,52,86,75,149c0,0,-71,176,-128,316c0,0,-57,139,-120,288c0,0,-14,34,-48,53c0,0,-33,19,-66,24v49H322V683c0,0,-22,0,-54,-9c0,0,-31,-8,-31,-20c0,0,0,-4,3,-15c0,0,4,-10,8,-21c0,0,28,-74,87,-212c0,0,58,-139,90,-222c0,0,33,80,70,165c0,0,36,85,80,200c0,0,6,15,15,39c0,0,10,25,10,43c0,0,0,20,-34,36c0,0,-34,17,-65,21v47H774V689c0,0,-22,-3,-59,-25c0,0,-36,-22,-54,-63c0,0,-89,-205,-158,-375C503,226,434,57,399,-22c0,0,-47,-105,-84,-163c0,0,-37,-59,-72,-92c0,0,-35,-32,-63,-43c0,0,-28,-10,-57,-10Z" 
id="f1_2l"
transform="scale(0.001,-0.001)" />

<path d="M472,544c0,0,103,0,171,66c0,0,69,65,69,179c0,0,0,96,-55,152c0,0,-55,56,-156,56H374V544ZM73,0V53c0,0,18,1,52,5c0,0,34,4,48,10c0,0,22,9,32,28c0,0,10,19,10,48V910c0,0,0,26,-7,46c0,0,-8,20,-35,31c0,0,-19,6,-49,12c0,0,-30,6,-51,7v53H562c0,0,67,0,126,-14c0,0,59,-14,106,-44c0,0,46,-30,74,-78c0,0,28,-49,28,-117c0,0,0,-61,-19,-108c0,0,-19,-47,-55,-81c0,0,-34,-32,-81,-56c0,0,-47,-23,-103,-40c0,0,78,-104,130,-174c0,0,52,-71,127,-173c0,0,33,-44,59,-66c0,0,27,-21,53,-34c0,0,19,-10,48,-15c0,0,30,-5,49,-6V0H818c0,0,-94,148,-171,256c0,0,-76,108,-165,223H374V144c0,0,0,-26,9,-46c0,0,8,-20,35,-30c0,0,13,-6,47,-10c0,0,33,-4,56,-5V0Z" 
id="f1_1i"
transform="scale(0.001,-0.001)" />

<path d="M390,-274c0,0,110,0,174,42c0,0,63,43,63,128c0,0,0,42,-20,69c0,0,-19,27,-59,35c0,0,-21,3,-86,7c0,0,-65,4,-151,4c0,0,-81,-15,-115,-52c0,0,-34,-37,-34,-95c0,0,0,-26,12,-50c0,0,11,-24,38,-44c0,0,27,-19,71,-31c0,0,44,-13,107,-13ZM349,330c0,0,64,0,99,51c0,0,35,52,35,132c0,0,0,87,-35,139c0,0,-36,52,-100,52c0,0,-35,0,-61,-15c0,0,-25,-14,-40,-41c0,0,-15,-25,-22,-59c0,0,-6,-35,-6,-72c0,0,0,-83,36,-135c0,0,37,-52,94,-52Zm15,-660c0,0,-167,0,-250,48c0,0,-83,49,-83,143c0,0,0,76,60,120c0,0,60,43,152,47V38c0,0,-22,7,-46,17c0,0,-24,10,-41,24c0,0,-20,15,-32,37c0,0,-12,21,-12,52c0,0,0,40,28,73c0,0,28,33,85,57v11c0,0,-72,34,-111,86c0,0,-40,53,-40,123c0,0,0,104,78,172c0,0,78,67,200,67c0,0,34,0,67,-7c0,0,33,-6,68,-17H743V662H570v-5c0,0,28,-32,41,-71c0,0,14,-39,14,-77c0,0,0,-97,-79,-164c0,0,-79,-67,-183,-67H272c0,0,-17,-6,-35,-22c0,0,-19,-16,-19,-43c0,0,0,-27,16,-42c0,0,15,-14,38,-20c0,0,21,-5,50,-7c0,0,29,-1,60,-2c0,0,32,-1,90,-5c0,0,57,-3,81,-4c0,0,34,-2,69,-17c0,0,34,-14,63,-41c0,0,30,-28,47,-64c0,0,17,-34,17,-87c0,0,0,-53,-23,-100c0,0,-23,-46,-70,-81c0,0,-50,-35,-120,-54c0,0,-69,-19,-172,-19Z" 
id="f1_23"
transform="scale(0.001,-0.001)" />

<path d="M543,454c0,0,0,41,-7,89c0,0,-7,48,-23,80c0,0,-17,34,-47,56c0,0,-30,21,-77,21c0,0,-78,0,-130,-65c0,0,-52,-65,-57,-181ZM405,-19c0,0,-88,0,-155,31c0,0,-67,31,-110,85c0,0,-44,54,-65,125c0,0,-21,72,-21,152c0,0,0,72,23,141c0,0,22,69,66,124c0,0,43,53,106,85c0,0,63,33,141,33c0,0,81,0,138,-26c0,0,58,-25,94,-69c0,0,34,-42,51,-98c0,0,17,-57,17,-124V391H202c0,0,0,-73,14,-132c0,0,14,-59,44,-104c0,0,29,-43,76,-68c0,0,47,-25,112,-25c0,0,67,0,115,31c0,0,48,31,93,112l52,-32C708,173,662,85,584,33c0,0,-78,-52,-179,-52Z" 
id="f1_21"
transform="scale(0.001,-0.001)" />

<path d="M115,232v93H868V232Zm0,277v93H868V509Z" 
id="f1_x"
transform="scale(0.001,-0.001)" />

<path d="M208,-14c0,0,-42,0,-72,29c0,0,-30,29,-30,71c0,0,0,42,30,72c0,0,30,31,72,31c0,0,42,0,72,-31c0,0,30,-30,30,-72c0,0,0,-42,-30,-71c0,0,-30,-29,-72,-29Z" 
id="f1_i"
transform="scale(0.001,-0.001)" />

<path d="M65,0V53c0,0,22,1,59,6c0,0,37,5,49,10c0,0,23,11,33,29c0,0,9,18,9,46V905c0,0,0,25,-8,44c0,0,-8,19,-34,31c0,0,-21,10,-54,17c0,0,-34,8,-54,9v53H883V804H827c0,0,-15,57,-64,120c0,0,-50,64,-94,70c0,0,-23,3,-55,5c0,0,-33,1,-73,1H374V579H494c0,0,57,0,83,11c0,0,27,10,47,36c0,0,16,21,28,58c0,0,11,36,15,68h56V336H667c0,0,-3,36,-16,76c0,0,-13,40,-27,58c0,0,-23,29,-53,38c0,0,-29,9,-77,9H374V201c0,0,0,-48,7,-75c0,0,7,-28,26,-42c0,0,20,-14,53,-18c0,0,34,-4,96,-4h64c0,0,41,0,68,3c0,0,28,3,59,10c0,0,30,8,42,22c0,0,35,35,72,108c0,0,38,73,48,107h54L943,0Z" 
id="f1_15"
transform="scale(0.001,-0.001)" />

<path d="M273,157c0,0,-114,0,-193,80C80,237,0,317,0,431c0,0,0,112,80,192c0,0,79,80,193,80c0,0,113,0,192,-80c0,0,80,-80,80,-192c0,0,0,-114,-80,-194c0,0,-79,-80,-192,-80Z" 
id="f3_3d"
transform="scale(0.001,-0.001)" />

<path d="M634,433L474,845L316,433ZM-29,0V53c0,0,19,1,47,8c0,0,29,7,48,19c0,0,30,21,46,43c0,0,17,22,32,60c0,0,80,200,176,448c0,0,96,249,172,443h59L904,160c0,0,11,-29,25,-47c0,0,15,-18,40,-35c0,0,17,-10,45,-17c0,0,27,-7,46,-8V0H620V53c0,0,59,4,97,15c0,0,38,11,38,27c0,0,0,7,-1,17c0,0,-2,10,-5,17L661,367H290c0,0,-21,-53,-34,-91c0,0,-13,-39,-24,-72c0,0,-9,-32,-13,-53c0,0,-4,-20,-4,-32c0,0,0,-30,47,-47c0,0,47,-16,106,-19V0Z" 
id="f1_11"
transform="scale(0.001,-0.001)" />

<path d="M341,-18c0,0,-97,0,-148,63c0,0,-51,64,-51,185V582c0,0,0,27,-10,45c0,0,-10,19,-30,32c0,0,-14,9,-34,13c0,0,-20,4,-43,6v49l245,17l12,-10V223c0,0,0,-80,35,-120c0,0,36,-40,86,-40c0,0,41,0,74,12c0,0,32,13,53,30c0,0,21,16,36,33c0,0,15,18,23,33V587c0,0,0,25,-10,44c0,0,-11,19,-29,32c0,0,-14,9,-40,11c0,0,-27,2,-59,4v49l267,17l11,-10V150c0,0,0,-25,11,-43c0,0,10,-18,29,-30c0,0,13,-8,32,-11c0,0,18,-3,41,-3V14L602,-2L591,8v93h-5c0,0,-17,-19,-40,-40c0,0,-22,-21,-51,-39C495,22,461,2,430,-7c0,0,-31,-11,-89,-11Z" 
id="f1_2h"
transform="scale(0.001,-0.001)" />

<path d="M394,-19c0,0,-160,0,-250,105c0,0,-90,106,-90,285c0,0,0,77,24,145c0,0,24,68,70,123c0,0,44,53,111,85c0,0,66,33,144,33c0,0,109,0,176,-52c0,0,68,-52,68,-141c0,0,0,-37,-18,-66c0,0,-17,-29,-58,-29c0,0,-44,0,-69,23c0,0,-24,22,-24,49c0,0,0,34,9,69c0,0,9,35,11,52c0,0,-14,23,-40,30c0,0,-27,8,-57,8c0,0,-36,0,-68,-15c0,0,-33,-16,-63,-57c0,0,-28,-37,-45,-100c0,0,-17,-64,-17,-152c0,0,0,-139,62,-227c0,0,61,-87,161,-87c0,0,72,0,120,35c0,0,49,35,91,105l47,-31C689,171,640,83,560,32c0,0,-81,-51,-166,-51Z" 
id="f1_1z"
transform="scale(0.001,-0.001)" />

<path d="M442,34c0,0,91,0,147,88c0,0,56,88,56,241c0,0,0,55,-12,113c0,0,-11,57,-37,100c0,0,-25,43,-66,70c0,0,-41,27,-99,27c0,0,-52,0,-91,-21c0,0,-40,-20,-71,-55V168c0,0,4,-17,17,-41c0,0,14,-24,36,-46c0,0,22,-21,51,-34c0,0,28,-13,69,-13ZM169,-39l-46,10c0,0,4,55,6,132c0,0,1,78,1,150V982c0,0,0,25,-12,51c0,0,-11,25,-29,36c0,0,-14,10,-47,15c0,0,-34,5,-53,6v48l269,17l11,-11V659l5,-2c0,0,46,50,101,74c0,0,55,25,108,25c0,0,136,0,227,-108c0,0,91,-107,91,-279c0,0,0,-166,-105,-279C696,90,592,-21,454,-21c0,0,-61,0,-119,18c0,0,-59,18,-111,49L169,-39Z" 
id="f1_1y"
transform="scale(0.001,-0.001)" />

<path d="M486,37c0,0,45,0,78,25c0,0,32,25,50,74c0,0,17,41,25,101c0,0,8,59,8,138c0,0,0,53,-8,120c0,0,-7,67,-22,105c0,0,-18,47,-50,74c0,0,-32,27,-81,27c0,0,-53,0,-85,-29c0,0,-31,-29,-49,-75c0,0,-15,-43,-21,-100c0,0,-6,-57,-6,-119c0,0,0,-81,5,-134c0,0,5,-53,25,-107c0,0,18,-46,50,-73c0,0,32,-27,81,-27Zm-8,-59c0,0,-91,0,-167,25c0,0,-77,26,-136,78c0,0,-57,50,-89,123c0,0,-33,74,-33,165c0,0,0,89,29,159c0,0,28,70,86,124c0,0,55,52,136,81c0,0,81,29,181,29c0,0,104,0,184,-29c0,0,79,-29,136,-81c0,0,55,-51,84,-123c0,0,29,-72,29,-155c0,0,0,-83,-28,-156c0,0,-29,-74,-84,-126C806,92,747,36,665,6c0,0,-82,-28,-187,-28Z" 
id="f4_2b"
transform="scale(0.001,-0.001)" />

<path d="M44,0V55c0,0,19,1,38,4c0,0,18,2,32,7c0,0,24,8,33,25c0,0,8,17,8,45V570c0,0,0,23,-11,45c0,0,-12,22,-32,37c0,0,-13,9,-34,15c0,0,-20,5,-45,8v54l356,20l11,-11V629h3c0,0,21,19,51,45c0,0,29,26,55,42c0,0,27,18,72,31c0,0,45,13,96,13c0,0,121,0,182,-69c0,0,61,-69,61,-183V143c0,0,0,-28,8,-44c0,0,9,-17,31,-26c0,0,12,-6,30,-11c0,0,17,-5,40,-7V0H580V55c0,0,14,1,34,3c0,0,20,3,31,8c0,0,15,8,22,24c0,0,7,15,7,46V485c0,0,0,76,-28,114c0,0,-28,39,-83,39c0,0,-30,0,-56,-9c0,0,-26,-9,-50,-27c0,0,-22,-14,-35,-30c0,0,-13,-16,-22,-28V144c0,0,0,-26,7,-43c0,0,8,-18,25,-27c0,0,12,-7,30,-12c0,0,18,-5,35,-7V0Z" 
id="f4_2a"
transform="scale(0.001,-0.001)" />

<path d="M321,459l239,3c0,0,0,44,-5,91c0,0,-4,47,-15,77c0,0,-13,35,-35,53c0,0,-22,18,-55,18c0,0,-58,0,-92,-58c0,0,-34,-58,-37,-184ZM479,-22c0,0,-110,0,-190,30c0,0,-80,31,-133,84c0,0,-52,53,-77,125c0,0,-26,72,-26,156c0,0,0,76,28,146c0,0,28,70,79,124c0,0,51,53,128,86c0,0,77,33,173,33c0,0,104,0,171,-26c0,0,67,-25,111,-70c0,0,43,-42,62,-100c0,0,20,-58,20,-121V396H321c0,0,0,-153,59,-232c0,0,58,-80,187,-80c0,0,70,0,126,39c0,0,56,38,95,97l57,-41c0,0,-26,-43,-63,-80c0,0,-37,-38,-84,-65C698,34,648,6,597,-8c0,0,-51,-14,-118,-14Z" 
id="f4_21"
transform="scale(0.001,-0.001)" />

<path d="M64,324V489H515V324Z" 
id="f4_h"
transform="scale(0.001,-0.001)" />

<path d="M408,93c0,0,41,0,68,17c0,0,27,17,47,41l3,254c0,0,-42,-14,-83,-33c0,0,-42,-18,-68,-38c0,0,-28,-21,-43,-54c0,0,-16,-32,-16,-76c0,0,0,-59,26,-85c0,0,27,-26,66,-26ZM268,-22c0,0,-87,0,-148,50c0,0,-61,51,-61,135c0,0,0,49,13,83c0,0,14,34,38,60c0,0,23,24,52,40c0,0,30,15,65,29c0,0,67,24,161,51c0,0,95,26,138,47v72c0,0,0,18,-3,49c0,0,-3,31,-13,51c0,0,-10,24,-33,41c0,0,-22,16,-59,16c0,0,-33,0,-55,-9c0,0,-22,-10,-35,-19c0,0,2,-15,13,-46c0,0,10,-30,10,-59c0,0,0,-12,-7,-31c0,0,-6,-19,-19,-31c0,0,-17,-14,-39,-23c0,0,-21,-8,-65,-8c0,0,-63,0,-95,30c0,0,-32,31,-32,79c0,0,0,42,33,75c0,0,33,33,81,55c0,0,47,22,108,34c0,0,61,13,114,13c0,0,72,0,133,-9c0,0,60,-8,108,-35c0,0,47,-26,74,-76c0,0,27,-50,27,-129c0,0,0,-85,-3,-200c0,0,-3,-116,-3,-152c0,0,0,-34,10,-53c0,0,10,-20,31,-29c0,0,12,-6,40,-7c0,0,27,-2,49,-2V16C896,16,864,1,819,-9c0,0,-45,-12,-95,-12c0,0,-92,0,-135,26c0,0,-43,27,-59,78h-4c0,0,-26,-26,-49,-44C477,39,453,22,426,9c0,0,-35,-16,-67,-23c0,0,-33,-8,-91,-8Z" 
id="f4_1x"
transform="scale(0.001,-0.001)" />

<path d="M497,85c0,0,45,0,75,18c0,0,30,17,55,46V570c0,0,-5,17,-15,38c0,0,-9,20,-25,39c0,0,-15,16,-40,27c0,0,-25,12,-56,12c0,0,-75,0,-123,-84c0,0,-47,-84,-47,-237c0,0,0,-60,8,-108c0,0,9,-48,30,-88c0,0,22,-39,56,-62c0,0,34,-22,82,-22ZM399,-22c0,0,-151,0,-248,110c0,0,-98,112,-98,289c0,0,0,158,109,270c0,0,109,113,264,113c0,0,61,0,115,-14c0,0,54,-14,86,-32V957c0,0,0,28,-11,52c0,0,-11,24,-30,38c0,0,-23,16,-58,23c0,0,-34,7,-69,10v55l403,20l11,-12V165c0,0,0,-28,9,-48c0,0,10,-19,30,-30c0,0,16,-8,46,-12c0,0,30,-4,49,-5V16L640,-5L629,5V73l-6,2C623,75,587,35,525,6c0,0,-63,-28,-126,-28Z" 
id="f4_20"
transform="scale(0.001,-0.001)" />

<path d="M363,-20c0,0,-116,0,-173,56c0,0,-56,57,-56,162V656H0v81H137V963H379V737H589V656H380V247c0,0,0,-87,25,-123c0,0,24,-37,87,-37c0,0,20,0,56,3c0,0,36,3,50,7V34C598,34,551,13,496,-3c0,0,-54,-17,-133,-17Z" 
id="f4_2g"
transform="scale(0.001,-0.001)" />

<path d="M633,-243c0,0,-103,13,-201,60c0,0,-98,47,-174,132c0,0,-78,84,-125,208c0,0,-47,124,-47,292c0,0,0,168,47,292c0,0,47,125,125,210c0,0,76,84,174,131c0,0,98,48,201,61v-67c0,0,-141,-27,-216,-182c0,0,-76,-155,-76,-445c0,0,0,-289,76,-444c0,0,75,-155,216,-181v-67Z" 
id="f4_c"
transform="scale(0.001,-0.001)" />

<path d="M44,0V55c0,0,19,1,38,4c0,0,18,2,32,7c0,0,24,8,33,25c0,0,8,17,8,45V570c0,0,0,26,-12,48c0,0,-13,21,-31,34c0,0,-13,9,-34,15c0,0,-20,5,-45,8v54l356,20l11,-11V629h3c0,0,51,60,109,94c0,0,58,34,121,34c0,0,69,0,111,-43c0,0,42,-43,42,-111c0,0,0,-57,-35,-100c0,0,-35,-42,-92,-42c0,0,-55,0,-92,27c0,0,-38,27,-38,81c0,0,0,26,4,40c0,0,3,15,6,28c0,0,-34,-2,-72,-24c0,0,-38,-22,-67,-59V145c0,0,0,-26,8,-43c0,0,8,-17,28,-27c0,0,16,-8,53,-14c0,0,37,-6,54,-6V0Z" 
id="f4_2e"
transform="scale(0.001,-0.001)" />

<path d="M502,38c0,0,76,0,120,83c0,0,44,83,44,235c0,0,0,57,-9,109c0,0,-9,53,-29,93c0,0,-20,40,-53,64c0,0,-32,24,-81,24c0,0,-45,0,-75,-15c0,0,-30,-14,-53,-43V154c0,0,4,-15,16,-39c0,0,13,-24,25,-37c0,0,18,-20,38,-30c0,0,20,-10,57,-10ZM154,-36l-44,17c0,0,4,53,7,117c0,0,2,64,2,172V967c0,0,0,29,-11,53c0,0,-12,24,-31,37c0,0,-14,9,-41,15c0,0,-28,7,-50,8v55l368,20l12,-12V658h4c0,0,55,53,112,77c0,0,57,25,115,25c0,0,156,0,246,-107c0,0,90,-106,90,-288c0,0,0,-168,-110,-278C823,87,712,-22,542,-22c0,0,-66,0,-113,9c0,0,-48,9,-81,22c0,0,-34,14,-54,28c0,0,-21,13,-33,22L154,-36Z" 
id="f4_1y"
transform="scale(0.001,-0.001)" />

<path d="M43,0V55c0,0,19,1,38,3c0,0,19,3,32,8c0,0,24,9,34,26c0,0,9,16,9,44V570c0,0,0,26,-11,45c0,0,-12,20,-30,32c0,0,-14,9,-41,17c0,0,-27,8,-50,11v54l366,20l11,-11V146c0,0,0,-26,11,-45c0,0,11,-18,32,-27c0,0,15,-7,33,-12c0,0,18,-5,37,-7V0ZM259,881c0,0,-60,0,-104,40c0,0,-44,40,-44,97c0,0,0,56,44,96c0,0,44,41,104,41c0,0,60,0,104,-41c0,0,43,-40,43,-96c0,0,0,-57,-44,-97c0,0,-43,-40,-103,-40Z" 
id="f4_25"
transform="scale(0.001,-0.001)" />

<path d="M10,-330c0,0,-89,0,-138,34c0,0,-49,35,-49,94c0,0,0,20,5,38c0,0,5,18,20,38c0,0,12,16,37,27c0,0,25,12,57,12c0,0,60,0,94,-44c0,0,34,-44,69,-133c0,0,30,17,45,73c0,0,14,56,14,242V567c0,0,0,26,-11,45c0,0,-11,20,-31,34c0,0,-14,9,-45,18c0,0,-31,8,-54,11v54l376,20l12,-11V88c0,0,0,-77,-26,-154c0,0,-26,-79,-75,-135c0,0,-53,-61,-128,-95c0,0,-75,-34,-172,-34ZM267,881c0,0,-61,0,-104,40c0,0,-44,40,-44,97c0,0,0,56,44,96c0,0,43,41,104,41c0,0,60,0,103,-41c0,0,44,-40,44,-96c0,0,0,-57,-44,-97c0,0,-44,-40,-103,-40Z" 
id="f4_26"
transform="scale(0.001,-0.001)" />

<path d="M469,-22c0,0,-103,0,-183,29c0,0,-79,30,-131,82c0,0,-51,53,-77,125c0,0,-25,73,-25,158c0,0,0,77,31,147c0,0,31,70,84,123c0,0,54,55,135,87c0,0,81,33,179,33c0,0,137,0,217,-52c0,0,80,-52,80,-140c0,0,0,-54,-28,-86c0,0,-28,-33,-98,-33c0,0,-56,0,-93,27c0,0,-38,26,-38,70c0,0,0,36,12,72c0,0,12,36,14,54c0,0,-8,14,-21,21c0,0,-12,7,-39,7c0,0,-34,0,-62,-16c0,0,-27,-15,-51,-55c0,0,-24,-37,-37,-100c0,0,-14,-62,-14,-150c0,0,0,-133,62,-215c0,0,62,-81,149,-81c0,0,83,0,132,37c0,0,49,37,87,105l56,-39c0,0,-24,-45,-56,-83c0,0,-32,-38,-77,-67C677,38,630,8,582,-7c0,0,-49,-15,-113,-15Z" 
id="f4_1z"
transform="scale(0.001,-0.001)" />

<path d="M371,-6c0,0,-86,198,-146,330c0,0,-61,131,-129,282c0,0,-16,35,-49,55c0,0,-33,20,-67,24v55H439V685c0,0,-25,0,-59,-11c0,0,-35,-10,-35,-27c0,0,0,-4,3,-13c0,0,3,-9,8,-20c0,0,24,-57,72,-163c0,0,48,-107,101,-224c0,0,38,81,72,159c0,0,33,77,83,198c0,0,7,18,8,29c0,0,1,11,1,15c0,0,0,13,-13,23c0,0,-13,11,-31,18c0,0,-18,7,-35,11c0,0,-17,4,-28,5v55H894V685c0,0,-34,-5,-66,-25c0,0,-31,-20,-52,-63c0,0,-52,-109,-103,-219c0,0,-50,-111,-99,-215c0,0,-15,-31,-34,-80c0,0,-19,-50,-31,-89H371Z" 
id="f4_2i"
transform="scale(0.001,-0.001)" />

<path d="M51,-243v67c0,0,141,26,216,181c0,0,75,155,75,444c0,0,0,290,-75,445c0,0,-75,155,-216,182v67c0,0,102,-13,200,-61c0,0,98,-47,175,-131c0,0,77,-85,124,-210c0,0,47,-124,47,-292c0,0,0,-168,-47,-292C550,157,503,33,426,-51c0,0,-77,-84,-175,-132c0,0,-98,-47,-200,-60Z" 
id="f4_d"
transform="scale(0.001,-0.001)" />

<path d="M143,-289l-33,53c0,0,37,19,70,41c0,0,32,23,58,53c0,0,26,31,41,63c0,0,15,33,19,79H256c0,0,-76,0,-115,34c0,0,-38,35,-38,95c0,0,0,48,37,86c0,0,37,38,92,38c0,0,83,0,127,-57c0,0,44,-57,44,-157c0,0,0,-90,-76,-185c0,0,-77,-95,-184,-143Z" 
id="f4_g"
transform="scale(0.001,-0.001)" />

<path d="M40,0V49c0,0,17,1,36,3c0,0,18,2,31,6c0,0,21,7,31,23c0,0,11,17,11,44V982c0,0,0,25,-12,51c0,0,-11,25,-30,38c0,0,-13,10,-47,14c0,0,-34,4,-55,5v48l272,17l10,-11V630h3c0,0,25,25,45,44c0,0,20,19,53,40c0,0,29,18,67,30c0,0,39,12,87,12c0,0,98,0,151,-63c0,0,53,-62,53,-179V131c0,0,0,-26,10,-42c0,0,9,-16,31,-25c0,0,17,-7,31,-10c0,0,14,-4,37,-5V0H493V49c0,0,17,1,38,3c0,0,21,1,35,6c0,0,20,7,31,23c0,0,10,17,10,44V503c0,0,0,79,-37,121c0,0,-38,43,-91,43c0,0,-39,0,-72,-12c0,0,-33,-13,-60,-31c0,0,-25,-18,-39,-37c0,0,-13,-19,-21,-31V132c0,0,0,-25,11,-41c0,0,10,-17,30,-26c0,0,17,-7,34,-11c0,0,18,-4,39,-5V0Z" 
id="f1_24"
transform="scale(0.001,-0.001)" />

<path d="M64,346V464H508V346Z" 
id="f1_h"
transform="scale(0.001,-0.001)" />

<path d="M607,-28c0,0,-117,0,-218,36C389,8,287,46,212,118c0,0,-74,70,-117,173c0,0,-42,104,-42,228c0,0,0,123,43,228c0,0,43,105,120,182c0,0,77,75,183,117c0,0,107,41,229,41c0,0,88,0,160,-21c0,0,73,-21,123,-48l46,41h65l6,-386H963c0,0,-56,176,-134,259c0,0,-79,83,-191,83c0,0,-141,0,-214,-124c0,0,-73,-123,-73,-347c0,0,0,-126,25,-215c0,0,25,-89,65,-144c0,0,44,-57,103,-83c0,0,58,-27,130,-27c0,0,105,0,186,57c0,0,82,56,149,171l65,-39c0,0,-33,-65,-74,-117c0,0,-41,-52,-94,-89C906,58,847,17,775,-5c0,0,-71,-23,-168,-23Z" 
id="f4_13"
transform="scale(0.001,-0.001)" />

<path d="M43,0V55c0,0,19,1,38,3c0,0,19,3,32,8c0,0,24,9,33,26c0,0,9,16,9,44V570c0,0,0,23,-13,46c0,0,-13,23,-31,36c0,0,-13,9,-34,15c0,0,-20,5,-45,8v54l356,20l11,-11V632h3c0,0,21,19,50,45c0,0,28,25,54,41c0,0,27,18,71,30c0,0,43,12,95,12c0,0,85,0,142,-37c0,0,57,-37,81,-98h7c0,0,21,20,53,47c0,0,31,27,57,44c0,0,29,18,74,31c0,0,45,13,97,13c0,0,112,0,173,-67c0,0,61,-66,61,-188V143c0,0,0,-28,8,-45c0,0,8,-16,30,-25c0,0,12,-6,30,-11c0,0,17,-5,40,-7V0H1081V55c0,0,17,2,35,3c0,0,17,2,29,8c0,0,16,7,21,25c0,0,4,17,4,45V484c0,0,0,77,-27,115c0,0,-27,39,-78,39c0,0,-32,0,-57,-11c0,0,-25,-10,-46,-25c0,0,-22,-15,-33,-31c0,0,-12,-15,-21,-27V144c0,0,0,-27,7,-43c0,0,6,-17,23,-27c0,0,12,-7,27,-12c0,0,15,-5,32,-7V0H573V55c0,0,14,1,34,3c0,0,20,3,30,8c0,0,15,8,20,24c0,0,5,15,5,46V484c0,0,0,77,-27,115c0,0,-28,39,-79,39c0,0,-32,0,-57,-11c0,0,-25,-10,-46,-25c0,0,-22,-15,-34,-31c0,0,-12,-15,-20,-27V144c0,0,0,-26,7,-43c0,0,6,-17,23,-27c0,0,12,-7,28,-12c0,0,15,-5,32,-7V0Z" 
id="f4_29"
transform="scale(0.001,-0.001)" />

<path d="M522,48c0,0,74,0,118,79c0,0,44,80,44,233c0,0,0,56,-8,107c0,0,-8,51,-29,91c0,0,-20,41,-53,64c0,0,-33,24,-81,24c0,0,-48,0,-77,-16c0,0,-29,-17,-51,-44V163c0,0,5,-14,17,-38c0,0,13,-23,26,-38c0,0,18,-20,42,-29c0,0,24,-10,52,-10ZM8,-330v54c0,0,19,2,47,6c0,0,28,4,43,8c0,0,24,9,32,28c0,0,9,20,9,46V574c0,0,-2,25,-12,43c0,0,-9,19,-29,33c0,0,-15,10,-40,16c0,0,-24,6,-48,9v54l364,20l11,-10V656l6,-1c0,0,49,50,109,77c0,0,60,28,119,28c0,0,154,0,244,-110c0,0,89,-109,89,-287c0,0,0,-157,-105,-270C847,93,742,-19,581,-19c0,0,-71,0,-116,15c0,0,-45,14,-74,34h-6V-179c0,0,0,-26,12,-45c0,0,11,-20,32,-29c0,0,20,-8,57,-14c0,0,37,-7,62,-9v-54Z" 
id="f4_2c"
transform="scale(0.001,-0.001)" />

<path d="M389,-24c0,0,-73,0,-141,21c0,0,-69,20,-107,44L118,-9H60L50,269h55c0,0,11,-34,37,-76c0,0,26,-42,60,-76c0,0,35,-33,80,-57c0,0,45,-23,96,-23c0,0,68,0,101,27c0,0,33,26,33,81c0,0,0,30,-14,50c0,0,-15,19,-41,33c0,0,-30,15,-64,25c0,0,-35,11,-86,26c0,0,-51,15,-87,30c0,0,-36,15,-75,48c0,0,-33,29,-53,70c0,0,-21,41,-21,98c0,0,0,105,89,170c0,0,88,65,231,65c0,0,68,0,125,-14c0,0,57,-14,96,-30l16,44h56L696,506H644c0,0,-26,77,-89,133c0,0,-64,56,-137,56c0,0,-57,0,-90,-24c0,0,-33,-23,-33,-66c0,0,0,-56,48,-82c0,0,48,-25,135,-47c0,0,133,-35,195,-94c0,0,61,-59,61,-151c0,0,0,-122,-95,-189c0,0,-96,-66,-250,-66Z" 
id="f4_2f"
transform="scale(0.001,-0.001)" />

<path d="M44,0V55c0,0,19,1,38,3c0,0,18,3,32,8c0,0,24,9,33,26c0,0,8,16,8,44V656H4v81H155c0,0,0,80,24,155c0,0,23,74,71,133c0,0,47,58,124,94c0,0,77,36,180,36c0,0,93,0,143,-35c0,0,51,-35,51,-92c0,0,0,-18,-6,-41c0,0,-6,-22,-19,-38c0,0,-16,-18,-35,-28c0,0,-20,-10,-59,-10c0,0,-58,0,-92,41c0,0,-33,41,-72,136c0,0,-29,-12,-48,-65c0,0,-19,-53,-19,-227V737H604V656H400V143c0,0,0,-29,13,-45c0,0,14,-16,35,-24c0,0,18,-6,47,-11c0,0,29,-6,53,-8V0Z" 
id="f4_22"
transform="scale(0.001,-0.001)" />

<path d="M51,0V59c0,0,22,2,57,6c0,0,36,4,50,10c0,0,27,10,38,29c0,0,10,19,10,48V898c0,0,0,25,-9,44c0,0,-9,19,-39,32c0,0,-20,9,-55,17c0,0,-34,7,-52,9v59h951V776H944c0,0,-22,62,-77,132c0,0,-54,69,-103,76c0,0,-23,3,-60,5c0,0,-37,2,-68,2H471V576H576c0,0,45,0,78,10c0,0,33,10,58,36c0,0,19,19,36,63c0,0,18,43,22,75h56V314H770c0,0,-3,33,-24,82c0,0,-20,48,-34,63c0,0,-22,24,-55,36c0,0,-34,12,-81,12H471V156c0,0,0,-27,10,-46c0,0,10,-19,39,-30c0,0,16,-7,45,-13c0,0,29,-5,57,-8V0Z" 
id="f4_16"
transform="scale(0.001,-0.001)" />

<path d="M367,-21c0,0,-113,0,-173,66c0,0,-60,68,-60,192V573c0,0,0,29,-11,47c0,0,-11,18,-30,32c0,0,-15,12,-38,16c0,0,-24,5,-43,7v54l360,20l8,-11V242c0,0,0,-77,30,-114c0,0,29,-36,81,-36c0,0,53,0,95,27c0,0,42,28,62,59V580c0,0,0,25,-10,46c0,0,-10,20,-28,32c0,0,-14,9,-38,12c0,0,-25,3,-51,5v54l362,20l11,-11V162c0,0,0,-26,10,-44c0,0,11,-19,31,-31c0,0,14,-9,37,-12c0,0,22,-4,44,-5V16L660,-5L649,5v97h-4c0,0,-26,-23,-50,-45c0,0,-24,-22,-58,-40c0,0,-38,-19,-72,-29c0,0,-34,-9,-98,-9Z" 
id="f4_2h"
transform="scale(0.001,-0.001)" />

<path d="M47,0V59c0,0,20,1,59,4c0,0,40,3,54,9c0,0,28,11,38,30c0,0,10,18,10,46V898c0,0,0,25,-9,45c0,0,-10,19,-39,31c0,0,-17,8,-53,15c0,0,-35,8,-60,11v59H635v-59c0,0,-23,-2,-56,-6c0,0,-34,-4,-57,-12c0,0,-29,-9,-39,-30c0,0,-10,-20,-10,-46V156c0,0,0,-27,10,-46c0,0,10,-19,39,-30c0,0,15,-7,52,-14c0,0,36,-6,61,-7V0Z" 
id="f4_19"
transform="scale(0.001,-0.001)" />

<path d="M29,0V55c0,0,20,1,38,3c0,0,18,3,33,8c0,0,24,9,32,26c0,0,9,16,9,44V962c0,0,0,28,-12,53c0,0,-11,24,-31,36c0,0,-15,10,-45,19c0,0,-30,9,-53,10v55l376,20l11,-12V146c0,0,0,-28,10,-45c0,0,10,-17,31,-27c0,0,15,-7,32,-12c0,0,16,-5,39,-7V0Z" 
id="f4_28"
transform="scale(0.001,-0.001)" />

<path d="M73,0V53c0,0,18,1,52,5c0,0,34,4,48,10c0,0,22,9,32,28c0,0,10,19,10,48V902c0,0,0,26,-8,45c0,0,-9,20,-34,32c0,0,-18,8,-49,17c0,0,-30,9,-51,10v53H521v-53c0,0,-21,-1,-54,-7c0,0,-33,-7,-48,-12c0,0,-26,-9,-35,-31c0,0,-10,-21,-10,-46V199c0,0,0,-49,5,-77c0,0,5,-27,23,-42c0,0,17,-13,51,-17c0,0,34,-4,95,-4c0,0,28,0,58,1c0,0,29,2,56,6c0,0,26,5,48,12c0,0,22,8,33,20c0,0,30,34,71,104c0,0,41,70,56,113h53L901,0Z" 
id="f1_1c"
transform="scale(0.001,-0.001)" />

<path d="M518,59c0,0,111,0,170,65c0,0,59,65,59,191c0,0,0,94,-63,155c0,0,-63,60,-180,60c0,0,-48,0,-80,-1c0,0,-33,-1,-50,-2V154c0,0,0,-48,38,-71c0,0,38,-24,106,-24ZM469,591c0,0,61,0,104,15c0,0,44,16,70,47c0,0,28,32,39,70c0,0,10,38,10,91c0,0,0,87,-47,137c0,0,-48,49,-150,49c0,0,-24,0,-60,-1c0,0,-36,-1,-61,-2V591ZM71,0V53c0,0,18,1,53,6c0,0,34,5,49,12c0,0,23,10,32,28c0,0,10,17,10,45V905c0,0,0,26,-8,45c0,0,-9,20,-34,32c0,0,-23,11,-50,17c0,0,-28,6,-47,7v53H565c0,0,57,0,109,-11c0,0,51,-11,98,-40c0,0,44,-26,73,-71c0,0,28,-44,28,-109c0,0,0,-55,-20,-99c0,0,-20,-44,-57,-75c0,0,-34,-30,-78,-50c0,0,-45,-21,-96,-32v-7c0,0,45,-5,101,-23c0,0,57,-17,101,-49c0,0,46,-31,76,-82c0,0,31,-50,31,-123c0,0,0,-74,-32,-128c0,0,-32,-55,-84,-90C815,70,765,36,702,18C702,18,639,0,572,0Z" 
id="f1_12"
transform="scale(0.001,-0.001)" />

<path d="M539,-24c0,0,-94,0,-181,36c0,0,-87,37,-154,107c0,0,-66,71,-106,172c0,0,-39,101,-39,228c0,0,0,127,38,230c0,0,39,103,108,178c0,0,67,74,160,114c0,0,92,40,197,40c0,0,78,0,141,-19c0,0,64,-19,121,-54l31,51h59l7,-377H860c0,0,-12,55,-36,119c0,0,-24,64,-56,109c0,0,-36,51,-85,79c0,0,-49,29,-112,29c0,0,-72,0,-134,-32c0,0,-63,-32,-108,-95c0,0,-43,-60,-68,-154c0,0,-24,-93,-24,-208c0,0,0,-102,25,-186c0,0,26,-85,74,-149c0,0,48,-64,113,-99c0,0,65,-36,146,-36c0,0,60,0,111,19c0,0,50,19,88,50c0,0,37,33,65,75c0,0,29,42,46,91l56,-27C961,267,897,110,791,42c0,0,-106,-66,-252,-66Z" 
id="f1_13"
transform="scale(0.001,-0.001)" />

<path d="M310,-4c0,0,-56,165,-109,328c0,0,-53,163,-94,283c0,0,-12,35,-46,56c0,0,-34,20,-64,23v49H324V683c0,0,-25,0,-54,-8c0,0,-28,-7,-28,-24c0,0,0,-3,2,-13c0,0,3,-10,7,-21c0,0,24,-78,54,-175c0,0,30,-97,78,-252L571,721h72L835,198c0,0,32,100,64,194c0,0,32,94,56,176c0,0,5,19,10,35c0,0,5,16,5,32c0,0,0,13,-12,24c0,0,-12,10,-29,17c0,0,-15,6,-33,9c0,0,-17,3,-25,3v47h279V688c0,0,-31,-3,-68,-26c0,0,-36,-23,-52,-70c0,0,-38,-109,-71,-207c0,0,-33,-98,-74,-221c0,0,-14,-38,-27,-83c0,0,-14,-45,-25,-85H769L571,537L371,-4H310Z" 
id="f1_2j"
transform="scale(0.001,-0.001)" />

<path d="M222,0V53c0,0,21,1,64,6c0,0,43,4,59,11c0,0,25,10,36,28c0,0,12,18,12,49v853H350c0,0,-23,0,-58,-1c0,0,-34,-1,-66,-5c0,0,-24,-3,-51,-29c0,0,-26,-27,-49,-60c0,0,-22,-34,-39,-71c0,0,-18,-38,-24,-63H11v288H935V771H883c0,0,-7,27,-24,64c0,0,-18,37,-40,70c0,0,-22,34,-49,60c0,0,-26,26,-51,29c0,0,-23,3,-58,5c0,0,-35,1,-65,1H552V154c0,0,0,-25,11,-46c0,0,10,-20,36,-31c0,0,14,-6,57,-14c0,0,43,-9,67,-10V0Z" 
id="f1_1k"
transform="scale(0.001,-0.001)" />

<path d="M53,0V49c0,0,17,1,35,3c0,0,19,1,32,6c0,0,21,7,31,23c0,0,10,17,10,44V582c0,0,0,24,-10,43c0,0,-11,19,-31,32c0,0,-14,9,-35,15c0,0,-21,5,-43,7v48l246,17l11,-10V629h5c0,0,19,19,45,44c0,0,27,25,50,41c0,0,26,18,65,30c0,0,40,12,85,12c0,0,72,0,123,-39c0,0,51,-38,74,-93c0,0,27,27,47,46c0,0,20,20,54,43c0,0,28,19,67,31c0,0,38,12,85,12c0,0,93,0,147,-61c0,0,55,-62,55,-189V132c0,0,0,-26,9,-42c0,0,9,-17,30,-26c0,0,18,-7,34,-10c0,0,17,-4,38,-5V0H954V49c0,0,17,1,35,3c0,0,17,1,31,6c0,0,21,7,31,23c0,0,10,17,10,44V505c0,0,0,78,-36,120c0,0,-35,42,-88,42c0,0,-37,0,-69,-11c0,0,-32,-12,-59,-32c0,0,-21,-16,-36,-35c0,0,-15,-19,-22,-32V132c0,0,0,-26,9,-42c0,0,9,-17,30,-26c0,0,18,-7,31,-10c0,0,14,-4,37,-5V0H507V49c0,0,18,1,34,3c0,0,16,1,29,6c0,0,21,7,31,23c0,0,10,17,10,44V505c0,0,0,78,-35,120c0,0,-36,42,-89,42c0,0,-37,0,-69,-12c0,0,-32,-11,-59,-31c0,0,-21,-17,-36,-37c0,0,-15,-21,-23,-31V134c0,0,0,-25,11,-43c0,0,10,-17,31,-26c0,0,16,-7,32,-11c0,0,17,-4,37,-5V0Z" 
id="f1_29"
transform="scale(0.001,-0.001)" />

<path d="M459,35c0,0,42,0,81,22c0,0,38,22,64,62c0,0,30,47,44,108c0,0,15,61,15,136c0,0,0,55,-12,113c0,0,-12,57,-38,100c0,0,-25,43,-66,70c0,0,-41,27,-98,27c0,0,-56,0,-94,-25c0,0,-39,-24,-68,-57V156c0,0,7,-20,22,-42c0,0,16,-21,34,-37c0,0,24,-19,50,-30c0,0,27,-12,66,-12ZM24,-330v48c0,0,24,2,45,4c0,0,22,2,39,8c0,0,23,7,32,26c0,0,9,18,9,44V582c0,0,0,22,-12,43c0,0,-11,21,-29,33c0,0,-13,9,-37,14c0,0,-24,5,-47,7v48l252,17l10,-9V653l6,-2c0,0,39,45,96,75c0,0,57,30,114,30c0,0,69,0,126,-29c0,0,57,-29,98,-79c0,0,44,-52,68,-121c0,0,24,-69,24,-158c0,0,0,-87,-29,-159c0,0,-29,-72,-77,-123C712,87,662,36,601,8c0,0,-61,-27,-129,-27c0,0,-67,0,-109,15c0,0,-43,14,-70,34h-6V-190c0,0,0,-27,11,-45c0,0,10,-18,32,-26c0,0,18,-7,51,-13c0,0,33,-7,55,-8v-48Z" 
id="f1_2c"
transform="scale(0.001,-0.001)" />

<path d="M107,-262l-35,50c0,0,36,22,64,45c0,0,29,22,46,44c0,0,23,26,38,57c0,0,16,30,21,68H203c0,0,-50,0,-78,26c0,0,-28,26,-28,70c0,0,0,32,25,61c0,0,25,30,69,30c0,0,65,0,97,-43c0,0,32,-43,32,-119c0,0,0,-53,-24,-100c0,0,-25,-48,-56,-82c0,0,-32,-36,-68,-64c0,0,-36,-27,-65,-43Z" 
id="f1_g"
transform="scale(0.001,-0.001)" />

<path d="M441,96c0,0,36,0,74,22c0,0,39,23,62,48l82,400c0,0,0,19,-5,39c0,0,-5,19,-19,37c0,0,-14,19,-35,30c0,0,-21,11,-56,11c0,0,-49,0,-90,-35c0,0,-41,-35,-72,-93c0,0,-30,-57,-48,-134c0,0,-18,-76,-18,-157c0,0,0,-36,6,-66c0,0,6,-31,22,-54c0,0,16,-24,41,-36c0,0,25,-12,56,-12ZM298,-330c0,0,-92,0,-149,13c0,0,-58,14,-89,36c0,0,-30,21,-40,46c0,0,-11,26,-11,51c0,0,0,42,30,76c0,0,30,34,84,34c0,0,40,0,72,-22c0,0,31,-21,55,-52c0,0,22,-27,40,-63c0,0,19,-37,28,-59c0,0,35,6,69,20c0,0,33,13,65,50c0,0,29,36,57,99c0,0,27,64,50,179h-6c0,0,-19,-15,-43,-32c0,0,-25,-17,-53,-30C457,16,423,0,393,-8c0,0,-30,-9,-75,-9c0,0,-130,0,-200,75c0,0,-69,77,-69,209c0,0,0,101,36,189c0,0,35,89,97,157c0,0,60,66,142,105c0,0,83,39,174,39c0,0,67,0,119,-14c0,0,51,-15,88,-44l228,47l11,-12L816,127c0,0,-29,-135,-82,-223c0,0,-53,-88,-123,-141c0,0,-72,-52,-150,-73c0,0,-77,-20,-163,-20Z" 
id="f5_23"
transform="scale(0.001,-0.001)" />

<path d="M401,90c0,0,54,0,93,19c0,0,40,20,65,55c0,0,26,35,37,84c0,0,12,48,12,106c0,0,0,55,-10,104c0,0,-10,48,-33,85c0,0,-23,36,-62,58c0,0,-40,21,-99,21c0,0,-54,0,-93,-20c0,0,-39,-19,-65,-54c0,0,-25,-36,-37,-85c0,0,-12,-48,-12,-106c0,0,0,-55,10,-103c0,0,10,-49,33,-85c0,0,24,-36,63,-58c0,0,39,-21,98,-21ZM395,-13c0,0,-82,0,-144,24c0,0,-61,25,-102,72c0,0,-41,47,-61,114c0,0,-21,67,-21,152c0,0,0,82,22,151c0,0,21,69,64,119c0,0,43,50,107,78c0,0,64,28,150,28c0,0,82,0,144,-25c0,0,61,-25,102,-72c0,0,41,-47,62,-114c0,0,20,-67,20,-151c0,0,0,-83,-21,-152c0,0,-22,-69,-65,-119C652,92,609,42,545,14c0,0,-65,-27,-150,-27Z" 
id="f6_am"
transform="scale(0.001,-0.001)" />

<path d="M-108,-330c0,0,-68,0,-110,13c0,0,-42,13,-66,34c0,0,-23,21,-31,46c0,0,-9,26,-9,50c0,0,0,43,31,77c0,0,31,33,83,33c0,0,41,0,70,-21c0,0,30,-22,51,-51c0,0,20,-29,36,-65c0,0,16,-36,25,-56c0,0,31,34,58,103c0,0,28,69,52,183L215,647H70l18,78H232l12,57c0,0,16,70,57,137c0,0,42,68,101,121c0,0,56,52,131,85c0,0,74,33,148,33c0,0,65,0,108,-13c0,0,43,-12,68,-33c0,0,22,-21,30,-46c0,0,8,-25,8,-49c0,0,0,-16,-7,-37c0,0,-6,-20,-19,-36c0,0,-17,-19,-35,-29c0,0,-18,-11,-53,-11c0,0,-40,0,-69,22c0,0,-29,21,-49,50c0,0,-22,30,-37,65c0,0,-15,35,-24,56c0,0,-31,-35,-55,-102c0,0,-25,-67,-51,-185L477,725H665L647,647H463c0,0,-37,-184,-64,-319c0,0,-28,-136,-66,-283c0,0,-18,-72,-61,-142c0,0,-43,-69,-101,-120c0,0,-62,-54,-133,-84c0,0,-70,-29,-146,-29Z" 
id="f5_22"
transform="scale(0.001,-0.001)" />

<path d="M355,-6c0,0,-70,174,-130,319c0,0,-60,144,-124,296c0,0,-15,34,-48,53c0,0,-33,19,-66,24v49H326V683c0,0,-22,0,-56,-9c0,0,-33,-8,-33,-23c0,0,0,-3,4,-12c0,0,3,-9,7,-21c0,0,31,-76,86,-212c0,0,56,-136,91,-219c0,0,27,63,68,159c0,0,40,95,87,212c0,0,8,20,15,38c0,0,6,17,6,35c0,0,0,13,-12,23c0,0,-12,10,-29,17c0,0,-18,8,-34,12c0,0,-16,3,-27,5v47H780V690c0,0,-33,-6,-63,-24c0,0,-31,-18,-52,-65c0,0,-44,-100,-91,-208c0,0,-47,-109,-98,-228c0,0,-15,-35,-32,-82c0,0,-16,-47,-31,-89H355Z" 
id="f1_2i"
transform="scale(0.001,-0.001)" />

<path d="M497,-243c0,0,-82,11,-160,46c0,0,-78,35,-138,98c0,0,-60,61,-95,150c0,0,-36,89,-36,207c0,0,0,187,64,349c0,0,64,162,178,281c0,0,103,110,235,174c0,0,131,65,250,81l-15,-67c0,0,-94,-17,-183,-99c0,0,-89,-82,-155,-213c0,0,-63,-125,-98,-279c0,0,-35,-155,-35,-310c0,0,0,-147,49,-239c0,0,50,-94,154,-114l-15,-65Z" 
id="f5_c"
transform="scale(0.001,-0.001)" />

<path d="M590,-20c0,0,-32,0,-62,6c0,0,-31,6,-56,21c0,0,-28,16,-47,41c0,0,-19,25,-33,69c0,0,-8,27,-16,62c0,0,-7,36,-15,62c0,0,-21,-32,-31,-47c0,0,-10,-16,-28,-44C302,150,243,59,199,21c0,0,-43,-38,-103,-38c0,0,-46,0,-78,30c0,0,-31,30,-31,80c0,0,0,66,41,104c0,0,41,39,101,39c0,0,35,0,68,-9c0,0,33,-9,62,-19c0,0,11,9,35,35c0,0,23,27,51,66c0,0,-25,100,-40,150c0,0,-16,51,-32,101c0,0,-14,40,-39,62c0,0,-25,21,-76,21c0,0,-23,0,-50,-7c0,0,-28,-8,-46,-15l16,68c0,0,67,30,127,45c0,0,60,15,101,15c0,0,36,0,63,-5c0,0,26,-5,55,-23c0,0,27,-16,46,-41c0,0,20,-25,33,-68c0,0,9,-30,16,-62c0,0,8,-32,13,-56c0,0,16,24,32,50c0,0,17,25,29,44c0,0,57,91,103,130c0,0,45,39,103,39c0,0,47,0,78,-31c0,0,31,-31,31,-81c0,0,0,-65,-41,-103c0,0,-41,-38,-101,-38c0,0,-36,0,-70,9c0,0,-35,8,-60,17c0,0,-12,-8,-36,-35c0,0,-23,-28,-52,-67c0,0,27,-114,43,-162c0,0,17,-48,32,-98c0,0,12,-39,37,-61c0,0,25,-22,78,-22c0,0,19,0,48,8c0,0,29,7,48,15L818,40C818,40,744,8,688,-5c0,0,-55,-15,-98,-15Z" 
id="f5_2k"
transform="scale(0.001,-0.001)" />

<path d="M-92,-243l15,67c0,0,93,16,182,98c0,0,89,82,155,213c0,0,63,124,98,278c0,0,35,155,35,310c0,0,0,147,-49,241c0,0,-50,93,-154,114l15,65c0,0,82,-11,160,-46c0,0,78,-35,138,-98c0,0,60,-62,95,-151c0,0,36,-89,36,-208c0,0,0,-186,-64,-348C570,292,506,130,392,11C392,11,288,-97,157,-162c0,0,-131,-66,-249,-81Z" 
id="f5_d"
transform="scale(0.001,-0.001)" />

<path d="M154,212V334H952V212Zm0,309V643H952V521Z" 
id="f5_x"
transform="scale(0.001,-0.001)" />

<path d="M56,-289l-24,53c0,0,46,22,78,41c0,0,32,18,67,53c0,0,30,28,52,63c0,0,23,34,35,79H220c0,0,-69,0,-102,28c0,0,-33,27,-33,76c0,0,0,58,47,103c0,0,46,46,108,46c0,0,73,0,107,-43c0,0,34,-43,34,-112c0,0,0,-114,-94,-222c0,0,-95,-108,-231,-165Z" 
id="f5_g"
transform="scale(0.001,-0.001)" />

<path d="M457,139L645,582H300L457,139ZM393,0L37,955H171L265,684H689L803,955H926L507,0Z" 
id="f7_157"
transform="scale(0.001,-0.001)" />

<path d="M524,0c0,0,-73,0,-127,9c0,0,-54,9,-97,29c0,0,-43,20,-82,61c0,0,-38,41,-62,90c0,0,-24,49,-36,111c0,0,-12,62,-12,134c0,0,0,118,23,195c0,0,23,77,78,138c0,0,54,60,130,86c0,0,77,26,197,26H842V775H536c0,0,-74,0,-120,-8c0,0,-46,-8,-77,-27c0,0,-30,-18,-55,-51c0,0,-25,-34,-39,-83c0,0,-14,-49,-18,-111H842V392H226c0,0,4,-70,20,-123c0,0,17,-54,50,-92c0,0,33,-37,86,-55c0,0,52,-18,145,-18H842V0Z" 
id="f7_15d"
transform="scale(0.001,-0.001)" />

<path d="M665,426L600,812L358,426ZM-129,0l13,55c0,0,21,1,54,7c0,0,33,6,55,18c0,0,31,17,58,43c0,0,28,26,52,63c0,0,151,233,278,430c0,0,127,197,294,458H822c0,0,58,-335,96,-553c0,0,37,-219,66,-366c0,0,3,-22,14,-40c0,0,11,-18,35,-35c0,0,18,-12,44,-18c0,0,25,-6,48,-7L1112,0H546l12,55c0,0,77,6,120,19c0,0,43,13,43,28c0,0,0,14,-1,24c0,0,-2,9,-4,22L679,356H314c0,0,-18,-28,-46,-73c0,0,-27,-45,-45,-77c0,0,-29,-51,-34,-69c0,0,-4,-19,-4,-24c0,0,0,-22,35,-37c0,0,35,-15,107,-21L314,0Z" 
id="f5_11"
transform="scale(0.001,-0.001)" />

<path d="M229,-20c0,0,-61,0,-104,41c0,0,-44,43,-44,103c0,0,0,60,44,103c0,0,43,44,104,44c0,0,59,0,103,-44c0,0,43,-44,43,-103c0,0,0,-59,-43,-102c0,0,-44,-42,-103,-42Z" 
id="f5_i"
transform="scale(0.001,-0.001)" />

<path d="M607,-247c0,0,-78,0,-141,10c0,0,-62,11,-105,41c0,0,-43,31,-65,82c0,0,-22,51,-22,134c0,0,0,45,5,97c0,0,6,52,6,93c0,0,0,54,-16,89c0,0,-16,35,-46,57c0,0,-30,22,-74,31c0,0,-44,10,-95,14v96c0,0,52,4,97,15c0,0,45,11,72,31c0,0,33,23,47,59c0,0,15,35,15,86c0,0,0,42,-6,94c0,0,-5,51,-5,96c0,0,0,78,22,131c0,0,22,53,65,84c0,0,43,31,106,42c0,0,63,12,140,12v-62c0,0,-30,-1,-69,-7c0,0,-39,-7,-62,-20c0,0,-27,-14,-44,-47c0,0,-16,-32,-16,-88V749c0,0,0,-78,-19,-130c0,0,-19,-51,-55,-83c0,0,-34,-30,-80,-48c0,0,-47,-17,-104,-28V437c0,0,54,-10,102,-27c0,0,47,-17,82,-48c0,0,35,-31,54,-83c0,0,20,-51,20,-130V-24c0,0,0,-53,15,-86c0,0,16,-33,45,-50c0,0,27,-16,64,-21c0,0,37,-5,67,-7v-59Z" 
id="f1_2n"
transform="scale(0.001,-0.001)" />

<path d="M82,0V102c0,0,20,23,56,52c0,0,36,29,85,62c0,0,30,20,72,44c0,0,41,24,94,52c0,0,59,31,91,55c0,0,32,24,58,59c0,0,17,23,27,58c0,0,11,34,11,98c0,0,0,94,-50,137c0,0,-50,44,-128,44c0,0,-49,0,-92,-19c0,0,-43,-19,-65,-53c0,0,5,-24,13,-56c0,0,8,-33,8,-64c0,0,0,-28,-23,-50c0,0,-24,-22,-70,-22c0,0,-38,0,-58,25c0,0,-20,26,-20,69c0,0,0,41,22,81c0,0,23,41,64,75c0,0,41,34,102,54c0,0,60,21,130,21c0,0,153,0,243,-68c0,0,90,-68,90,-182c0,0,0,-54,-16,-99c0,0,-16,-45,-52,-79c0,0,-39,-38,-92,-65c0,0,-53,-27,-162,-76c0,0,-65,-29,-121,-61c0,0,-56,-31,-92,-61H781V0Z" 
id="f1_m"
transform="scale(0.001,-0.001)" />

<path d="M363,-271c0,0,-70,0,-128,18c0,0,-58,17,-100,47c0,0,-42,30,-64,69c0,0,-23,39,-23,80c0,0,0,36,18,65c0,0,18,29,57,29c0,0,45,0,69,-22c0,0,23,-21,23,-49c0,0,0,-24,-8,-60c0,0,-8,-37,-12,-53c0,0,5,-6,19,-18c0,0,14,-11,34,-20c0,0,24,-11,50,-18c0,0,26,-6,74,-6c0,0,45,0,86,15c0,0,42,15,73,47c0,0,33,35,51,80c0,0,18,46,18,120c0,0,0,40,-8,79c0,0,-9,40,-32,69c0,0,-23,29,-63,45c0,0,-40,16,-101,16H298v86h65c0,0,103,0,149,57c0,0,45,56,45,170c0,0,0,93,-44,140c0,0,-44,48,-125,48c0,0,-39,0,-64,-10c0,0,-25,-9,-40,-18c0,0,-19,-10,-31,-23c0,0,-12,-13,-18,-19c0,0,5,-23,13,-58c0,0,7,-35,7,-66c0,0,0,-27,-23,-49c0,0,-24,-22,-69,-22c0,0,-40,0,-58,28c0,0,-18,28,-18,66c0,0,0,38,22,79c0,0,21,40,64,75c0,0,42,35,103,57c0,0,62,21,141,21c0,0,92,0,152,-27c0,0,60,-27,95,-66c0,0,33,-38,46,-80c0,0,13,-41,13,-71c0,0,0,-37,-11,-75c0,0,-10,-38,-34,-70c0,0,-26,-35,-69,-64c0,0,-43,-28,-108,-46V313c0,0,42,-4,89,-19c0,0,47,-15,85,-44c0,0,40,-30,65,-78c0,0,26,-49,26,-122c0,0,0,-143,-115,-232c0,0,-115,-89,-288,-89Z" 
id="f1_n"
transform="scale(0.001,-0.001)" />

<path d="M514,165V653L112,165Zm0,-436V67H36V182L560,819h97V165H809V67H657V-271Z" 
id="f1_o"
transform="scale(0.001,-0.001)" />

<path d="M355,-271c0,0,-130,0,-221,62c0,0,-90,62,-90,144c0,0,0,38,19,65c0,0,18,28,57,28c0,0,45,0,69,-23c0,0,23,-22,23,-50c0,0,0,-24,-8,-59c0,0,-8,-36,-13,-53c0,0,6,-5,20,-14c0,0,13,-9,32,-17c0,0,19,-9,47,-15c0,0,28,-6,65,-6c0,0,48,0,90,19c0,0,43,20,72,57c0,0,32,42,48,95c0,0,16,53,16,135c0,0,0,105,-59,173c0,0,-58,69,-154,69c0,0,-59,0,-111,-22c0,0,-52,-22,-93,-75l-50,20l64,539H712V668H238L200,352c0,0,34,24,88,47c0,0,55,23,121,23c0,0,54,0,112,-16c0,0,59,-17,108,-56c0,0,49,-39,82,-100c0,0,32,-61,32,-153c0,0,0,-159,-110,-263c0,0,-109,-105,-278,-105Z" 
id="f1_p"
transform="scale(0.001,-0.001)" />

<path d="M50,-247v59c0,0,30,2,67,7c0,0,38,5,64,21c0,0,29,17,45,50c0,0,16,33,16,86V149c0,0,0,79,19,130c0,0,19,52,55,83c0,0,34,31,81,48c0,0,48,17,102,27v23c0,0,-57,11,-104,28c0,0,-46,18,-79,48c0,0,-37,32,-56,83c0,0,-18,52,-18,130V923c0,0,0,56,-17,88c0,0,-17,33,-44,47c0,0,-23,13,-62,20c0,0,-39,6,-69,7v62c0,0,77,0,140,-12c0,0,64,-11,106,-42c0,0,43,-31,65,-84c0,0,22,-53,22,-131c0,0,0,-45,-5,-96c0,0,-5,-52,-5,-94c0,0,0,-51,14,-86c0,0,15,-36,47,-59c0,0,27,-19,72,-31c0,0,45,-11,97,-15V401c0,0,-51,-4,-95,-14c0,0,-45,-10,-74,-31c0,0,-30,-22,-46,-57c0,0,-15,-35,-15,-89c0,0,0,-41,5,-93c0,0,5,-52,5,-97c0,0,0,-83,-22,-134c0,0,-22,-51,-65,-82c0,0,-42,-29,-105,-40c0,0,-63,-11,-141,-11Z" 
id="f1_2p"
transform="scale(0.001,-0.001)" />

<path d="M429,211c0,0,58,0,107,21c0,0,48,22,90,69c0,0,0,3,1,12c0,0,1,9,1,25c0,0,0,11,1,25c0,0,1,15,1,30c0,0,0,175,-57,274c0,0,-57,99,-151,99c0,0,-88,0,-143,-77c0,0,-54,-76,-54,-211c0,0,0,-121,55,-194c0,0,56,-73,149,-73ZM202,-275l-13,68l67,12c0,0,160,50,251,155c0,0,90,104,116,266c0,0,-61,-52,-122,-77c0,0,-61,-24,-137,-24c0,0,-122,0,-212,95c0,0,-89,94,-89,238c0,0,0,155,104,260c0,0,104,106,257,106c0,0,166,0,265,-118c0,0,99,-119,99,-321c0,0,0,-130,-41,-245C747,140,706,26,629,-59c0,0,-75,-85,-184,-142c0,0,-109,-56,-243,-74Z" 
id="f1_t"
transform="scale(0.001,-0.001)" />

<path d="M143,-271L642,676H350c0,0,-65,0,-101,-2c0,0,-37,-1,-67,-14c0,0,-23,-10,-42,-50c0,0,-18,-40,-28,-102H66V801H768V752L236,-271Z" 
id="f1_r"
transform="scale(0.001,-0.001)" />

<path d="M101,0V53c0,0,22,1,69,6c0,0,48,5,66,10c0,0,23,8,35,24c0,0,13,17,13,51V668H98v62h41c0,0,81,0,144,30c0,0,64,30,92,64h62c0,0,-2,-48,-4,-113c0,0,-3,-65,-3,-117V152c0,0,0,-26,12,-47c0,0,11,-20,33,-30c0,0,19,-8,64,-15c0,0,44,-6,65,-7V0Z" 
id="f1_l"
transform="scale(0.001,-0.001)" />

<path d="M535,62c0,0,95,0,166,33c0,0,70,34,114,93c0,0,46,63,68,145c0,0,21,82,21,191c0,0,0,106,-28,192c0,0,-29,86,-83,150c0,0,-51,61,-126,96c0,0,-75,35,-167,35c0,0,-30,0,-69,-1c0,0,-38,-1,-57,-2V182c0,0,0,-68,40,-94c0,0,39,-26,121,-26ZM70,0V53c0,0,22,0,57,4c0,0,34,4,46,9c0,0,22,10,32,29c0,0,10,19,10,46V905c0,0,0,26,-8,46c0,0,-9,20,-34,32c0,0,-24,11,-50,16c0,0,-27,6,-47,7v53H539c0,0,95,0,187,-30c0,0,93,-29,162,-79c0,0,93,-66,146,-174c0,0,53,-107,53,-253c0,0,0,-135,-51,-234c0,0,-51,-99,-132,-163c0,0,-82,-63,-184,-95C720,31,618,0,509,0Z" 
id="f1_14"
transform="scale(0.001,-0.001)" />

<path d="M523,-243c0,0,-204,25,-320,205C203,-38,87,140,87,445c0,0,0,309,116,490c0,0,116,181,320,208v-62c0,0,-144,-26,-218,-182c0,0,-75,-157,-75,-455c0,0,0,-284,73,-442c0,0,73,-157,220,-184v-61Z" 
id="f1_c"
transform="scale(0.001,-0.001)" />

<path d="M50,-243v61c0,0,147,27,220,184c0,0,73,158,73,442c0,0,0,298,-75,455c0,0,-74,156,-218,182v62c0,0,204,-27,320,-208c0,0,116,-181,116,-490c0,0,0,-305,-116,-483c0,0,-116,-180,-320,-205Z" 
id="f1_d"
transform="scale(0.001,-0.001)" />

<path d="M65,0V53c0,0,22,1,59,5c0,0,37,3,49,8c0,0,22,10,32,29c0,0,10,19,10,46V905c0,0,0,25,-8,44c0,0,-8,19,-34,31c0,0,-21,10,-54,17c0,0,-34,8,-54,9v53H895V794H839c0,0,-16,59,-65,126c0,0,-50,68,-95,74c0,0,-23,3,-55,5c0,0,-32,1,-72,1H374V575H496c0,0,55,0,86,11c0,0,31,12,52,36c0,0,15,16,28,51c0,0,12,35,16,74h55V330H678c0,0,-3,33,-16,75c0,0,-13,42,-28,61c0,0,-22,27,-56,37c0,0,-34,10,-82,10H374V149c0,0,0,-25,10,-44c0,0,10,-19,35,-31c0,0,11,-6,48,-13c0,0,38,-7,57,-8V0Z" 
id="f1_16"
transform="scale(0.001,-0.001)" />

<path d="M437,-20c0,0,-71,0,-142,20c0,0,-71,22,-122,53L141,0H81L70,362h61c0,0,19,-67,44,-122c0,0,25,-54,66,-101c0,0,38,-44,90,-70c0,0,52,-26,121,-26c0,0,51,0,90,13c0,0,38,14,62,39c0,0,24,24,35,57c0,0,12,34,12,77c0,0,0,64,-36,118c0,0,-36,55,-107,84c0,0,-48,19,-111,43c0,0,-62,23,-108,44c0,0,-89,40,-139,106c0,0,-49,65,-49,170c0,0,0,60,24,113c0,0,25,52,70,93c0,0,44,38,103,60c0,0,58,22,123,22c0,0,73,0,130,-22c0,0,58,-22,106,-52l30,51h60l6,-351H692c0,0,-16,60,-37,115c0,0,-20,56,-53,100c0,0,-32,43,-78,69c0,0,-46,26,-113,26c0,0,-71,0,-121,-46c0,0,-49,-45,-49,-111c0,0,0,-69,32,-114c0,0,32,-45,93,-74c0,0,54,-26,106,-45c0,0,53,-19,102,-41c0,0,45,-19,86,-44c0,0,41,-25,72,-57c0,0,33,-38,50,-82c0,0,16,-44,16,-103c0,0,0,-141,-104,-232c0,0,-104,-89,-257,-89Z" 
id="f1_1j"
transform="scale(0.001,-0.001)" />

<path d="M129,331V773H571V331Z" 
id="f8_3o"
transform="scale(0.001,-0.001)" />

<path d="M59,0V53c0,0,20,1,58,4c0,0,38,3,54,9c0,0,25,10,36,27c0,0,11,17,11,46V907c0,0,0,26,-8,44c0,0,-8,17,-39,29c0,0,-23,9,-57,17c0,0,-34,8,-55,9v53H537v-53c0,0,-23,-1,-56,-5c0,0,-32,-5,-56,-13c0,0,-28,-9,-38,-29c0,0,-10,-20,-10,-45V148c0,0,0,-25,11,-44c0,0,11,-19,37,-30c0,0,16,-6,52,-13c0,0,35,-7,60,-8V0Z" 
id="f1_19"
transform="scale(0.001,-0.001)" />

<path d="M54,0V49c0,0,17,1,35,3c0,0,19,1,32,6c0,0,21,7,31,23c0,0,10,17,10,44V579c0,0,0,23,-11,45c0,0,-10,23,-30,36c0,0,-14,9,-33,13c0,0,-20,4,-42,6v48l245,17l10,-10V630h4c0,0,46,60,103,92c0,0,56,31,103,31c0,0,47,0,77,-31c0,0,29,-30,29,-82c0,0,0,-38,-19,-67c0,0,-18,-29,-57,-29c0,0,-42,0,-64,21c0,0,-22,22,-22,48c0,0,0,16,2,30c0,0,3,13,5,27c0,0,-35,0,-81,-29c0,0,-47,-28,-80,-80V132c0,0,0,-26,10,-42c0,0,10,-17,32,-25c0,0,18,-7,48,-11c0,0,29,-4,51,-5V0Z" 
id="f1_2e"
transform="scale(0.001,-0.001)" />


</defs>
</svg>