<?xml version="1.0" encoding="UTF-8" standalone="no"?>
<!DOCTYPE svg PUBLIC "-//W3C//DTD SVG 1.1//EN"
"http://www.w3.org/Graphics/SVG/1.1/DTD/svg11.dtd">
<svg viewBox="0 0 909 1286" version="1.1" xmlns="http://www.w3.org/2000/svg" xmlns:xlink="http://www.w3.org/1999/xlink">
<defs>
<clipPath id="c0_20"><path d="M633.8,333.5V304.7H754.3v28.8Z" /></clipPath>
<style type="text/css"><![CDATA[
.g0_20{
}
]]></style>
</defs>
<g fill="#000000" >
<use xlink:href="#f0_1j" transform="matrix(12,0,0,12,165.1,115.2)" />
<use xlink:href="#f0_25" transform="matrix(12,0,0,12,174.6,115.2)" />
<use xlink:href="#f0_2a" transform="matrix(12,0,0,12,180.1,115.2)" />
<use xlink:href="#f0_1z" transform="matrix(12,0,0,12,190.8,115.2)" />
<use xlink:href="#f0_21" transform="matrix(12,0,0,12,198.8,115.2)" />
<use xlink:href="#f0_12" transform="matrix(12,0,0,12,212.3,115.2)" />
<use xlink:href="#f0_25" transform="matrix(12,0,0,12,228.1,115.2)" />
<use xlink:href="#f0_2f" transform="matrix(12,0,0,12,233.6,115.2)" />
<use xlink:href="#f0_2g" transform="matrix(12,0,0,12,246,115.2)" />
<use xlink:href="#f0_24" transform="matrix(12,0,0,12,251.9,115.2)" />
<use xlink:href="#f0_21" transform="matrix(12,0,0,12,262.6,115.2)" />
<use xlink:href="#f0_25" transform="matrix(12,0,0,12,275.7,115.2)" />
<use xlink:href="#f0_2a" transform="matrix(12,0,0,12,281.2,115.2)" />
<use xlink:href="#f0_2i" transform="matrix(12,0,0,12,291.9,115.2)" />
<use xlink:href="#f0_21" transform="matrix(12,0,0,12,302.1,115.2)" />
<use xlink:href="#f0_2e" transform="matrix(12,0,0,12,310.9,115.2)" />
<use xlink:href="#f0_2f" transform="matrix(12,0,0,12,318.2,115.2)" />
<use xlink:href="#f0_21" transform="matrix(12,0,0,12,325.9,115.2)" />
<use xlink:href="#f0_2b" transform="matrix(12,0,0,12,339.5,115.2)" />
<use xlink:href="#f0_22" transform="matrix(12,0,0,12,349.4,115.2)" />
<use xlink:href="#f0_11" transform="matrix(12,0,0,12,360,115.2)" />
<use xlink:href="#f0_11" transform="matrix(12,0,0,12,165.1,152.2)" />
<use xlink:href="#f0_12" transform="matrix(12,0,0,12,179.3,152.2)" />
<use xlink:href="#f0_x" transform="matrix(12,0,0,12,195.5,152.2)" />
<use xlink:href="#f0_12" transform="matrix(12,0,0,12,210.9,152.2)" />
<use xlink:href="#f0_11" transform="matrix(12,0,0,12,222.2,152.2)" />
<use xlink:href="#f0_x" transform="matrix(12,0,0,12,241.3,152.2)" />
<use xlink:href="#f0_19" transform="matrix(12,0,0,12,256.7,152.2)" />
<use xlink:href="#f0_i" transform="matrix(12,0,0,12,267.3,152.2)" />
<use xlink:href="#f0_i" transform="matrix(12,0,0,12,272,152.2)" />
<use xlink:href="#f0_i" transform="matrix(12,0,0,12,276.4,152.2)" />
<use xlink:href="#f0_c" transform="matrix(12,0,0,12,285.6,152.2)" />
<use xlink:href="#f0_l" transform="matrix(12,0,0,12,291.8,152.2)" />
<use xlink:href="#f0_d" transform="matrix(12,0,0,12,301,152.2)" />
<use xlink:href="#f0_1j" transform="matrix(12,0,0,12,165.1,176.8)" />
<use xlink:href="#f0_25" transform="matrix(12,0,0,12,174.6,176.8)" />
<use xlink:href="#f0_2a" transform="matrix(12,0,0,12,180.1,176.8)" />
<use xlink:href="#f0_1z" transform="matrix(12,0,0,12,190.8,176.8)" />
<use xlink:href="#f0_21" transform="matrix(12,0,0,12,198.8,176.8)" />
<use xlink:href="#f0_13" transform="matrix(12,0,0,12,212.3,176.8)" />
<use xlink:href="#f0_25" transform="matrix(12,0,0,12,229.9,176.8)" />
<use xlink:href="#f0_2f" transform="matrix(12,0,0,12,235.4,176.8)" />
<use xlink:href="#f0_1x" transform="matrix(12,0,0,12,247.9,176.8)" />
<use xlink:href="#f0_28" transform="matrix(12,0,0,12,256.7,176.8)" />
<use xlink:href="#f0_2f" transform="matrix(12,0,0,12,262.1,176.8)" />
<use xlink:href="#f0_2b" transform="matrix(12,0,0,12,269.8,176.8)" />
<use xlink:href="#f0_2g" transform="matrix(12,0,0,12,284.5,176.8)" />
<use xlink:href="#f0_24" transform="matrix(12,0,0,12,290.3,176.8)" />
<use xlink:href="#f0_21" transform="matrix(12,0,0,12,301,176.8)" />
<use xlink:href="#f0_25" transform="matrix(12,0,0,12,314.5,176.8)" />
<use xlink:href="#f0_2a" transform="matrix(12,0,0,12,320,176.8)" />
<use xlink:href="#f0_2i" transform="matrix(12,0,0,12,330.7,176.8)" />
<use xlink:href="#f0_21" transform="matrix(12,0,0,12,340.9,176.8)" />
<use xlink:href="#f0_2e" transform="matrix(12,0,0,12,349.7,176.8)" />
<use xlink:href="#f0_2f" transform="matrix(12,0,0,12,357,176.8)" />
<use xlink:href="#f0_21" transform="matrix(12,0,0,12,364.7,176.8)" />
<use xlink:href="#f0_2b" transform="matrix(12,0,0,12,377.9,176.8)" />
<use xlink:href="#f0_22" transform="matrix(12,0,0,12,387.8,176.8)" />
<use xlink:href="#f0_11" transform="matrix(12,0,0,12,398.8,176.8)" />
<use xlink:href="#f0_11" transform="matrix(12,0,0,12,165.1,201.3)" />
<use xlink:href="#f0_13" transform="matrix(12,0,0,12,179.3,201.3)" />
<use xlink:href="#f0_x" transform="matrix(12,0,0,12,197,201.3)" />
<use xlink:href="#f0_13" transform="matrix(12,0,0,12,212.7,201.3)" />
<use xlink:href="#f0_11" transform="matrix(12,0,0,12,225.5,201.3)" />
<use xlink:href="#f0_x" transform="matrix(12,0,0,12,244.6,201.3)" />
<use xlink:href="#f0_19" transform="matrix(12,0,0,12,260.3,201.3)" />
<use xlink:href="#f0_i" transform="matrix(12,0,0,12,271,201.3)" />
<use xlink:href="#f0_i" transform="matrix(12,0,0,12,275.7,201.3)" />
<use xlink:href="#f0_i" transform="matrix(12,0,0,12,280.1,201.3)" />
<use xlink:href="#f0_c" transform="matrix(12,0,0,12,289.3,201.3)" />
<use xlink:href="#f0_m" transform="matrix(12,0,0,12,295.5,201.3)" />
<use xlink:href="#f0_d" transform="matrix(12,0,0,12,304.6,201.3)" />
<use xlink:href="#f0_1k" transform="matrix(12,0,0,12,165.1,225.9)" />
<use xlink:href="#f0_24" transform="matrix(12,0,0,12,176.4,225.9)" />
<use xlink:href="#f0_2h" transform="matrix(12,0,0,12,187.1,225.9)" />
<use xlink:href="#f0_2f" transform="matrix(12,0,0,12,198.1,225.9)" />
<use xlink:href="#f0_12" transform="matrix(12,0,0,12,210.5,225.9)" />
<use xlink:href="#f0_x" transform="matrix(12,0,0,12,226.6,225.9)" />
<use xlink:href="#f0_12" transform="matrix(12,0,0,12,242,225.9)" />
<use xlink:href="#f0_19" transform="matrix(12,0,0,12,253.3,225.9)" />
<use xlink:href="#f0_x" transform="matrix(12,0,0,12,263.9,225.9)" />
<use xlink:href="#f0_12" transform="matrix(12,0,0,12,279.7,225.9)" />
<use xlink:href="#f0_c" transform="matrix(12,0,0,12,295.4,225.9)" />
<use xlink:href="#f0_11" transform="matrix(12,0,0,12,301.7,225.9)" />
<use xlink:href="#f0_13" transform="matrix(12,0,0,12,315.9,225.9)" />
<use xlink:href="#f0_d" transform="matrix(12,0,0,12,328.8,225.9)" />
<use xlink:href="#f0_x" transform="matrix(12,0,0,12,339.4,225.9)" />
<use xlink:href="#f0_c" transform="matrix(12,0,0,12,355.2,225.9)" />
<use xlink:href="#f0_12" transform="matrix(12,0,0,12,361,225.9)" />
<use xlink:href="#f0_11" transform="matrix(12,0,0,12,372.4,225.9)" />
<use xlink:href="#f0_d" transform="matrix(12,0,0,12,386.6,225.9)" />
<use xlink:href="#f0_13" transform="matrix(12,0,0,12,397.3,225.9)" />
<use xlink:href="#f0_x" transform="matrix(12,0,0,12,414.9,225.9)" />
<use xlink:href="#f0_19" transform="matrix(12,0,0,12,430.6,225.9)" />
<use xlink:href="#f0_13" transform="matrix(12,0,0,12,436.8,225.9)" />
<use xlink:href="#f0_x" transform="matrix(12,0,0,12,454.4,225.9)" />
<use xlink:href="#f0_13" transform="matrix(12,0,0,12,470.2,225.9)" />
</g>
<g fill="#C00000" >
<use xlink:href="#f1_1k" transform="matrix(12,0,0,12,55,286.8)" />
<use xlink:href="#f1_24" transform="matrix(12,0,0,12,67.1,286.8)" />
<use xlink:href="#f1_21" transform="matrix(12,0,0,12,78.5,286.8)" />
<use xlink:href="#f1_2b" transform="matrix(12,0,0,12,87.7,286.8)" />
<use xlink:href="#f1_2e" transform="matrix(12,0,0,12,97.9,286.8)" />
<use xlink:href="#f1_21" transform="matrix(12,0,0,12,104.9,286.8)" />
<use xlink:href="#f1_29" transform="matrix(12,0,0,12,114,286.8)" />
<use xlink:href="#f1_o" transform="matrix(12,0,0,12,134.9,286.8)" />
</g>
<g fill="#000000" >
<use xlink:href="#f2_2b" transform="matrix(12,0,0,12,137.5,325.7)" />
<use xlink:href="#f0_19" transform="matrix(12,0,0,12,169.8,325.7)" />
<use xlink:href="#f0_22" transform="matrix(12,0,0,12,176,325.7)" />
<use xlink:href="#f0_11" transform="matrix(12,0,0,12,186.7,325.7)" />
<use xlink:href="#f0_1x" transform="matrix(12,0,0,12,205.7,325.7)" />
<use xlink:href="#f0_2a" transform="matrix(12,0,0,12,214.9,325.7)" />
<use xlink:href="#f0_20" transform="matrix(12,0,0,12,225.6,325.7)" />
<use xlink:href="#f0_12" transform="matrix(12,0,0,12,241.3,325.7)" />
<use xlink:href="#f0_1x" transform="matrix(12,0,0,12,257,325.7)" />
<use xlink:href="#f0_2e" transform="matrix(12,0,0,12,266.2,325.7)" />
<use xlink:href="#f0_21" transform="matrix(12,0,0,12,273.5,325.7)" />
<use xlink:href="#f0_25" transform="matrix(12,0,0,12,286.7,325.7)" />
<use xlink:href="#f0_2a" transform="matrix(12,0,0,12,292.2,325.7)" />
<use xlink:href="#f0_2i" transform="matrix(12,0,0,12,302.9,325.7)" />
<use xlink:href="#f0_21" transform="matrix(12,0,0,12,313.1,325.7)" />
<use xlink:href="#f0_2e" transform="matrix(12,0,0,12,321.9,325.7)" />
<use xlink:href="#f0_2g" transform="matrix(12,0,0,12,329.4,325.7)" />
<use xlink:href="#f0_25" transform="matrix(12,0,0,12,335.2,325.7)" />
<use xlink:href="#f0_1y" transform="matrix(12,0,0,12,340.4,325.7)" />
<use xlink:href="#f0_28" transform="matrix(12,0,0,12,350.6,325.7)" />
<use xlink:href="#f0_21" transform="matrix(12,0,0,12,356.1,325.7)" />
<use xlink:href="#f0_29" transform="matrix(12,0,0,12,369.3,325.7)" />
<use xlink:href="#f0_1x" transform="matrix(12,0,0,12,385.4,325.7)" />
<use xlink:href="#f0_2g" transform="matrix(12,0,0,12,394.6,325.7)" />
<use xlink:href="#f0_2e" transform="matrix(12,0,0,12,400.5,325.7)" />
<use xlink:href="#f0_25" transform="matrix(12,0,0,12,407.8,325.7)" />
<use xlink:href="#f0_1z" transform="matrix(12,0,0,12,413.2,325.7)" />
<use xlink:href="#f0_21" transform="matrix(12,0,0,12,421.3,325.7)" />
<use xlink:href="#f0_2f" transform="matrix(12,0,0,12,430.1,325.7)" />
<use xlink:href="#f0_2b" transform="matrix(12,0,0,12,442.6,325.7)" />
<use xlink:href="#f0_22" transform="matrix(12,0,0,12,452.5,325.7)" />
<use xlink:href="#f0_2g" transform="matrix(12,0,0,12,463.1,325.7)" />
<use xlink:href="#f0_24" transform="matrix(12,0,0,12,468.9,325.7)" />
<use xlink:href="#f0_21" transform="matrix(12,0,0,12,479.6,325.7)" />
<use xlink:href="#f0_2f" transform="matrix(12,0,0,12,493.1,325.7)" />
<use xlink:href="#f0_1x" transform="matrix(12,0,0,12,500.8,325.7)" />
<use xlink:href="#f0_29" transform="matrix(12,0,0,12,510,325.7)" />
<use xlink:href="#f0_21" transform="matrix(12,0,0,12,526.1,325.7)" />
<use xlink:href="#f0_2b" transform="matrix(12,0,0,12,539.3,325.7)" />
<use xlink:href="#f0_2e" transform="matrix(12,0,0,12,549.2,325.7)" />
<use xlink:href="#f0_20" transform="matrix(12,0,0,12,556.5,325.7)" />
<use xlink:href="#f0_21" transform="matrix(12,0,0,12,567.9,325.7)" />
<use xlink:href="#f0_2e" transform="matrix(12,0,0,12,576.7,325.7)" />
<use xlink:href="#f0_g" transform="matrix(12,0,0,12,584,325.7)" />
<use xlink:href="#f0_2g" transform="matrix(12,0,0,12,593.2,325.7)" />
<use xlink:href="#f0_24" transform="matrix(12,0,0,12,599,325.7)" />
<use xlink:href="#f0_21" transform="matrix(12,0,0,12,609.7,325.7)" />
<use xlink:href="#f0_2a" transform="matrix(12,0,0,12,618.5,325.7)" />
</g>
<g clip-path="url(#c0_20)">
<g fill="#000000" >
<use xlink:href="#f3_l" transform="matrix(7.5,0,0,7.1,680,317.7)" />
<use xlink:href="#f3_l" transform="matrix(7.5,0,0,7.1,720.8,317.7)" />
<use xlink:href="#f3_l" transform="matrix(7.5,0,0,7.1,745.9,317.7)" />
<use xlink:href="#f3_c" transform="matrix(12.9,0,0,12.3,636.2,326)" />
<use xlink:href="#f3_11" transform="matrix(12.9,0,0,12.3,642.8,326)" />
<use xlink:href="#f3_12" transform="matrix(12.9,0,0,12.3,655.6,326)" />
<use xlink:href="#f3_d" transform="matrix(12.9,0,0,12.3,667.6,326)" />
<use xlink:href="#f3_12" transform="matrix(12.9,0,0,12.3,702.7,326)" />
<use xlink:href="#f3_11" transform="matrix(12.9,0,0,12.3,726,326)" />
<use xlink:href="#f4_h" transform="matrix(7.5,0,0,7.1,674.3,317.7)" />
<use xlink:href="#f4_h" transform="matrix(7.5,0,0,7.1,715.1,317.7)" />
<use xlink:href="#f4_h" transform="matrix(7.5,0,0,7.1,740.1,317.7)" />
<use xlink:href="#f4_x" transform="matrix(12.9,0,0,12.3,690.5,326)" />
</g>
</g>
<g fill="#000000" >
<use xlink:href="#f0_i" transform="matrix(12,0,0,12,754.2,325.7)" />
<use xlink:href="#f2_2b" transform="matrix(12,0,0,12,137.5,352.5)" />
<use xlink:href="#f1_1g" transform="matrix(12,0,0,12,165.1,352.5)" />
<use xlink:href="#f1_2e" transform="matrix(12,0,0,12,176.4,352.5)" />
<use xlink:href="#f1_2b" transform="matrix(12,0,0,12,183.4,352.5)" />
<use xlink:href="#f1_2b" transform="matrix(12,0,0,12,193.6,352.5)" />
<use xlink:href="#f1_22" transform="matrix(12,0,0,12,203.9,352.5)" />
<use xlink:href="#f1_u" transform="matrix(12,0,0,12,215.7,352.5)" />
<use xlink:href="#f0_16" transform="matrix(12,0,0,12,165.1,376.7)" />
<use xlink:href="#f0_2e" transform="matrix(12,0,0,12,175.3,376.7)" />
<use xlink:href="#f0_2b" transform="matrix(12,0,0,12,182.6,376.7)" />
<use xlink:href="#f0_29" transform="matrix(12,0,0,12,192.5,376.7)" />
<use xlink:href="#f0_2g" transform="matrix(12,0,0,12,213.4,376.7)" />
<use xlink:href="#f0_24" transform="matrix(12,0,0,12,219.3,376.7)" />
<use xlink:href="#f0_21" transform="matrix(12,0,0,12,230,376.7)" />
<use xlink:href="#f0_20" transform="matrix(12,0,0,12,243.5,376.7)" />
<use xlink:href="#f0_21" transform="matrix(12,0,0,12,254.8,376.7)" />
<use xlink:href="#f0_22" transform="matrix(12,0,0,12,263.3,376.7)" />
<use xlink:href="#f0_25" transform="matrix(12,0,0,12,269.5,376.7)" />
<use xlink:href="#f0_2a" transform="matrix(12,0,0,12,274.9,376.7)" />
<use xlink:href="#f0_25" transform="matrix(12,0,0,12,285.6,376.7)" />
<use xlink:href="#f0_2g" transform="matrix(12,0,0,12,291.1,376.7)" />
<use xlink:href="#f0_25" transform="matrix(12,0,0,12,296.9,376.7)" />
<use xlink:href="#f0_2b" transform="matrix(12,0,0,12,302.4,376.7)" />
<use xlink:href="#f0_2a" transform="matrix(12,0,0,12,312.3,376.7)" />
<use xlink:href="#f0_2b" transform="matrix(12,0,0,12,327.3,376.7)" />
<use xlink:href="#f0_22" transform="matrix(12,0,0,12,337.2,376.7)" />
<use xlink:href="#f0_25" transform="matrix(12,0,0,12,347.8,376.7)" />
<use xlink:href="#f0_2a" transform="matrix(12,0,0,12,353.3,376.7)" />
<use xlink:href="#f0_2i" transform="matrix(12,0,0,12,364,376.7)" />
<use xlink:href="#f0_21" transform="matrix(12,0,0,12,374.2,376.7)" />
<use xlink:href="#f0_2e" transform="matrix(12,0,0,12,383,376.7)" />
<use xlink:href="#f0_2f" transform="matrix(12,0,0,12,390.3,376.7)" />
<use xlink:href="#f0_21" transform="matrix(12,0,0,12,398,376.7)" />
<use xlink:href="#f0_2b" transform="matrix(12,0,0,12,411.6,376.7)" />
<use xlink:href="#f0_22" transform="matrix(12,0,0,12,421.5,376.7)" />
<use xlink:href="#f0_1x" transform="matrix(12,0,0,12,432.1,376.7)" />
<use xlink:href="#f0_29" transform="matrix(12,0,0,12,446,376.7)" />
<use xlink:href="#f0_1x" transform="matrix(12,0,0,12,462.1,376.7)" />
<use xlink:href="#f0_2g" transform="matrix(12,0,0,12,471.3,376.7)" />
<use xlink:href="#f0_2e" transform="matrix(12,0,0,12,477.2,376.7)" />
<use xlink:href="#f0_25" transform="matrix(12,0,0,12,484.5,376.7)" />
<use xlink:href="#f0_2k" transform="matrix(12,0,0,12,490,376.7)" />
<use xlink:href="#f0_g" transform="matrix(12,0,0,12,499.1,376.7)" />
<use xlink:href="#f0_2j" transform="matrix(12,0,0,12,508.3,376.7)" />
<use xlink:href="#f0_21" transform="matrix(12,0,0,12,523.7,376.7)" />
<use xlink:href="#f0_24" transform="matrix(12,0,0,12,536.9,376.7)" />
<use xlink:href="#f0_1x" transform="matrix(12,0,0,12,547.5,376.7)" />
<use xlink:href="#f0_2i" transform="matrix(12,0,0,12,556.7,376.7)" />
<use xlink:href="#f0_21" transform="matrix(12,0,0,12,566.9,376.7)" />
<use xlink:href="#f0_c" transform="matrix(12,0,0,12,165.1,401.2)" />
<use xlink:href="#f0_11" transform="matrix(12,0,0,12,171.3,401.2)" />
<use xlink:href="#f0_12" transform="matrix(12,0,0,12,185.6,401.2)" />
<use xlink:href="#f0_d" transform="matrix(12,0,0,12,196.9,401.2)" />
<use xlink:href="#f0_c" transform="matrix(12,0,0,12,207.6,401.2)" />
<use xlink:href="#f0_11" transform="matrix(12,0,0,12,213.8,401.2)" />
<use xlink:href="#f0_12" transform="matrix(12,0,0,12,227.7,401.2)" />
<use xlink:href="#f0_d" transform="matrix(12,0,0,12,239.1,401.2)" />
<use xlink:href="#f0_h" transform="matrix(7.9,0,0,7.9,245.4,396.5)" />
<use xlink:href="#f0_l" transform="matrix(7.9,0,0,7.9,249.4,396.5)" />
<use xlink:href="#f0_x" transform="matrix(12,0,0,12,255.7,401.2)" />
<use xlink:href="#f0_l" transform="matrix(12,0,0,12,271.1,401.2)" />
<use xlink:href="#f0_11" transform="matrix(12,0,0,12,165.1,425.8)" />
<use xlink:href="#f0_h" transform="matrix(7.9,0,0,7.9,179.4,421)" />
<use xlink:href="#f0_l" transform="matrix(7.9,0,0,7.9,183.4,421)" />
<use xlink:href="#f0_c" transform="matrix(12,0,0,12,194.4,425.8)" />
<use xlink:href="#f0_11" transform="matrix(12,0,0,12,200.6,425.8)" />
<use xlink:href="#f0_12" transform="matrix(12,0,0,12,214.6,425.8)" />
<use xlink:href="#f0_d" transform="matrix(12,0,0,12,225.9,425.8)" />
<use xlink:href="#f0_c" transform="matrix(12,0,0,12,236.5,425.8)" />
<use xlink:href="#f0_11" transform="matrix(12,0,0,12,242.7,425.8)" />
<use xlink:href="#f0_12" transform="matrix(12,0,0,12,256.7,425.8)" />
<use xlink:href="#f0_d" transform="matrix(12,0,0,12,268,425.8)" />
<use xlink:href="#f0_h" transform="matrix(7.9,0,0,7.9,277.3,421)" />
<use xlink:href="#f0_l" transform="matrix(7.9,0,0,7.9,281.3,421)" />
<use xlink:href="#f0_x" transform="matrix(12,0,0,12,296.7,425.8)" />
<use xlink:href="#f0_11" transform="matrix(12,0,0,12,312.5,425.8)" />
<use xlink:href="#f0_h" transform="matrix(7.9,0,0,7.9,326.8,421)" />
<use xlink:href="#f0_l" transform="matrix(7.9,0,0,7.9,330.8,421)" />
<use xlink:href="#f0_19" transform="matrix(12,0,0,12,341.5,425.8)" />
<use xlink:href="#f0_c" transform="matrix(12,0,0,12,352.1,425.8)" />
<use xlink:href="#f0_1g" transform="matrix(12,0,0,12,358.3,425.8)" />
<use xlink:href="#f0_2e" transform="matrix(12,0,0,12,369.4,425.8)" />
<use xlink:href="#f0_21" transform="matrix(12,0,0,12,376.7,425.8)" />
<use xlink:href="#f0_29" transform="matrix(12,0,0,12,389.9,425.8)" />
<use xlink:href="#f0_2h" transform="matrix(12,0,0,12,406,425.8)" />
<use xlink:href="#f0_28" transform="matrix(12,0,0,12,417.1,425.8)" />
<use xlink:href="#f0_2g" transform="matrix(12,0,0,12,422.5,425.8)" />
<use xlink:href="#f0_25" transform="matrix(12,0,0,12,428.4,425.8)" />
<use xlink:href="#f0_2c" transform="matrix(12,0,0,12,433.8,425.8)" />
<use xlink:href="#f0_28" transform="matrix(12,0,0,12,444.9,425.8)" />
<use xlink:href="#f0_2l" transform="matrix(12,0,0,12,450.3,425.8)" />
<use xlink:href="#f0_25" transform="matrix(12,0,0,12,460.2,425.8)" />
<use xlink:href="#f0_2a" transform="matrix(12,0,0,12,465.7,425.8)" />
<use xlink:href="#f0_23" transform="matrix(12,0,0,12,476.4,425.8)" />
<use xlink:href="#f0_1y" transform="matrix(12,0,0,12,491,425.8)" />
<use xlink:href="#f0_2b" transform="matrix(12,0,0,12,501.3,425.8)" />
<use xlink:href="#f0_2g" transform="matrix(12,0,0,12,511.2,425.8)" />
<use xlink:href="#f0_24" transform="matrix(12,0,0,12,517,425.8)" />
<use xlink:href="#f0_2f" transform="matrix(12,0,0,12,532.4,425.8)" />
<use xlink:href="#f0_25" transform="matrix(12,0,0,12,540.1,425.8)" />
<use xlink:href="#f0_20" transform="matrix(12,0,0,12,545.6,425.8)" />
<use xlink:href="#f0_21" transform="matrix(12,0,0,12,556.9,425.8)" />
<use xlink:href="#f0_2f" transform="matrix(12,0,0,12,565.7,425.8)" />
<use xlink:href="#f0_1y" transform="matrix(12,0,0,12,577.8,425.8)" />
<use xlink:href="#f0_2l" transform="matrix(12,0,0,12,588.1,425.8)" />
<use xlink:href="#f0_11" transform="matrix(12,0,0,12,603.1,425.8)" />
<use xlink:href="#f0_h" transform="matrix(7.9,0,0,7.9,617.7,421)" />
<use xlink:href="#f0_l" transform="matrix(7.9,0,0,7.9,621.3,421)" />
<use xlink:href="#f0_d" transform="matrix(12,0,0,12,627.6,425.8)" />
<use xlink:href="#f5_13x" transform="matrix(12,0,0,12,165.1,462.5)" />
<use xlink:href="#f0_c" transform="matrix(12,0,0,12,184.9,462.5)" />
<use xlink:href="#f0_11" transform="matrix(12,0,0,12,191.1,462.5)" />
<use xlink:href="#f0_h" transform="matrix(7.9,0,0,7.9,205.4,457.7)" />
<use xlink:href="#f0_l" transform="matrix(7.9,0,0,7.9,209.4,457.7)" />
<use xlink:href="#f0_11" transform="matrix(12,0,0,12,220.4,462.5)" />
<use xlink:href="#f0_d" transform="matrix(12,0,0,12,234.4,462.5)" />
<use xlink:href="#f0_12" transform="matrix(12,0,0,12,245,462.5)" />
<use xlink:href="#f0_c" transform="matrix(12,0,0,12,261.2,462.5)" />
<use xlink:href="#f0_11" transform="matrix(12,0,0,12,267,462.5)" />
<use xlink:href="#f0_12" transform="matrix(12,0,0,12,281.3,462.5)" />
<use xlink:href="#f0_d" transform="matrix(12,0,0,12,292.7,462.5)" />
<use xlink:href="#f0_h" transform="matrix(7.9,0,0,7.9,301.9,457.7)" />
<use xlink:href="#f0_l" transform="matrix(7.9,0,0,7.9,305.9,457.7)" />
<use xlink:href="#f0_x" transform="matrix(12,0,0,12,321.3,462.5)" />
<use xlink:href="#f0_11" transform="matrix(12,0,0,12,336.7,462.5)" />
<use xlink:href="#f6_4z" transform="matrix(12,0,0,12,355.8,462.5)" />
<use xlink:href="#f0_l" transform="matrix(12,0,0,12,365,462.5)" />
<use xlink:href="#f0_c" transform="matrix(12,0,0,12,378.5,462.5)" />
<use xlink:href="#f0_1j" transform="matrix(12,0,0,12,384.7,462.5)" />
<use xlink:href="#f0_25" transform="matrix(12,0,0,12,394.3,462.5)" />
<use xlink:href="#f0_2a" transform="matrix(12,0,0,12,399.8,462.5)" />
<use xlink:href="#f0_1z" transform="matrix(12,0,0,12,410.4,462.5)" />
<use xlink:href="#f0_21" transform="matrix(12,0,0,12,418.5,462.5)" />
<use xlink:href="#f0_11" transform="matrix(12,0,0,12,431.7,462.5)" />
<use xlink:href="#f0_h" transform="matrix(7.9,0,0,7.9,446.1,457.7)" />
<use xlink:href="#f0_l" transform="matrix(7.9,0,0,7.9,450.1,457.7)" />
<use xlink:href="#f0_19" transform="matrix(12,0,0,12,465.5,462.5)" />
<use xlink:href="#f0_x" transform="matrix(12,0,0,12,476.1,462.5)" />
<use xlink:href="#f0_11" transform="matrix(12,0,0,12,491.8,462.5)" />
<use xlink:href="#f0_h" transform="matrix(7.9,0,0,7.9,506.2,457.7)" />
<use xlink:href="#f0_l" transform="matrix(7.9,0,0,7.9,510.2,457.7)" />
<use xlink:href="#f0_d" transform="matrix(12,0,0,12,516.5,462.5)" />
<use xlink:href="#f5_13x" transform="matrix(12,0,0,12,165.1,499.2)" />
<use xlink:href="#f0_19" transform="matrix(12,0,0,12,189.6,499.2)" />
<use xlink:href="#f0_12" transform="matrix(12,0,0,12,195.8,499.2)" />
<use xlink:href="#f0_c" transform="matrix(12,0,0,12,211.6,499.2)" />
<use xlink:href="#f0_11" transform="matrix(12,0,0,12,217.8,499.2)" />
<use xlink:href="#f0_12" transform="matrix(12,0,0,12,231.8,499.2)" />
<use xlink:href="#f0_d" transform="matrix(12,0,0,12,243.1,499.2)" />
<use xlink:href="#f0_h" transform="matrix(7.9,0,0,7.9,252.4,494.4)" />
<use xlink:href="#f0_l" transform="matrix(7.9,0,0,7.9,256.4,494.4)" />
<use xlink:href="#f0_x" transform="matrix(12,0,0,12,271.8,499.2)" />
<use xlink:href="#f0_11" transform="matrix(12,0,0,12,287.6,499.2)" />
<use xlink:href="#f0_h" transform="matrix(7.9,0,0,7.9,301.9,494.4)" />
<use xlink:href="#f0_l" transform="matrix(7.9,0,0,7.9,305.9,494.4)" />
<use xlink:href="#f5_13x" transform="matrix(12,0,0,12,165.1,524.1)" />
<use xlink:href="#f0_12" transform="matrix(12,0,0,12,189.6,524.1)" />
<use xlink:href="#f0_c" transform="matrix(12,0,0,12,205.4,524.1)" />
<use xlink:href="#f0_11" transform="matrix(12,0,0,12,211.6,524.1)" />
<use xlink:href="#f0_12" transform="matrix(12,0,0,12,225.9,524.1)" />
<use xlink:href="#f0_d" transform="matrix(12,0,0,12,236.9,524.1)" />
<use xlink:href="#f0_h" transform="matrix(7.9,0,0,7.9,246.1,519.4)" />
<use xlink:href="#f0_l" transform="matrix(7.9,0,0,7.9,250.2,519.4)" />
<use xlink:href="#f0_x" transform="matrix(12,0,0,12,265.6,524.1)" />
<use xlink:href="#f0_11" transform="matrix(12,0,0,12,281.3,524.1)" />
<use xlink:href="#f0_h" transform="matrix(7.9,0,0,7.9,295.6,519.4)" />
<use xlink:href="#f0_l" transform="matrix(7.9,0,0,7.9,299.7,519.4)" />
<use xlink:href="#f5_13x" transform="matrix(12,0,0,12,165.1,548.7)" />
<use xlink:href="#f0_12" transform="matrix(12,0,0,12,189.6,548.7)" />
<use xlink:href="#f0_h" transform="matrix(7.9,0,0,7.9,201,543.9)" />
<use xlink:href="#f0_l" transform="matrix(7.9,0,0,7.9,205,543.9)" />
<use xlink:href="#f0_12" transform="matrix(12,0,0,12,220.1,548.7)" />
<use xlink:href="#f0_c" transform="matrix(12,0,0,12,235.8,548.7)" />
<use xlink:href="#f0_11" transform="matrix(12,0,0,12,242,548.7)" />
<use xlink:href="#f0_12" transform="matrix(12,0,0,12,256.3,548.7)" />
<use xlink:href="#f0_d" transform="matrix(12,0,0,12,267.7,548.7)" />
<use xlink:href="#f0_h" transform="matrix(7.9,0,0,7.9,276.9,543.9)" />
<use xlink:href="#f0_l" transform="matrix(7.9,0,0,7.9,281,543.9)" />
<use xlink:href="#f0_x" transform="matrix(12,0,0,12,296.4,548.7)" />
<use xlink:href="#f0_12" transform="matrix(12,0,0,12,311.8,548.7)" />
<use xlink:href="#f0_h" transform="matrix(7.9,0,0,7.9,323.1,543.9)" />
<use xlink:href="#f0_l" transform="matrix(7.9,0,0,7.9,327.2,543.9)" />
<use xlink:href="#f0_11" transform="matrix(12,0,0,12,342.6,548.7)" />
<use xlink:href="#f0_h" transform="matrix(7.9,0,0,7.9,356.9,543.9)" />
<use xlink:href="#f0_l" transform="matrix(7.9,0,0,7.9,360.6,543.9)" />
<use xlink:href="#f5_13x" transform="matrix(12,0,0,12,165.1,573.3)" />
<use xlink:href="#f0_19" transform="matrix(12,0,0,12,189.6,573.3)" />
<use xlink:href="#f0_c" transform="matrix(12,0,0,12,200.3,573.3)" />
<use xlink:href="#f0_11" transform="matrix(12,0,0,12,206.5,573.3)" />
<use xlink:href="#f0_12" transform="matrix(12,0,0,12,220.8,573.3)" />
<use xlink:href="#f0_d" transform="matrix(12,0,0,12,232.1,573.3)" />
<use xlink:href="#f6_4z" transform="matrix(12,0,0,12,238.4,573.3)" />
<use xlink:href="#f0_h" transform="matrix(7.9,0,0,7.9,250.5,568.5)" />
<use xlink:href="#f0_l" transform="matrix(7.9,0,0,7.9,254.6,568.5)" />
<use xlink:href="#f0_x" transform="matrix(12,0,0,12,265.2,573.3)" />
<use xlink:href="#f0_12" transform="matrix(12,0,0,12,280.6,573.3)" />
<use xlink:href="#f0_h" transform="matrix(7.9,0,0,7.9,292,568.5)" />
<use xlink:href="#f0_l" transform="matrix(7.9,0,0,7.9,296,568.5)" />
<use xlink:href="#f0_11" transform="matrix(12,0,0,12,311.4,573.3)" />
<use xlink:href="#f0_h" transform="matrix(7.9,0,0,7.9,325.7,568.5)" />
<use xlink:href="#f0_l" transform="matrix(7.9,0,0,7.9,329.7,568.5)" />
<use xlink:href="#f0_18" transform="matrix(12,0,0,12,165.1,597.8)" />
<use xlink:href="#f0_21" transform="matrix(12,0,0,12,180.5,597.8)" />
<use xlink:href="#f0_2a" transform="matrix(12,0,0,12,189.2,597.8)" />
<use xlink:href="#f0_1z" transform="matrix(12,0,0,12,199.9,597.8)" />
<use xlink:href="#f0_21" transform="matrix(12,0,0,12,208,597.8)" />
<use xlink:href="#f0_g" transform="matrix(12,0,0,12,216.8,597.8)" />
<use xlink:href="#f0_c" transform="matrix(12,0,0,12,225.9,597.8)" />
<use xlink:href="#f0_11" transform="matrix(12,0,0,12,232.2,597.8)" />
<use xlink:href="#f0_12" transform="matrix(12,0,0,12,246.4,597.8)" />
<use xlink:href="#f0_d" transform="matrix(12,0,0,12,257.5,597.8)" />
<use xlink:href="#f0_h" transform="matrix(7.9,0,0,7.9,266.7,593.1)" />
<use xlink:href="#f0_l" transform="matrix(7.9,0,0,7.9,270.7,593.1)" />
<use xlink:href="#f0_x" transform="matrix(12,0,0,12,286.5,597.8)" />
<use xlink:href="#f0_12" transform="matrix(12,0,0,12,301.9,597.8)" />
<use xlink:href="#f0_h" transform="matrix(7.9,0,0,7.9,313.2,593.1)" />
<use xlink:href="#f0_l" transform="matrix(7.9,0,0,7.9,317.3,593.1)" />
<use xlink:href="#f0_11" transform="matrix(12,0,0,12,332.7,597.8)" />
<use xlink:href="#f0_h" transform="matrix(7.9,0,0,7.9,347,593.1)" />
<use xlink:href="#f0_l" transform="matrix(7.9,0,0,7.9,350.7,593.1)" />
</g>
<path fill-rule="evenodd" d="M36.7,37.4h.7v-.7h-.7v.7Z" class="g0_20" />
<path fill-rule="evenodd" d="M36.7,37.4h.7v-.7h-.7v.7Z" class="g0_20" />
<path fill-rule="evenodd" d="M37.4,37.4H872.3v-.7H37.4v.7Z" class="g0_20" />
<path fill-rule="evenodd" d="M872.3,37.4h.7v-.7h-.7v.7Z" class="g0_20" />
<path fill-rule="evenodd" d="M872.3,37.4h.7v-.7h-.7v.7Z" class="g0_20" />
<path fill-rule="evenodd" d="M36.7,1249.2h.7V37.4h-.7V1249.2Z" class="g0_20" />
<path fill-rule="evenodd" d="M872.3,1249.2h.7V37.4h-.7V1249.2Z" class="g0_20" />
<path fill-rule="evenodd" d="M36.7,1249.9h.7v-.7h-.7v.7Z" class="g0_20" />
<path fill-rule="evenodd" d="M36.7,1249.9h.7v-.7h-.7v.7Z" class="g0_20" />
<path fill-rule="evenodd" d="M37.4,1249.9H872.3v-.7H37.4v.7Z" class="g0_20" />
<path fill-rule="evenodd" d="M872.3,1249.9h.7v-.7h-.7v.7Z" class="g0_20" />
<path fill-rule="evenodd" d="M872.3,1249.9h.7v-.7h-.7v.7Z" class="g0_20" />
<defs>
<path d="M322,-19c0,0,-72,0,-144,15c0,0,-73,14,-147,42c0,0,14,90,13,230H95V231c0,0,0,-73,7,-90c0,0,8,-17,35,-36c0,0,41,-29,98,-45c0,0,56,-15,122,-15c0,0,141,0,218,66c0,0,76,67,76,169c0,0,0,59,-26,101c0,0,-26,41,-73,61c0,0,-47,20,-174,31c0,0,-168,13,-228,40c0,0,-61,27,-95,84c0,0,-34,58,-34,144c0,0,0,145,105,237c0,0,105,93,291,93c0,0,74,0,149,-16c0,0,75,-17,151,-50c0,0,-21,-77,-23,-205H642v59c0,0,0,59,-15,79c0,0,-16,21,-82,45c0,0,-66,23,-139,23c0,0,-119,0,-187,-60c0,0,-68,-60,-68,-155c0,0,0,-59,28,-102c0,0,27,-43,75,-62c0,0,47,-19,201,-33c0,0,153,-15,207,-40c0,0,54,-24,87,-79c0,0,32,-54,32,-129c0,0,0,-149,-125,-257C656,89,531,-19,322,-19Z" 
id="f0_1j"
transform="scale(0.001,-0.001)" />

<path d="M38,-4V38l64,7c0,0,37,3,46,14c0,0,8,11,11,72c0,0,3,95,3,262c0,0,0,116,-3,178c0,0,-2,24,-13,33c0,0,-12,10,-52,10H38v43c0,0,91,13,134,24c0,0,43,11,110,38l18,-12c0,0,-5,-55,-6,-123c0,0,-6,-217,-6,-321c0,0,0,-97,7,-165c0,0,3,-27,14,-37c0,0,11,-11,54,-16l51,-7V-4c0,0,-109,4,-199,4C215,0,128,0,38,-4ZM222,880c0,0,-35,0,-59,25c0,0,-25,24,-25,59c0,0,0,35,25,60c0,0,24,25,59,25c0,0,35,0,59,-25c0,0,25,-25,25,-60c0,0,0,-35,-25,-59c0,0,-24,-25,-59,-25Z" 
id="f0_25"
transform="scale(0.001,-0.001)" />

<path d="M20,-4V38H73c0,0,55,0,64,26c0,0,10,26,10,310c0,0,0,127,-3,199c0,0,-2,24,-12,33c0,0,-11,9,-59,9H20v43c0,0,63,7,114,20c0,0,50,13,114,39c0,0,6,3,12,3c0,0,12,0,12,-18l-1,-28L270,573L383,673c0,0,20,18,42,26c0,0,49,17,99,17c0,0,80,0,138,-33c0,0,58,-32,84,-84c0,0,25,-52,25,-162L768,202c0,0,0,-121,10,-140c0,0,14,-24,55,-24h53V-4c0,0,-79,4,-137,4c0,0,-56,0,-121,-4c0,0,14,144,14,392c0,0,0,100,-18,141c0,0,-17,42,-59,68c0,0,-41,25,-99,25c0,0,-73,0,-123,-37c0,0,-51,-36,-63,-80c0,0,-7,-29,-7,-152c0,0,0,-137,2,-254c0,0,1,-35,10,-44c0,0,19,-17,62,-17h53V-4c0,0,-126,4,-201,4C199,0,120,0,20,-4Z" 
id="f0_2a"
transform="scale(0.001,-0.001)" />

<path d="M380,-19c0,0,-110,0,-187,41c0,0,-76,42,-118,121c0,0,-42,79,-42,188c0,0,0,96,32,167c0,0,32,71,90,111c0,0,58,40,145,79c0,0,61,28,137,28c0,0,57,0,99,-10c0,0,41,-9,89,-33c0,0,-19,-99,-21,-198H557v38c0,0,0,47,-13,67c0,0,-14,20,-63,39c0,0,-50,20,-108,20c0,0,-101,0,-155,-62c0,0,-55,-61,-55,-183c0,0,0,-157,81,-251c0,0,72,-85,187,-85c0,0,44,0,88,11c0,0,43,11,86,32L625,83L594,35C594,35,543,8,490,-5c0,0,-54,-14,-110,-14Z" 
id="f0_1z"
transform="scale(0.001,-0.001)" />

<path d="M442,407c0,0,56,0,108,5v42c0,0,0,65,-26,124c0,0,-17,37,-58,61c0,0,-41,24,-95,24c0,0,-84,0,-134,-61c0,0,-50,-61,-51,-190c0,0,116,-5,256,-5ZM380,-19c0,0,-152,0,-245,95c0,0,-93,96,-93,260c0,0,0,125,52,217c0,0,35,60,127,111c0,0,93,52,180,52c0,0,132,0,210,-78c0,0,77,-77,77,-217l-2,-44c0,0,-49,-11,-94,-15c0,0,-80,-6,-222,-6H184c0,0,4,-147,75,-222c0,0,72,-76,188,-76c0,0,53,0,104,17c0,0,52,17,103,51l12,-12L642,52C642,52,580,16,515,-1c0,0,-66,-18,-135,-18Z" 
id="f0_21"
transform="scale(0.001,-0.001)" />

<path d="M441,59c0,0,132,0,205,70c0,0,73,71,73,192c0,0,0,81,-32,133c0,0,-32,53,-90,77c0,0,-58,24,-185,24c0,0,-38,0,-85,-2V194c0,0,3,-51,3,-78c0,0,0,-20,-3,-47c0,0,69,-10,114,-10ZM395,614c0,0,149,0,213,53c0,0,65,52,65,152c0,0,0,86,-54,131c0,0,-54,46,-172,46c0,0,-52,0,-114,-9c0,0,-6,-92,-6,-276V616c0,0,37,-2,68,-2ZM116,-4V28c0,0,47,23,55,35c0,0,9,12,11,39c0,0,5,89,5,202V769c0,0,0,186,-14,211c0,0,-16,29,-79,29H43v47h62l68,-2c0,0,54,-3,85,-3c0,0,47,0,185,4l109,3c0,0,128,0,192,-45c0,0,79,-57,79,-161c0,0,0,-85,-56,-149c0,0,-56,-64,-193,-108c0,0,161,-10,231,-74c0,0,71,-64,71,-177c0,0,0,-142,-119,-246C757,98,638,-4,455,-4l-59,2c0,0,-75,2,-126,2c0,0,-37,0,-92,-2L116,-4Z" 
id="f0_12"
transform="scale(0.001,-0.001)" />

<path d="M280,-19c0,0,-92,0,-206,28C74,9,54,14,54,25l2,10c0,0,3,11,5,40c0,0,7,73,7,113l-1,36h46V175c0,0,0,-58,11,-73c0,0,19,-24,75,-46c0,0,57,-23,116,-23c0,0,77,0,125,42c0,0,49,41,49,99c0,0,0,45,-28,73c0,0,-29,27,-108,44c0,0,-148,29,-196,52c0,0,-48,22,-72,60c0,0,-23,37,-23,90c0,0,0,99,72,161c0,0,72,62,204,62c0,0,105,0,209,-42c0,0,-7,-51,-11,-170H491c0,0,-2,65,-14,86c0,0,-17,28,-63,50c0,0,-45,23,-96,23c0,0,-68,0,-108,-35c0,0,-41,-34,-41,-87c0,0,0,-50,32,-75c0,0,32,-26,177,-55c0,0,107,-22,142,-40c0,0,34,-19,55,-57c0,0,20,-38,20,-87c0,0,0,-101,-86,-174c0,0,-86,-72,-229,-72Z" 
id="f0_2f"
transform="scale(0.001,-0.001)" />

<path d="M315,-19c0,0,-55,0,-94,19c0,0,-38,20,-55,52c0,0,-17,31,-17,96l3,144V575c0,0,-58,0,-119,-5v32c0,0,64,24,119,51c0,0,-1,107,-6,232c0,0,87,36,125,59l19,-15c0,0,-6,-59,-12,-276c0,0,91,0,148,2l60,3l-8,-76l-31,1L304,582H278V289c0,0,0,-115,7,-147c0,0,8,-32,30,-50c0,0,23,-18,58,-18c0,0,22,0,43,9c0,0,20,8,40,26L478,83L405,-1c0,0,-24,-8,-46,-13c0,0,-23,-5,-44,-5Z" 
id="f0_2g"
transform="scale(0.001,-0.001)" />

<path d="M23,-4V38l47,6c0,0,44,5,56,12c0,0,11,7,14,33c0,0,6,40,6,180V772c0,0,0,199,-11,223c0,0,-6,16,-60,16H23v46c0,0,116,12,185,34l62,21c0,0,12,0,12,-16l-3,-31L275,931c0,0,-4,-101,-4,-157V574l98,86c0,0,34,32,67,44c0,0,33,12,80,12c0,0,83,0,144,-33c0,0,61,-34,84,-85c0,0,24,-52,24,-177L763,201c0,0,0,-75,6,-118c0,0,2,-18,12,-27c0,0,10,-9,44,-12l56,-6V-4c0,0,-72,4,-141,4c0,0,-59,0,-117,-4c0,0,14,186,14,367c0,0,0,122,-15,165c0,0,-16,43,-55,69c0,0,-40,25,-100,25c0,0,-62,0,-113,-30c0,0,-50,-29,-70,-68c0,0,-13,-27,-13,-131V263c0,0,0,-177,8,-196c0,0,8,-18,60,-23l65,-6V-4c0,0,-117,4,-187,4C217,0,143,0,23,-4Z" 
id="f0_24"
transform="scale(0.001,-0.001)" />

<path d="M377,-11c0,0,-98,245,-200,477c0,0,-39,85,-47,109c0,0,-16,48,-37,66c0,0,-20,17,-52,17H16v43c0,0,110,-5,183,-5c0,0,78,0,171,5V658H337c0,0,-45,0,-64,-10c0,0,-13,-7,-13,-22c0,0,0,-13,14,-52c0,0,13,-38,180,-451L588,445c0,0,45,112,56,156c0,0,3,11,3,20c0,0,0,14,-10,21c0,0,-10,6,-50,11l-48,5v43c0,0,77,-5,137,-5c0,0,70,0,150,5V658H803c0,0,-17,0,-33,-7c0,0,-12,-5,-20,-13c0,0,-7,-8,-54,-104c0,0,-84,-174,-128,-274c0,0,-45,-101,-114,-271Z" 
id="f0_2i"
transform="scale(0.001,-0.001)" />

<path d="M24,-4V38l72,6c0,0,38,3,48,14c0,0,10,12,13,73c0,0,5,107,5,255c0,0,0,180,-14,212c0,0,-10,20,-61,20H24v43c0,0,73,8,129,21c0,0,57,13,101,33c0,0,11,6,17,6c0,0,9,0,12,-5c0,0,3,-4,3,-20L283,548c0,0,29,28,65,74c0,0,41,54,77,75c0,0,36,20,76,20c0,0,41,0,62,-10c0,0,11,-4,11,-14l-1,-8c0,0,-12,-60,-13,-169H526c0,0,-17,38,-40,54c0,0,-24,16,-56,16c0,0,-44,0,-82,-30c0,0,-37,-30,-50,-84c0,0,-12,-53,-12,-211c0,0,0,-103,8,-174c0,0,3,-26,15,-33c0,0,28,-16,83,-16h45V-4c0,0,-114,4,-216,4C221,0,121,0,24,-4Z" 
id="f0_2e"
transform="scale(0.001,-0.001)" />

<path d="M439,33c0,0,90,0,146,69c0,0,55,69,55,208c0,0,0,113,-32,195c0,0,-33,83,-87,120c0,0,-54,38,-120,38c0,0,-59,0,-107,-30c0,0,-47,-30,-70,-80c0,0,-30,-68,-30,-147c0,0,0,-154,63,-263c0,0,63,-110,182,-110ZM390,-19c0,0,-149,0,-243,100c0,0,-93,100,-93,272c0,0,0,103,48,186c0,0,47,83,133,130c0,0,87,47,196,47c0,0,159,0,255,-94c0,0,95,-94,95,-250c0,0,0,-185,-124,-294c0,0,-112,-97,-267,-97Z" 
id="f0_2b"
transform="scale(0.001,-0.001)" />

<path d="M17,-4V38H67c0,0,58,0,68,23c0,0,15,32,15,235V587L42,580v31c0,0,53,26,108,55v95c0,0,0,72,19,118c0,0,20,45,80,107c0,0,80,83,124,109c0,0,29,17,73,17c0,0,29,0,65,-10c0,0,-2,-38,-2,-61c0,0,0,-23,2,-63l-18,-9c0,0,-44,39,-101,39c0,0,-63,0,-90,-43c0,0,-26,-42,-26,-207V658c0,0,121,1,198,8l5,-8L467,587l-92,2c0,0,-33,0,-99,-2V296c0,0,0,-209,12,-233c0,0,12,-25,75,-25h65V-4c0,0,-122,4,-175,4L17,-4Z" 
id="f0_22"
transform="scale(0.001,-0.001)" />

<path d="M754,415L566,863L378,415ZM28,-4V42l23,1c0,0,52,1,67,11c0,0,16,9,33,46c0,0,53,107,108,232L464,796c0,0,82,185,112,269h51L1004,187c0,0,38,-90,51,-108c0,0,12,-18,29,-26c0,0,16,-8,74,-11V-4c0,0,-97,4,-185,4c0,0,-82,0,-219,-4V42l74,5c0,0,40,3,47,8c0,0,11,8,11,21c0,0,0,13,-22,70L782,353H351L300,233c0,0,-50,-119,-50,-146c0,0,0,-17,9,-25c0,0,10,-7,48,-12l71,-8V-4c0,0,-71,4,-161,4C217,0,110,0,28,-4Z" 
id="f0_11"
transform="scale(0.001,-0.001)" />

<path d="M87,346V450H839V346Zm0,255V705H839V601Z" 
id="f0_x"
transform="scale(0.001,-0.001)" />

<path d="M46,-4V42H93c0,0,69,0,83,34c0,0,14,33,14,321V650c0,0,0,298,-12,329c0,0,-12,30,-72,30H46v47c0,0,124,-5,245,-5c0,0,100,0,182,5v-47H416c0,0,-54,0,-67,-13c0,0,-13,-12,-16,-64c0,0,-3,-79,-3,-284V391c0,0,0,-290,12,-319c0,0,13,-30,82,-30h49V-4c0,0,-91,4,-200,4C273,0,147,0,46,-4Z" 
id="f0_19"
transform="scale(0.001,-0.001)" />

<path d="M192,-19c0,0,-37,0,-63,25c0,0,-25,26,-25,62c0,0,0,37,25,62c0,0,26,25,63,25c0,0,36,0,61,-25c0,0,26,-25,26,-62c0,0,0,-36,-26,-62c0,0,-25,-25,-61,-25Z" 
id="f0_i"
transform="scale(0.001,-0.001)" />

<path d="M443,-410c0,0,-126,125,-192,236c0,0,-66,111,-102,245c0,0,-37,134,-37,284c0,0,0,172,48,318c0,0,47,146,118,247c0,0,72,101,170,192l32,-41c0,0,-87,-103,-136,-204c0,0,-50,-100,-76,-219c0,0,-25,-120,-25,-275c0,0,0,-165,23,-291c0,0,24,-125,69,-222c0,0,44,-97,145,-233l-37,-37Z" 
id="f0_c"
transform="scale(0.001,-0.001)" />

<path d="M127,-4V44l58,2c0,0,101,3,121,29c0,0,20,25,19,204l5,414c0,0,0,207,-4,228c0,0,-3,13,-14,13c0,0,-7,0,-34,-12c0,0,-127,-55,-174,-82c0,0,-33,-19,-39,-19c0,0,-9,0,-11,12l-5,73c0,0,235,70,401,157l21,-10l-3,-84L461,539L456,245c0,0,0,-105,9,-140c0,0,9,-34,28,-46c0,0,20,-11,95,-13l68,-2V-4c0,0,-187,4,-266,4c0,0,-90,0,-263,-4Z" 
id="f0_l"
transform="scale(0.001,-0.001)" />

<path d="M61,-410l-32,41c0,0,87,103,136,203c0,0,50,101,76,219c0,0,26,120,26,275c0,0,0,165,-24,291c0,0,-25,127,-69,224c0,0,-45,97,-145,231l38,38c0,0,124,-124,191,-236c0,0,66,-111,103,-246c0,0,36,-134,36,-284c0,0,0,-172,-47,-317c0,0,-47,-145,-119,-246c0,0,-72,-101,-170,-193Z" 
id="f0_d"
transform="scale(0.001,-0.001)" />

<path d="M672,-19c0,0,-183,0,-322,70c0,0,-139,71,-214,196c0,0,-74,125,-74,282c0,0,0,157,75,281c0,0,75,124,213,192c0,0,137,69,338,69c0,0,105,0,246,-35c0,0,70,-16,114,-25c0,0,-34,-79,-39,-225H959l-6,133c0,0,-66,44,-139,66c0,0,-72,21,-151,21c0,0,-202,0,-323,-122C340,884,219,762,219,557c0,0,0,-143,62,-256c0,0,61,-112,174,-178c0,0,114,-65,240,-65c0,0,100,0,197,23c0,0,74,17,147,72l16,-15c0,0,-16,-34,-29,-70C1026,68,939,25,850,3c0,0,-88,-22,-178,-22Z" 
id="f0_13"
transform="scale(0.001,-0.001)" />

<path d="M296,69c0,0,56,0,107,32c0,0,51,31,97,93l-2,165l2,36c0,0,-207,-45,-263,-84c0,0,-56,-39,-56,-120c0,0,0,-55,32,-88c0,0,32,-34,83,-34ZM249,-19c0,0,-97,0,-147,47c0,0,-51,47,-51,127c0,0,0,75,36,131c0,0,36,56,103,83c0,0,67,27,310,70c0,0,-2,95,-42,142c0,0,-51,58,-145,58c0,0,-35,0,-67,-8c0,0,-31,-9,-58,-27c0,0,-21,-53,-39,-101l-42,11V615l81,46c0,0,55,32,97,44c0,0,41,12,88,12c0,0,103,0,166,-47c0,0,63,-46,76,-117c0,0,9,-54,11,-267c0,0,2,-200,9,-221c0,0,7,-21,37,-21h59V-4c0,0,-85,4,-119,4c0,0,-42,0,-112,-4l1,66c0,0,0,32,-1,65L345,9c0,0,-20,-15,-41,-21c0,0,-20,-7,-55,-7Z" 
id="f0_1x"
transform="scale(0.001,-0.001)" />

<path d="M37,-4V38l64,5c0,0,43,4,49,22c0,0,9,29,9,265V854l-3,97c0,0,0,37,-8,45c0,0,-12,12,-50,12H37v45c0,0,156,14,248,59l13,-9c0,0,-12,-219,-12,-396V324c0,0,0,-228,9,-259c0,0,5,-16,49,-20l64,-7V-4c0,0,-82,4,-156,4C252,0,170,0,37,-4Z" 
id="f0_28"
transform="scale(0.001,-0.001)" />

<path d="M30,-4V37L289,305c0,0,147,152,197,247c0,0,49,95,49,176c0,0,0,101,-58,161c0,0,-58,60,-153,60c0,0,-63,0,-113,-22c0,0,-37,-16,-53,-41c0,0,-15,-25,-46,-139H67c0,0,23,146,25,211c0,0,56,59,121,86c0,0,65,27,147,27c0,0,144,0,230,-82c0,0,85,-82,85,-214c0,0,0,-115,-77,-225c0,0,-77,-111,-259,-278L194,123H466c0,0,174,0,260,11l8,-7c0,0,-7,-42,-7,-60c0,0,0,-14,7,-67l-8,-4c0,0,-148,4,-328,4C398,0,209,0,30,-4Z" 
id="f0_m"
transform="scale(0.001,-0.001)" />

<path d="M245,-4V42h63c0,0,49,0,64,13c0,0,15,13,19,51c0,0,7,87,7,225V757c0,0,0,126,-5,232H317c0,0,-183,0,-202,-9c0,0,-19,-9,-24,-67L80,814H33l2,88c0,0,0,54,-10,154c0,0,403,-5,473,-5l412,5c0,0,-14,-126,-16,-242H847l-8,97c0,0,-4,51,-12,60c0,0,-9,9,-37,12c0,0,-82,6,-186,6H546c0,0,-8,-112,-8,-236V328c0,0,0,-237,12,-262c0,0,12,-24,84,-24h56V-4c0,0,-131,4,-223,4c0,0,-92,0,-222,-4Z" 
id="f0_1k"
transform="scale(0.001,-0.001)" />

<path d="M355,-19c0,0,-67,0,-116,28c0,0,-48,28,-70,73c0,0,-22,45,-22,143c0,0,0,51,2,118l3,120c0,0,0,126,-8,140c0,0,-7,14,-47,14H30v41c0,0,102,9,188,37l63,24c0,0,12,0,12,-19l-5,-76c0,0,-10,-158,-10,-294c0,0,0,-135,11,-173c0,0,11,-38,47,-63c0,0,35,-25,87,-25c0,0,69,0,127,45c0,0,57,45,75,90c0,0,10,26,10,157c0,0,0,221,-8,240c0,0,-8,16,-67,16H501v41c0,0,76,9,130,21c0,0,53,12,113,36c0,0,7,4,13,4c0,0,13,0,13,-15l-3,-69c0,0,-11,-255,-11,-449c0,0,0,-109,11,-125c0,0,17,-23,71,-23h43V-4c0,0,-93,4,-157,4c0,0,-49,0,-97,-4l8,134L591,82C591,82,540,26,486,3c0,0,-53,-22,-131,-22Z" 
id="f0_2h"
transform="scale(0.001,-0.001)" />

<path d="M256,-4V58c0,0,43,0,89,7c0,0,21,4,30,12c0,0,9,9,14,32c0,0,5,32,9,236c0,0,2,145,2,295c0,0,0,296,-2,302c0,0,-2,5,-53,5c0,0,-103,0,-178,-5c0,0,-43,-4,-49,-8c0,0,-6,-4,-9,-13c0,0,-3,-9,-12,-131H32c0,0,2,142,-8,245l9,6c0,0,235,-10,457,-10c0,0,222,0,496,10l8,-12c0,0,-14,-102,-20,-239H912c0,0,-6,126,-13,136c0,0,-5,9,-24,12c0,0,-60,9,-238,9c0,0,-14,0,-17,-4c0,0,-3,-5,-3,-40L612,401c0,0,0,-218,4,-267c0,0,4,-50,18,-61c0,0,10,-6,118,-15V-4c0,0,-110,4,-233,4C519,0,357,0,256,-4Z" 
id="f1_1k"
transform="scale(0.001,-0.001)" />

<path d="M35,-4V57c0,0,81,4,93,11c0,0,7,4,11,13c0,0,7,19,8,137l2,275c0,0,0,218,-5,398c0,0,-2,68,-14,80c0,0,-12,11,-95,14v53c0,0,46,0,132,18c0,0,86,17,141,39c0,0,22,10,26,10c0,0,11,0,11,-14v-5c0,0,-2,-18,-2,-56L337,791c0,0,-1,-87,0,-201l98,83c0,0,31,26,47,32c0,0,39,16,92,16c0,0,117,0,173,-59c0,0,55,-58,55,-184L799,182c0,0,0,-79,6,-98c0,0,3,-11,17,-18c0,0,14,-6,83,-9V-4c0,0,-91,4,-163,4c0,0,-67,0,-138,-4L595,8c0,0,14,145,14,284c0,0,0,192,-22,237c0,0,-30,58,-107,58c0,0,-47,0,-82,-22c0,0,-36,-22,-50,-51c0,0,-14,-30,-14,-111l3,-230c0,0,1,-77,8,-92c0,0,4,-8,12,-12c0,0,16,-8,97,-12V-4c0,0,-86,4,-180,4C274,0,138,0,35,-4Z" 
id="f1_24"
transform="scale(0.001,-0.001)" />

<path d="M385,423c0,0,59,0,124,6v35c0,0,0,92,-33,134c0,0,-34,42,-91,42c0,0,-40,0,-69,-19c0,0,-29,-20,-43,-56c0,0,-14,-36,-22,-136c0,0,67,-6,134,-6ZM408,-20c0,0,-162,0,-256,94c0,0,-93,94,-93,265c0,0,0,108,27,179c0,0,23,58,74,96c0,0,51,38,117,72c0,0,67,35,147,35c0,0,122,0,202,-69c0,0,79,-68,79,-219c0,0,0,-19,-3,-57L581,354c0,0,-57,-4,-164,-4H256c0,0,11,-129,77,-194c0,0,65,-65,166,-65c0,0,43,0,85,12c0,0,41,13,82,37l22,-22L654,46C654,46,601,13,539,-3c0,0,-61,-17,-131,-17Z" 
id="f1_21"
transform="scale(0.001,-0.001)" />

<path d="M437,53c0,0,69,0,107,55c0,0,38,55,38,201c0,0,0,200,-46,277c0,0,-38,61,-119,61c0,0,-69,0,-109,-56c0,0,-40,-56,-40,-190c0,0,0,-199,51,-283c0,0,39,-65,118,-65ZM415,-20c0,0,-173,0,-263,94c0,0,-90,95,-90,276c0,0,0,177,82,265c0,0,99,106,286,106c0,0,187,0,272,-85c0,0,86,-84,86,-266c0,0,0,-188,-99,-289C689,81,591,-20,415,-20Z" 
id="f1_2b"
transform="scale(0.001,-0.001)" />

<path d="M16,-4V57c0,0,75,3,86,9c0,0,9,4,14,14c0,0,9,18,10,79c0,0,3,109,3,199c0,0,0,172,-4,204c0,0,-3,19,-14,27c0,0,-11,7,-95,10v58c0,0,150,14,215,35l76,29c0,0,11,0,11,-15l-1,-10c0,0,-2,-47,-2,-135c0,0,38,36,84,92c0,0,34,42,60,55c0,0,25,13,68,13c0,0,23,0,48,-9c0,0,-7,-74,-9,-203L533,497c0,0,-18,29,-38,41c0,0,-21,12,-53,12c0,0,-45,0,-77,-24c0,0,-32,-23,-41,-53c0,0,-6,-22,-6,-152c0,0,0,-189,5,-220c0,0,3,-21,14,-29c0,0,17,-11,113,-15V-4l-84,3c0,0,-80,1,-138,1c0,0,-55,0,-128,-1L16,-4Z" 
id="f1_2e"
transform="scale(0.001,-0.001)" />

<path d="M46,-4V57c0,0,77,3,88,10c0,0,11,7,14,26c0,0,6,36,6,173c0,0,0,287,-8,311c0,0,-6,20,-52,21l-48,1v58c0,0,92,10,156,24c0,0,65,15,117,36c0,0,11,4,16,4c0,0,10,0,10,-19c0,0,0,-14,-2,-38c0,0,-1,-11,-1,-37V600l122,92c0,0,39,29,118,29c0,0,80,0,126,-31c0,0,47,-31,72,-99L907,692c0,0,36,29,102,29c0,0,117,0,173,-58c0,0,55,-57,55,-187l-2,-62c0,0,-3,-103,-3,-183c0,0,0,-107,7,-138c0,0,4,-18,15,-25c0,0,11,-7,85,-11V-4c0,0,-93,4,-162,4c0,0,-67,0,-139,-4l-9,13c0,0,19,161,19,314c0,0,0,181,-28,226c0,0,-28,46,-99,46c0,0,-47,0,-82,-24c0,0,-35,-23,-46,-53c0,0,-8,-21,-8,-130c0,0,0,-198,5,-273c0,0,3,-34,14,-43c0,0,12,-9,96,-15V-4c0,0,-98,4,-192,4C708,0,591,0,498,-4V57c0,0,73,0,86,21c0,0,12,21,12,187c0,0,0,189,-7,235c0,0,-7,47,-36,71c0,0,-29,24,-80,24c0,0,-37,0,-67,-18c0,0,-31,-17,-52,-48c0,0,-12,-17,-12,-53l1,-29c0,0,2,-21,2,-117l-1,-88c0,0,0,-127,5,-150c0,0,2,-15,12,-22c0,0,10,-7,82,-13V-4c0,0,-89,4,-196,4C247,0,210,0,46,-4Z" 
id="f1_29"
transform="scale(0.001,-0.001)" />

<path d="M242,385l146,2l11,511c0,0,-47,-62,-139,-224c0,0,-92,-161,-147,-287c0,0,78,-2,129,-2ZM206,-7l-6,7V56l6,6c0,0,128,7,142,12c0,0,21,6,27,25c0,0,8,23,13,164c0,0,-216,0,-378,-4L7,279L0,324c0,0,68,158,178,352c0,0,111,195,213,333c0,0,77,13,192,37l17,-15c0,0,-7,-105,-11,-218L577,387c0,0,83,0,138,3l5,-11l-1,-24l-1,-45V262l-3,-6c0,0,-66,7,-138,7l-1,-34c0,0,0,-131,12,-146c0,0,15,-20,127,-27l8,-5V-2l-8,-5c0,0,-143,7,-245,7c0,0,-58,0,-99,-1L206,-7Z" 
id="f1_o"
transform="scale(0.001,-0.001)" />

<path d="M459,38c0,0,119,0,203,83c0,0,84,84,84,201c0,0,0,118,-84,201c0,0,-84,83,-203,83c0,0,-120,0,-204,-83c0,0,-84,-83,-84,-201c0,0,0,-116,84,-200c0,0,84,-84,204,-84Zm0,-61c0,0,-146,0,-248,100c0,0,-102,102,-102,245c0,0,0,143,102,245c0,0,102,102,248,102c0,0,145,0,247,-102c0,0,103,-101,103,-245c0,0,0,-143,-103,-245C706,77,604,-23,459,-23Z" 
id="f2_2b"
transform="scale(0.001,-0.001)" />

<path d="M431,74c0,0,59,0,109,33c0,0,50,34,73,87c0,0,23,53,23,166V542c0,0,-51,55,-107,83c0,0,-55,27,-115,27c0,0,-98,0,-157,-71c0,0,-59,-71,-59,-208c0,0,0,-140,68,-219c0,0,68,-80,165,-80ZM363,-19c0,0,-126,0,-211,94c0,0,-85,95,-85,253c0,0,0,99,33,169c0,0,33,70,78,102c0,0,46,32,142,80c0,0,73,37,136,37c0,0,42,0,87,-11c0,0,45,-12,93,-35V941c0,0,0,47,-10,59c0,0,-11,12,-48,12H514v45c0,0,133,9,248,55l14,-9c0,0,-6,-76,-9,-184L764,721l-2,-65V211c0,0,0,-125,8,-139c0,0,11,-20,61,-27l53,-7V-4c0,0,-92,6,-162,6c0,0,-12,0,-94,-6c0,0,5,50,8,142C636,138,573,89,475,1c0,0,-64,-20,-112,-20Z" 
id="f0_20"
transform="scale(0.001,-0.001)" />

<path d="M450,58c0,0,109,0,168,87c0,0,60,87,60,211c0,0,0,130,-58,198c0,0,-57,68,-155,68c0,0,-65,0,-119,-37c0,0,-53,-38,-74,-87c0,0,-7,-20,-7,-90V239c0,0,0,-81,6,-93c0,0,12,-24,64,-56c0,0,53,-32,115,-32ZM403,-19c0,0,-56,0,-100,15c0,0,-45,14,-93,51L150,-8L124,1c0,0,15,115,15,242V717c0,0,0,110,-7,225c0,0,-3,53,-12,62c0,0,-10,10,-44,10H12v42c0,0,64,7,134,22c0,0,47,9,101,30c0,0,8,4,14,4c0,0,16,0,16,-29l-4,-37c0,0,-5,-43,-6,-64c0,0,-2,-96,-2,-263V561l91,91c0,0,29,29,76,46c0,0,48,18,101,18c0,0,120,0,198,-83c0,0,77,-83,77,-220c0,0,0,-75,-27,-146c0,0,-27,-71,-66,-115c0,0,-18,-21,-100,-80C615,72,534,12,510,1c0,0,-45,-20,-107,-20Z" 
id="f0_1y"
transform="scale(0.001,-0.001)" />

<path d="M34,-4V38H91c0,0,48,0,58,26c0,0,9,26,9,281c0,0,0,187,-2,220c0,0,-2,34,-12,43c0,0,-11,9,-64,9H34v41c0,0,110,15,189,41l54,21c0,0,13,0,13,-18l-1,-27c0,0,-2,-42,-2,-93l100,90c0,0,24,21,51,30c0,0,39,14,77,14c0,0,84,0,135,-31c0,0,52,-30,94,-108l96,88c0,0,25,22,61,34c0,0,47,17,91,17c0,0,67,0,122,-32c0,0,54,-31,81,-81c0,0,26,-50,26,-136l-3,-292c0,0,0,-97,12,-115c0,0,11,-17,58,-20l55,-2V-4l-37,2c0,0,-87,2,-118,2c0,0,-47,0,-110,-4c0,0,10,137,10,321c0,0,0,156,-13,205c0,0,-13,49,-51,77c0,0,-38,28,-96,28c0,0,-64,0,-110,-35c0,0,-47,-35,-58,-84c0,0,-7,-31,-7,-266c0,0,0,-138,2,-157c0,0,2,-19,12,-27c0,0,11,-8,65,-14l50,-6V-4c0,0,-132,4,-194,4c0,0,-49,0,-191,-4V38h50c0,0,45,0,58,13c0,0,14,13,16,60c0,0,6,122,6,255c0,0,0,118,-16,163c0,0,-16,46,-55,72c0,0,-38,26,-92,26c0,0,-57,0,-104,-32c0,0,-47,-32,-64,-78c0,0,-11,-31,-11,-177c0,0,0,-161,3,-236c0,0,1,-35,11,-45c0,0,9,-10,64,-15l52,-6V-4c0,0,-94,4,-176,4C239,0,145,0,34,-4Z" 
id="f0_29"
transform="scale(0.001,-0.001)" />

<path d="M33,-221l-22,23c0,0,65,100,95,182c0,0,30,80,41,175c0,0,86,21,152,47l21,-22C320,184,277,80,228,-2c0,0,-50,-84,-132,-187L33,-221Z" 
id="f0_g"
transform="scale(0.001,-0.001)" />

<path d="M134,0V40L339,60V876L137,804v39l292,166h39V60L672,40V0Z" 
id="f3_l"
transform="scale(0.001,-0.001)" />

<path d="M460,-325c0,0,-148,79,-231,172c0,0,-84,93,-123,217c0,0,-39,126,-39,304c0,0,0,178,39,303c0,0,39,125,122,217c0,0,82,93,232,172V997c0,0,-91,-52,-145,-134c0,0,-54,-81,-79,-190c0,0,-25,-109,-25,-305c0,0,0,-194,26,-309c0,0,26,-114,82,-193c0,0,56,-79,141,-128v-63Z" 
id="f3_c"
transform="scale(0.001,-0.001)" />

<path d="M681,416L504,902L333,416ZM669,0V40L803,60L704,348H310L210,60L344,40V0H15V40L128,60l341,949H611L965,60L1092,40V0Z" 
id="f3_11"
transform="scale(0.001,-0.001)" />

<path d="M536,63c0,0,127,0,191,54c0,0,63,54,63,168c0,0,0,105,-70,154c0,0,-70,49,-225,49H316V67c0,0,103,-4,220,-4ZM480,555c0,0,121,0,178,48c0,0,57,48,57,155c0,0,0,91,-58,133c0,0,-57,42,-186,42H316V555ZM554,-4L235,0H44V40L172,60V941L44,960v40H501c0,0,191,0,279,-56c0,0,88,-56,88,-179c0,0,0,-88,-55,-149c0,0,-54,-62,-151,-83c0,0,135,-14,209,-79c0,0,73,-65,73,-166c0,0,0,-144,-99,-219C845,69,745,-4,554,-4Z" 
id="f3_12"
transform="scale(0.001,-0.001)" />

<path d="M49,-325v63c0,0,85,49,140,128c0,0,56,79,83,194c0,0,26,115,26,308c0,0,0,196,-25,305c0,0,-25,109,-79,190c0,0,-54,82,-145,134v63c0,0,149,-80,232,-172c0,0,83,-92,122,-217c0,0,39,-125,39,-303c0,0,0,-177,-39,-303c0,0,-39,-125,-122,-217c0,0,-83,-93,-232,-173Z" 
id="f3_d"
transform="scale(0.001,-0.001)" />

<path d="M0,356v74H784V356Z" 
id="f4_h"
transform="scale(0.001,-0.001)" />

<path d="M0,214v74H784V214ZM0,494v72H784V494Z" 
id="f4_x"
transform="scale(0.001,-0.001)" />

<path d="M59,-4V58c0,0,88,6,100,14c0,0,9,4,14,16c0,0,7,18,10,154c0,0,4,136,4,263c0,0,0,238,-5,340c0,0,-5,102,-16,114c0,0,-11,12,-64,16l-43,4v62l84,-2c0,0,78,-3,124,-3c0,0,64,0,204,3c0,0,76,2,112,2c0,0,134,0,197,-25c0,0,64,-25,97,-76c0,0,33,-51,33,-128c0,0,0,-138,-98,-231c0,0,-98,-93,-249,-93c0,0,-20,0,-41,3c0,0,-22,3,-46,8c0,0,-13,27,-27,52l17,18c0,0,16,-3,30,-6c0,0,14,-2,25,-2c0,0,75,0,123,52c0,0,47,52,47,145c0,0,0,104,-49,155c0,0,-49,51,-144,51c0,0,-39,0,-91,-11c0,0,-8,-229,-8,-389c0,0,0,-54,6,-342c0,0,2,-114,7,-131c0,0,4,-13,15,-18c0,0,16,-9,126,-15V-4c0,0,-131,4,-222,4C331,0,291,0,59,-4Z" 
id="f1_1g"
transform="scale(0.001,-0.001)" />

<path d="M10,-4V57l46,3c0,0,46,3,57,15c0,0,12,12,15,62c0,0,6,104,6,250l-2,180c0,0,-74,-4,-122,-8v39l71,37l13,6l8,4l21,11v70c0,0,1,85,20,122c0,0,19,38,102,113c0,0,112,101,139,118c0,0,48,31,115,31c0,0,21,0,43,-4c0,0,23,-4,47,-13c0,0,-13,-87,-21,-185l-29,-5c0,0,-33,31,-65,46c0,0,-32,15,-64,15c0,0,-41,0,-62,-18c0,0,-21,-18,-25,-61c0,0,-5,-43,-5,-229h76c0,0,62,0,127,11l9,-12c0,0,-12,-43,-19,-92c0,0,-45,4,-83,4H318c0,0,0,-323,4,-422c0,0,2,-56,17,-68c0,0,18,-16,132,-20V-4c0,0,-109,4,-211,4C260,0,159,0,10,-4Z" 
id="f1_22"
transform="scale(0.001,-0.001)" />

<path d="M191,-20c0,0,-49,0,-84,34c0,0,-36,36,-36,85c0,0,0,49,35,84c0,0,35,35,85,35c0,0,49,0,84,-35c0,0,35,-34,35,-84c0,0,0,-49,-35,-84c0,0,-35,-35,-84,-35Zm0,502c0,0,-49,0,-84,35c0,0,-36,35,-36,85c0,0,0,49,35,84c0,0,35,35,85,35c0,0,49,0,84,-35c0,0,35,-35,35,-84c0,0,0,-50,-35,-85c0,0,-35,-35,-84,-35Z" 
id="f1_u"
transform="scale(0.001,-0.001)" />

<path d="M28,-4V42H88c0,0,64,0,78,25c0,0,15,24,15,179V809c0,0,0,151,-16,176c0,0,-16,24,-83,24H28v47c0,0,124,-5,223,-5l429,8c0,0,67,0,127,-7c0,0,-24,-79,-27,-225H732c0,0,-4,77,-18,139c0,0,-102,26,-206,26c0,0,-91,0,-178,-9c0,0,-9,-97,-9,-176V569c0,0,45,-2,88,-2c0,0,112,0,196,6c0,0,29,2,39,12c0,0,10,11,16,58l8,57h47c0,0,-6,-136,-6,-175l1,-176H661v57c0,0,0,69,-26,84c0,0,-26,15,-201,15c0,0,-47,0,-113,-2V246c0,0,0,-153,16,-178c0,0,16,-26,83,-26h53V-4c0,0,-141,4,-225,4C248,0,163,0,28,-4Z" 
id="f0_16"
transform="scale(0.001,-0.001)" />

<path d="M600,-22c0,0,-38,26,-64,59c0,0,-17,21,-165,244c0,0,-70,-86,-108,-139c0,0,-38,-53,-96,-146c0,0,-31,4,-57,4C110,0,83,0,37,-4V41c0,0,38,0,52,7c0,0,13,6,73,73c0,0,86,96,174,207c0,0,-138,206,-179,242c0,0,-41,35,-87,35c0,0,-13,0,-33,-2v40l143,70c0,0,47,-19,77,-54c0,0,50,-55,159,-234c0,0,98,129,198,276c0,0,29,-5,49,-5c0,0,15,0,65,5V658c0,0,-40,-2,-65,-24c0,0,-40,-35,-214,-252c0,0,101,-149,169,-237c0,0,46,-61,74,-76c0,0,18,-10,57,-10V16C749,16,680,0,600,-22Z" 
id="f0_2k"
transform="scale(0.001,-0.001)" />

<path d="M313,-11c0,0,-63,215,-142,469L123,607c0,0,-9,25,-28,38c0,0,-19,13,-44,13H14v43c0,0,118,-5,182,-5c0,0,62,0,183,5V658H338c0,0,-46,0,-63,-10c0,0,-13,-8,-13,-24c0,0,0,-37,127,-462L550,514c0,0,37,82,84,200h37c0,0,32,-91,66,-175L891,149l114,306c0,0,33,90,43,135c0,0,3,19,3,30c0,0,0,17,-15,28c0,0,-15,10,-47,10H939v43c0,0,98,-5,174,-5c0,0,66,0,127,5V658h-34c0,0,-26,0,-49,-26c0,0,-23,-27,-129,-274c0,0,-88,-207,-137,-369H818c0,0,-33,92,-109,282L614,511C614,511,510,290,446,138c0,0,-29,-68,-57,-149Z" 
id="f0_2j"
transform="scale(0.001,-0.001)" />

<path d="M42,297L32,308c0,0,23,56,38,108c0,0,109,-5,181,-5c0,0,60,0,220,5l6,-12c0,0,-25,-56,-37,-107c0,0,-102,7,-188,7c0,0,-96,0,-210,-7Z" 
id="f0_h"
transform="scale(0.001,-0.001)" />

<path d="M34,-4V42h67c0,0,47,0,60,12c0,0,14,11,18,47c0,0,3,35,8,216V715l-2,155c0,0,-2,96,-21,117c0,0,-19,22,-93,22H34v47c0,0,93,-4,237,-4c0,0,84,0,187,5c0,0,68,3,103,3c0,0,180,0,262,-66c0,0,81,-65,81,-177c0,0,0,-81,-47,-156c0,0,-47,-75,-133,-121c0,0,-86,-45,-184,-45c0,0,-44,0,-111,14l-15,56c0,0,65,-16,109,-16c0,0,103,0,164,62c0,0,60,62,60,170c0,0,0,104,-65,163c0,0,-64,58,-192,58c0,0,-72,0,-158,-27c0,0,-5,-108,-5,-229V320c0,0,0,-224,13,-251c0,0,13,-27,88,-27h51V-4c0,0,-132,4,-207,4C272,0,205,0,34,-4Z" 
id="f0_1g"
transform="scale(0.001,-0.001)" />

<path d="M487,58c0,0,118,0,180,88c0,0,63,89,63,211c0,0,0,82,-29,140c0,0,-29,59,-84,92c0,0,-55,33,-118,33c0,0,-45,0,-87,-18c0,0,-43,-18,-75,-49c0,0,-32,-32,-41,-59c0,0,-7,-20,-7,-106V156c0,0,48,-54,96,-76c0,0,47,-22,102,-22ZM30,-410v42H85c0,0,57,0,68,25c0,0,10,25,10,262V376c0,0,0,119,-6,184c0,0,-3,31,-14,41c0,0,-12,10,-54,10H30v46c0,0,104,11,205,43l45,18c0,0,12,0,12,-21l-2,-79l-1,-53l105,93c0,0,39,35,67,44c0,0,44,14,102,14c0,0,133,0,215,-82c0,0,82,-82,82,-212c0,0,0,-65,-19,-128c0,0,-19,-63,-45,-102c0,0,-27,-40,-61,-67c0,0,-11,-9,-90,-59L615,45C615,45,558,5,524,-6c0,0,-35,-13,-80,-13c0,0,-35,0,-73,11c0,0,-39,9,-82,28V-84c0,0,0,-162,5,-228c0,0,2,-29,19,-43c0,0,16,-13,69,-13h40v-42c0,0,-141,5,-207,5c0,0,-72,0,-185,-5Z" 
id="f0_2c"
transform="scale(0.001,-0.001)" />

<path d="M128,-430c0,0,-21,0,-44,7c0,0,-23,6,-46,19l34,117H90c0,0,20,-25,40,-37c0,0,20,-12,41,-12c0,0,47,0,85,45c0,0,38,44,117,249c0,0,-33,86,-131,329L173,458L117,589c0,0,-26,69,-78,69H9v43c0,0,77,-5,137,-5c0,0,46,0,215,5V658H306c0,0,-28,0,-41,-10c0,0,-13,-9,-13,-24c0,0,0,-11,14,-51c0,0,75,-207,177,-444c0,0,99,217,172,418c0,0,22,59,22,71c0,0,0,24,-51,32l-55,8v43c0,0,88,-5,157,-5c0,0,65,0,130,5V658H792c0,0,-17,0,-35,-10c0,0,-18,-10,-29,-28c0,0,-24,-38,-138,-290c0,0,-32,-69,-160,-374c0,0,-114,-259,-128,-284c0,0,-30,-49,-75,-76c0,0,-46,-26,-99,-26Z" 
id="f0_2l"
transform="scale(0.001,-0.001)" />

<path d="M409,-377c0,0,82,0,145,30c0,0,62,31,97,84c0,0,34,54,34,111c0,0,0,48,-24,85c0,0,-24,37,-57,47c0,0,-18,5,-79,5H351c0,0,-53,0,-72,-12c0,0,-62,-40,-76,-65c0,0,-22,-39,-22,-98c0,0,0,-81,60,-134c0,0,60,-53,168,-53ZM395,280c0,0,71,0,116,47c0,0,44,48,44,133c0,0,0,93,-47,150c0,0,-48,57,-121,57c0,0,-72,0,-115,-46c0,0,-44,-47,-44,-129c0,0,0,-99,47,-156c0,0,48,-56,120,-56ZM382,-430c0,0,-154,0,-237,67c0,0,-82,66,-82,164c0,0,0,60,43,122c0,0,78,37,131,74c0,0,-62,19,-80,36c0,0,-17,17,-17,43c0,0,0,31,17,62c0,0,10,18,49,45l73,52c0,0,-89,22,-129,63c0,0,-52,55,-52,141c0,0,0,75,39,137c0,0,38,62,114,98c0,0,96,46,186,46c0,0,56,0,99,-15c0,0,43,-15,88,-51h63c0,0,97,0,151,7l8,-16c0,0,-22,-32,-39,-68H668c0,0,17,-48,17,-78c0,0,0,-67,-40,-128c0,0,-40,-62,-115,-100c0,0,-75,-37,-161,-37l-36,1c0,0,-49,-37,-62,-55c0,0,-13,-18,-13,-35c0,0,0,-28,29,-45c0,0,29,-16,119,-16c0,0,34,0,98,3c0,0,92,4,133,4c0,0,59,0,91,-19c0,0,31,-19,53,-67c0,0,23,-46,23,-106c0,0,0,-83,-51,-160c0,0,-51,-77,-148,-123c0,0,-97,-46,-223,-46Z" 
id="f0_23"
transform="scale(0.001,-0.001)" />

<path d="M872,47L824,88L944,232H91v99h930l84,105l-86,106H91v99H943L824,783l48,41L1237,460V412L872,47Z" 
id="f5_13x"
transform="scale(0.001,-0.001)" />

<path d="M59,297L49,308c0,0,22,58,37,108c0,0,111,-5,267,-5c0,0,209,0,355,5l7,-12c0,0,-25,-55,-38,-107c0,0,-102,7,-277,7c0,0,-228,0,-341,-7Z" 
id="f6_4z"
transform="scale(0.001,-0.001)" />

<path d="M34,-4V42H80c0,0,78,0,93,27c0,0,14,26,14,242V761c0,0,0,195,-15,222c0,0,-14,26,-83,26H34v47c0,0,123,-5,229,-5c0,0,106,0,207,5v-47H438c0,0,-69,0,-85,-11c0,0,-17,-11,-20,-37c0,0,-6,-41,-6,-199V592c0,0,132,-5,338,-5c0,0,174,0,282,5V737c0,0,0,128,-8,215c0,0,-3,30,-21,44c0,0,-17,13,-69,13H795v47c0,0,114,-5,216,-5c0,0,110,0,229,5v-47h-57c0,0,-57,0,-73,-13c0,0,-16,-12,-19,-46c0,0,-4,-34,-4,-214V324c0,0,0,-229,13,-255c0,0,13,-27,82,-27h58V-4c0,0,-103,4,-212,4c0,0,-125,0,-233,-4V42h51c0,0,57,0,73,13c0,0,17,13,20,49c0,0,8,77,8,225V523c0,0,-105,5,-268,5c0,0,-233,0,-352,-5V314c0,0,0,-53,3,-126c0,0,5,-102,8,-113c0,0,3,-10,21,-22c0,0,19,-11,61,-11h50V-4c0,0,-96,4,-186,4C284,0,196,0,34,-4Z" 
id="f0_18"
transform="scale(0.001,-0.001)" />


</defs>
</svg>